<svg width="62" height="58" viewBox="0 0 62 58" fill="none" xmlns="http://www.w3.org/2000/svg">
<path d="M61.0161 27.2434C60.9837 27.1665 60.9574 27.0872 60.9377 27.0062C60.7251 26.1204 60.2468 25.3178 59.5646 24.7024C58.8824 24.087 58.0279 23.6871 57.1117 23.5545C56.1926 23.4269 55.2556 23.579 54.4271 23.9904C53.5985 24.4018 52.918 25.0528 52.4772 25.8556L52.1814 26.4013C52.109 26.5436 52.0306 26.6978 51.9461 26.8401C51.25 28.2159 50.2623 29.4292 49.0495 30.3986C48.5486 30.7781 48.0115 31.1162 47.4986 31.4483L46.8046 31.8931L46.696 31.9643L46.6175 31.8634C45.1451 29.847 44.1373 29.3251 41.7053 29.3251H38.8872C36.6543 29.3251 34.3491 29.3251 32.0741 29.3607C30.4799 29.4035 28.9023 29.0333 27.4998 28.2872C25.8657 27.3856 24.0179 26.9249 22.144 26.952C20.2702 26.9791 18.437 27.4929 16.8306 28.4414C13.84 30.1265 11.308 32.4969 9.45021 35.3507C9.37176 35.4752 9.29334 35.5939 9.20885 35.7125L9.02782 36.0031L8.90712 35.9082C7.93554 35.1372 7.6157 35.155 6.74671 36.0031L0.65175 41.9931C0.193118 42.4497 0 42.7641 0 43.0547C0 43.3453 0.193124 43.6477 0.657791 44.1222L2.37161 45.8006C6.08491 49.4341 9.7942 53.0697 13.4995 56.7072C13.6707 56.8654 13.8543 57.0101 14.0486 57.1401C14.1331 57.1935 14.2115 57.2528 14.29 57.3121H14.8029C14.8511 57.2809 14.9016 57.2532 14.9538 57.2291C15.0729 57.1616 15.186 57.0842 15.2918 56.9978C17.7056 54.6611 19.8539 52.5557 22.0324 50.4028C22.1475 50.3093 22.2402 50.192 22.3038 50.0593C22.3674 49.9265 22.4004 49.7815 22.4004 49.6348C22.4004 49.4881 22.3674 49.3431 22.3038 49.2103C22.2402 49.0776 22.1475 48.9603 22.0324 48.8668C21.8031 48.6295 21.5497 48.4042 21.3022 48.1847L20.9824 47.8941L20.8919 47.8111L20.9643 47.7162C21.5308 47.0447 22.2395 46.5027 23.0409 46.1278C23.8424 45.7529 24.7174 45.5542 25.6049 45.5456H41.3975C42.1269 45.5376 42.8548 45.4802 43.5761 45.3736C45.5856 45.083 47.2512 44.0451 48.784 43.0013C55.3074 38.5889 59.0911 34.1823 61.0644 28.7083V27.3027L61.0161 27.2434ZM14.5495 54.6611L2.78196 43.025L7.88123 37.978L19.6548 49.5547L14.5495 54.6611ZM58.723 28.8981C57.7349 31.2546 56.3428 33.4271 54.6074 35.321C52.1168 38.025 49.2357 40.355 46.0563 42.2362C44.7187 43.0391 43.1759 43.4506 41.6088 43.4224C40.082 43.4224 38.5915 43.4224 37.0526 43.4224C33.6189 43.4224 30.0766 43.4224 26.5825 43.3927C23.6075 43.3512 21.2962 44.2112 19.51 46.0319L19.4194 46.1268L10.6209 37.4976L10.6692 37.4027C11.4108 36.0861 12.3237 34.8699 13.3848 33.785C14.7239 32.2793 16.3237 31.0183 18.1099 30.0605C20.7712 28.6846 23.4807 28.6609 26.3955 29.9834C27.3731 30.4282 28.4292 30.8612 29.624 31.2882C29.9226 31.3678 30.2329 31.3959 30.5413 31.3712C30.6156 31.3771 30.6902 31.3771 30.7645 31.3712C32.4723 31.3712 34.1801 31.3712 35.8879 31.3712H42.3812C42.9549 31.3648 43.5136 31.5513 43.9647 31.8997C44.4157 32.2481 44.7322 32.7375 44.8615 33.2868C45.0042 33.8156 44.9566 34.3766 44.7268 34.8748C44.4969 35.3731 44.099 35.778 43.6002 36.0209C43.1506 36.2277 42.6603 36.335 42.164 36.3352C40.3536 36.3352 38.5432 36.3352 36.7328 36.3352C34.7233 36.3352 32.7077 36.3352 30.6982 36.3352C30.3321 36.3285 29.9761 36.4529 29.6964 36.6851C29.4927 37.0025 29.4173 37.3834 29.4852 37.7526C29.532 37.9464 29.6478 38.1175 29.8115 38.2349C29.9752 38.3523 30.1762 38.4084 30.3783 38.3932C30.8249 38.3932 31.2835 38.3932 31.7241 38.3932H42.1036C44.783 38.3932 46.5451 36.9698 47.0641 34.3959C47.1279 34.1482 47.2883 33.9352 47.5106 33.8028C50.4951 32.3902 52.8851 29.9994 54.2694 27.0418C54.4862 26.5028 54.8962 26.0605 55.4221 25.7983C55.9479 25.5361 56.5532 25.4721 57.1238 25.6184C57.4545 25.6953 57.7646 25.8409 58.0331 26.0456C58.3017 26.2502 58.5225 26.509 58.6807 26.8046C58.8451 27.1288 58.9336 27.4851 58.9399 27.8473C58.9462 28.2095 58.87 28.5685 58.7169 28.8981H58.723Z" fill="#7DF192"/>
<path d="M14.9661 48.7423C14.9661 49.7861 13.8798 50.391 13.1557 49.8335C12.4075 49.2237 11.7167 48.5488 11.0919 47.8171C10.9258 47.6044 10.8473 47.338 10.8719 47.071C10.8965 46.804 11.0224 46.5559 11.2246 46.3759C11.4085 46.1646 11.669 46.032 11.9508 46.0066C12.2325 45.9811 12.5132 46.0647 12.7333 46.2395C13.4453 46.8622 14.1031 47.5443 14.7549 48.2263C14.862 48.3815 14.934 48.5574 14.9661 48.7423Z" fill="#7DF192"/>
<path d="M37.6925 23.1512C34.6131 23.1402 31.6636 21.9298 29.4906 19.7854C27.3176 17.6409 26.0984 14.7373 26.1 11.7108C26.1096 8.6844 27.3396 5.78516 29.5205 3.64848C31.7014 1.51181 34.6553 0.311997 37.7347 0.312012C40.8147 0.322996 43.7648 1.53317 45.9387 3.67746C48.1127 5.82175 49.3333 8.72536 49.3333 11.7523C49.3221 14.7793 48.0907 17.6785 45.9089 19.815C43.727 21.9515 40.7725 23.1512 37.6925 23.1512ZM37.7528 21.0754C40.2727 21.0597 42.6836 20.0637 44.458 18.3054C46.2325 16.5471 47.226 14.1695 47.2212 11.693C47.2036 9.21763 46.1895 6.84976 44.4005 5.10714C42.6115 3.36452 40.1932 2.38893 37.6744 2.39369C35.1546 2.40781 32.7434 3.40349 30.9696 5.16234C29.1957 6.9212 28.2041 9.29966 28.2121 11.7761C28.2296 14.2499 29.2431 16.6163 31.031 18.3578C32.8189 20.0993 35.2356 21.0742 37.7528 21.0695V21.0754Z" fill="#7DF192"/>
<path d="M37.7228 4.46356C37.8602 4.4593 37.997 4.48308 38.1247 4.53337C38.2523 4.58366 38.368 4.65938 38.4643 4.75577C38.5607 4.85216 38.6357 4.96713 38.6846 5.09343C38.7336 5.21972 38.7554 5.3546 38.7487 5.48958C38.6522 5.85044 38.7037 6.23413 38.8922 6.55802C39.0806 6.88191 39.391 7.12011 39.7564 7.22135C39.9931 7.3381 40.1995 7.50647 40.3599 7.71359C40.5419 7.89382 40.6465 8.13585 40.6521 8.3897C40.6577 8.64355 40.5639 8.88981 40.3901 9.07765C40.2257 9.27381 39.992 9.40174 39.7358 9.43583C39.4795 9.46992 39.2197 9.40765 39.0081 9.2615C38.774 9.08086 38.5303 8.9126 38.2779 8.7574C38.0913 8.64694 37.8737 8.59772 37.6567 8.61692C37.4397 8.63611 37.2346 8.72271 37.071 8.86415C36.9013 8.99163 36.7787 9.17024 36.722 9.37266C36.6654 9.57509 36.6777 9.79017 36.7572 9.98504C36.8283 10.1919 36.964 10.3715 37.1449 10.4982C37.3258 10.6249 37.5428 10.6923 37.765 10.6908C38.4925 10.6937 39.1965 10.944 39.7575 11.3991C40.3185 11.8543 40.7019 12.4862 40.8427 13.1876C40.9824 13.8714 40.8854 14.5813 40.5672 15.2047C40.249 15.828 39.7278 16.3288 39.0866 16.6274C39.0118 16.6838 38.9493 16.7542 38.9026 16.8347C38.856 16.9152 38.8262 17.004 38.815 17.096C38.7668 17.3984 38.815 17.689 38.815 18.0271C38.7967 18.2882 38.678 18.5328 38.483 18.7112C38.2881 18.8896 38.0314 18.9885 37.765 18.9879C37.6319 18.9952 37.4987 18.9755 37.3736 18.9301C37.2486 18.8847 37.1344 18.8144 37.0382 18.7237C36.9419 18.633 36.8657 18.5239 36.8143 18.403C36.7628 18.2821 36.7373 18.1522 36.7391 18.0212C36.8341 17.6433 36.7791 17.244 36.5851 16.9047C36.3912 16.5653 36.0729 16.3114 35.6951 16.1945C35.3283 15.9862 35.0129 15.7006 34.7718 15.3583C34.6006 15.1567 34.5166 14.8972 34.5381 14.6354C34.5595 14.3737 34.6846 14.1307 34.8865 13.9586C35.0818 13.7806 35.3383 13.6817 35.6046 13.6817C35.8709 13.6817 36.1274 13.7806 36.3227 13.9586C36.5963 14.2237 36.8954 14.462 37.2158 14.6703C37.411 14.795 37.6442 14.849 37.8755 14.823C38.1068 14.797 38.3216 14.6927 38.4831 14.528C38.6332 14.4032 38.7412 14.2366 38.7929 14.0503C38.8446 13.8639 38.8376 13.6665 38.7728 13.4842C38.7045 13.2677 38.5675 13.0783 38.3818 12.9438C38.1961 12.8094 37.9715 12.7369 37.7408 12.7369C37.0136 12.7323 36.3103 12.4806 35.7505 12.0244C35.1906 11.5682 34.8086 10.9357 34.6692 10.2341C34.5321 9.54986 34.6309 8.84018 34.9501 8.21725C35.2692 7.59432 35.7904 7.09366 36.4313 6.79434C36.5059 6.73915 36.5684 6.66972 36.6151 6.59024C36.6618 6.51075 36.6916 6.42284 36.7029 6.33175C36.7452 6.02928 36.7029 5.70902 36.7029 5.40062C36.7265 5.14873 36.8434 4.91413 37.0314 4.74138C37.2194 4.56863 37.4655 4.46976 37.7228 4.46356Z" fill="#7DF192"/>
</svg>
