<svg width="68" height="57" viewBox="0 0 68 57" fill="none" xmlns="http://www.w3.org/2000/svg">
<path d="M67.4465 52.0763C67.4329 52.1122 67.4187 52.1476 67.4046 52.1828C67.3703 52.2685 67.3366 52.3528 67.3116 52.4402C67.0581 53.5183 66.4516 54.4806 65.5885 55.1747C64.7255 55.8688 63.6552 56.2547 62.5477 56.271H5.23547C2.78316 56.271 0.864717 54.9626 0.231107 52.7802C0.0486751 52.1038 -0.0264824 51.4033 0.00823932 50.7036C0.0610401 49.5303 0.894119 48.8319 2.35494 48.5738C2.35494 48.4432 2.36496 48.3098 2.37509 48.175C2.38544 48.0372 2.39591 47.8979 2.39591 47.7585V28.4566V27.7998C2.38709 27.6678 2.40545 27.5354 2.44976 27.4108C2.49407 27.2862 2.56342 27.1721 2.65358 27.0753C2.74373 26.9786 2.85282 26.9011 2.97399 26.8482C3.09515 26.7952 3.22589 26.7676 3.35813 26.7671C3.94481 26.7671 4.32026 27.1367 4.36132 27.829V28.4862V48.6268H19.6149C19.8571 48.6092 20.1002 48.6092 20.3424 48.6268C20.5651 48.6454 20.7732 48.7455 20.9269 48.9078C21.0806 49.0701 21.169 49.2833 21.1754 49.5068C21.2077 49.7281 21.1556 49.9534 21.0296 50.1381C20.9035 50.3229 20.7127 50.4533 20.4949 50.504C20.2415 50.5647 19.9809 50.5903 19.7204 50.5802H2.85353C1.94418 50.5802 1.87964 50.6508 1.96177 51.5601C2.03273 52.2773 2.35925 52.9448 2.8816 53.4413C3.40395 53.9378 4.08736 54.2301 4.8072 54.2646H5.26483H62.1723C64.1436 54.2646 65.4811 52.9973 65.4635 51.1903C65.4635 50.7386 65.311 50.5392 64.8768 50.5744H64.2902H25.4229C25.1378 50.5884 24.852 50.5668 24.5723 50.51C24.3529 50.4671 24.1579 50.3428 24.0263 50.1622C23.8946 49.9816 23.8361 49.7579 23.8624 49.536C23.8591 49.3013 23.9472 49.0746 24.1082 48.9038C24.2692 48.733 24.4903 48.6314 24.7248 48.6207C24.9885 48.6032 25.2532 48.6032 25.5169 48.6207H62.9936C62.9936 48.4765 63.0081 48.345 63.0219 48.2197C63.0345 48.1055 63.0465 47.9965 63.0465 47.8874V42.9476C63.0059 42.6942 63.0633 42.4348 63.2072 42.2223C63.3511 42.0098 63.5706 41.86 63.8209 41.8035C64.4897 41.6451 64.9943 42.1088 64.9943 42.9067V47.8464V48.5973C65.5342 48.5978 66.0603 48.7681 66.4982 49.084C66.9362 49.3998 67.2638 49.8451 67.4348 50.3573L67.4465 52.0763Z" fill="#7DF192"/>
<path d="M67.4465 52.0763C67.4329 52.1122 67.4187 52.1476 67.4046 52.1828C67.3703 52.2685 67.3366 52.3528 67.3116 52.4402C67.0581 53.5183 66.4516 54.4806 65.5885 55.1747C64.7255 55.8688 63.6552 56.2547 62.5477 56.271H5.23547C2.78316 56.271 0.864717 54.9626 0.231107 52.7802C0.0486751 52.1038 -0.0264824 51.4033 0.00823932 50.7036C0.0610401 49.5303 0.894119 48.8319 2.35494 48.5738C2.35494 48.4432 2.36496 48.3098 2.37509 48.175C2.38544 48.0372 2.39591 47.8979 2.39591 47.7585V28.4566V27.7998C2.38709 27.6678 2.40545 27.5354 2.44976 27.4108C2.49407 27.2862 2.56342 27.1721 2.65358 27.0753C2.74373 26.9786 2.85282 26.9011 2.97399 26.8482C3.09515 26.7952 3.22589 26.7676 3.35813 26.7671C3.94481 26.7671 4.32026 27.1367 4.36132 27.829V28.4862V48.6268H19.6149C19.8571 48.6092 20.1002 48.6092 20.3424 48.6268C20.5651 48.6454 20.7732 48.7455 20.9269 48.9078C21.0806 49.0701 21.169 49.2833 21.1754 49.5068C21.2077 49.7281 21.1556 49.9534 21.0296 50.1381C20.9035 50.3229 20.7127 50.4533 20.4949 50.504C20.2415 50.5647 19.9809 50.5903 19.7204 50.5802H2.85353C1.94418 50.5802 1.87964 50.6508 1.96177 51.5601C2.03273 52.2773 2.35925 52.9448 2.8816 53.4413C3.40395 53.9378 4.08736 54.2301 4.8072 54.2646H5.26483H62.1723C64.1436 54.2646 65.4811 52.9973 65.4635 51.1903C65.4635 50.7386 65.311 50.5392 64.8768 50.5744H64.2902H25.4229C25.1378 50.5884 24.852 50.5668 24.5723 50.51C24.3529 50.4671 24.1579 50.3428 24.0263 50.1622C23.8946 49.9816 23.8361 49.7579 23.8624 49.536C23.8591 49.3013 23.9472 49.0746 24.1082 48.9038C24.2692 48.733 24.4903 48.6314 24.7248 48.6207C24.9885 48.6032 25.2532 48.6032 25.5169 48.6207H62.9936C62.9936 48.4765 63.0081 48.345 63.0219 48.2197C63.0345 48.1055 63.0465 47.9965 63.0465 47.8874V42.9476C63.0059 42.6942 63.0633 42.4348 63.2072 42.2223C63.3511 42.0098 63.5706 41.86 63.8209 41.8035C64.4897 41.6451 64.9943 42.1088 64.9943 42.9067V47.8464V48.5973C65.5342 48.5978 66.0603 48.7681 66.4982 49.084C66.9362 49.3998 67.2638 49.8451 67.4348 50.3573L67.4465 52.0763Z" stroke="black"/>
<path d="M33.0378 34.1005V20.6597H29.7583V21.3756C29.7583 24.7138 29.7583 28.052 29.7583 31.3843C29.7583 32.4227 29.4591 32.7277 28.4383 32.7335C27.4175 32.7394 26.5492 32.7335 25.6046 32.7335C25.4256 32.7074 25.2431 32.7464 25.0903 32.8432C24.9374 32.9401 24.8244 33.0884 24.7716 33.2615C24.4231 34.0156 23.8216 34.624 23.0714 34.9808C22.3212 35.3377 21.4698 35.4206 20.6649 35.2152C19.8794 35.0183 19.1819 34.5655 18.6825 33.9281C18.1832 33.2906 17.9106 32.5048 17.9075 31.6951C17.9111 30.8785 18.1898 30.0871 18.6986 29.4484C19.2074 28.8097 19.9166 28.3611 20.7117 28.1751C21.5107 27.9884 22.3494 28.0796 23.0896 28.4337C23.8298 28.7878 24.4273 29.3838 24.7833 30.123C24.8772 30.3166 24.9652 30.5219 25.0649 30.7097H27.7402V20.6365H24.4724C24.4724 20.877 24.4313 21.1115 24.4313 21.3403C24.4313 22.3964 24.4313 23.4466 24.4313 24.5026C24.4313 25.5586 24.1027 25.8107 23.1289 25.8166C21.5272 25.8166 19.9256 25.8166 18.3182 25.8166C18.1608 25.7947 18.0008 25.8301 17.8673 25.9163C17.7337 26.0024 17.6356 26.1337 17.5907 26.2861C17.2615 27.0611 16.6683 27.6942 15.9165 28.0734C15.1646 28.4525 14.3028 28.553 13.484 28.357C12.6872 28.1731 11.9761 27.7252 11.466 27.0862C10.9558 26.4472 10.6766 25.6546 10.6738 24.8369C10.6823 24.0101 10.9723 23.2111 11.4959 22.5713C12.0195 21.9314 12.7456 21.4888 13.5543 21.3168C14.3663 21.1449 15.2129 21.2598 15.9498 21.6417C16.6868 22.0236 17.2687 22.6489 17.5966 23.4115C17.6426 23.5644 17.7418 23.6955 17.8763 23.7816C18.0108 23.8677 18.1718 23.9029 18.3299 23.8807C19.6265 23.8807 20.9229 23.8807 22.2136 23.8807C22.2783 23.8686 22.3414 23.8489 22.4014 23.822V20.648H20.835C19.5628 20.6886 18.308 20.3448 17.2342 19.6614C16.1604 18.978 15.3176 17.9868 14.8157 16.8171C14.7277 16.6352 14.4989 16.4006 14.3346 16.4006C11.0668 16.4006 7.79899 16.4006 4.45494 16.4006C4.45494 16.6704 4.41398 16.8991 4.41398 17.1279V22.6604C4.42886 22.8791 4.42886 23.0987 4.41398 23.3175C4.3945 23.553 4.28461 23.7719 4.10746 23.9282C3.93032 24.0846 3.69958 24.1664 3.4635 24.1566C3.22846 24.1729 2.99626 24.0966 2.81652 23.9443C2.63678 23.7919 2.52379 23.5755 2.50141 23.341C2.47184 23.1233 2.46003 22.9035 2.46618 22.6838C2.46618 19.5217 2.46618 16.3595 2.46618 13.1974C2.46618 11.3141 3.31681 10.4752 5.20591 10.4694C8.45609 10.4694 11.7005 10.4694 14.9506 10.4694C15.1434 10.4868 15.3374 10.4563 15.5155 10.3806C15.6937 10.3048 15.8503 10.186 15.9715 10.0351C16.6664 9.28206 17.5268 8.70099 18.4849 8.33751C19.443 7.97404 20.4725 7.8382 21.492 7.94076C21.5331 7.74716 21.5917 7.54769 21.6269 7.35409C21.893 5.69589 22.656 4.15747 23.8152 2.94228C23.895 2.82206 24.0004 2.72088 24.1238 2.64608C24.2471 2.57127 24.3855 2.52457 24.529 2.50943C24.6724 2.4943 24.8175 2.511 24.9538 2.55842C25.09 2.60584 25.2141 2.68293 25.3172 2.78386C25.4184 2.88531 25.4972 3.00675 25.5486 3.14051C25.6 3.27427 25.623 3.41734 25.6158 3.56046C25.6086 3.70359 25.5715 3.8436 25.5069 3.97154C25.4424 4.09948 25.3518 4.21246 25.241 4.30326C24.0828 5.55897 23.4525 7.21244 23.4809 8.92047C23.4809 9.99995 22.988 10.3637 21.9144 10.0938C21.3434 9.92912 20.745 9.88168 20.1552 9.9546C19.5654 10.0275 18.9964 10.2193 18.4827 10.5181C17.969 10.8169 17.5211 11.2165 17.1661 11.6931C16.8112 12.1698 16.5565 12.7135 16.4173 13.2913C16.2801 13.87 16.2618 14.4703 16.3635 15.0562C16.4652 15.6422 16.6849 16.2016 17.009 16.7002C17.3332 17.1988 17.7551 17.6262 18.2494 17.9569C18.7437 18.2876 19.3 18.5147 19.8845 18.6241C20.2311 18.6849 20.583 18.7104 20.9347 18.7003C29.5393 18.7003 38.1438 18.7003 46.7484 18.7003C47.813 18.7235 48.849 18.3552 49.66 17.6653C50.4711 16.9754 51.0007 16.0119 51.1485 14.9574C51.3241 13.8833 51.0849 12.7827 50.4792 11.8785C49.8735 10.9743 48.9466 10.3341 47.8865 10.0878C47.0702 9.95349 46.2357 9.97746 45.4284 10.1583C44.4545 10.3343 44.0027 10.1115 43.8795 9.1376C43.7965 8.27101 43.5126 7.43567 43.0502 6.69809C42.5877 5.96051 41.9596 5.34104 41.2157 4.88879C40.4718 4.43654 39.6326 4.16406 38.765 4.093C37.8973 4.02193 37.0252 4.15426 36.2176 4.47944C35.9546 4.61323 35.6546 4.65583 35.3647 4.60061C35.0748 4.54539 34.8115 4.39547 34.616 4.17435C33.9085 3.44781 33.0384 2.89968 32.0775 2.57532C31.1167 2.25096 30.0925 2.15955 29.0894 2.30862C28.7725 2.38053 28.4403 2.33247 28.1567 2.1737C27.8892 1.91123 27.7319 1.55669 27.7167 1.18225C27.7167 0.683578 28.145 0.448839 28.6202 0.378438C29.8035 0.183277 31.0145 0.239082 32.1748 0.542295C33.3351 0.845508 34.4187 1.38935 35.3552 2.13846C35.6041 2.31349 35.9112 2.38492 36.2118 2.33784C37.1771 2.07037 38.1857 1.99575 39.1799 2.11813C40.1742 2.2405 41.1345 2.55755 42.0062 3.05113C42.8778 3.54472 43.6437 4.20515 44.2601 4.99478C44.8764 5.78441 45.3313 6.68774 45.5986 7.65316L45.6865 7.88777C46.543 7.9523 47.3585 7.95236 48.1446 8.09316C49.4532 8.3326 50.6398 9.01398 51.5063 10.0233C51.6357 10.1813 51.8017 10.3054 51.9897 10.3851C52.1777 10.4649 52.3823 10.4979 52.5858 10.4811C55.836 10.4811 59.0862 10.4811 62.3364 10.4811C64.1727 10.4811 65.035 11.3433 65.035 13.1796C65.035 21.3696 65.035 29.5616 65.035 37.7555C65.0497 37.9508 65.0497 38.1469 65.035 38.3422C65.0185 38.5772 64.9114 38.7965 64.7363 38.9541C64.5612 39.1116 64.3319 39.1951 64.0964 39.187C63.9746 39.1965 63.8521 39.1814 63.7362 39.1426C63.6204 39.1037 63.5136 39.042 63.4221 38.9609C63.3307 38.8799 63.2565 38.7814 63.204 38.671C63.1515 38.5607 63.1217 38.4408 63.1166 38.3187C63.0893 38.0556 63.0796 37.791 63.0874 37.5266V16.471C62.9106 16.4421 62.7323 16.4225 62.5534 16.4123H53.3955C53.0728 16.4123 52.8498 16.4418 52.6796 16.8114C52.1873 18.0093 51.3355 19.0249 50.2417 19.7184C49.1479 20.4119 47.8659 20.7489 46.5724 20.6832C46.2908 20.6832 45.9857 20.6832 45.6748 20.6832V23.8689C47.1532 23.8689 48.6081 23.8689 50.0807 23.8689C50.2332 23.8689 50.421 23.5344 50.5266 23.3232C50.8748 22.6061 51.448 22.0226 52.1587 21.6615C52.8694 21.3003 53.6786 21.1814 54.4631 21.3229C55.2559 21.4736 55.9754 21.8851 56.5071 22.4922C57.0387 23.0993 57.3518 23.867 57.3965 24.6728C57.4475 25.468 57.2325 26.2576 56.7854 26.9172C56.3382 27.5768 55.6843 28.0689 54.9266 28.316C54.0881 28.611 53.1689 28.5777 52.3538 28.2229C51.5387 27.8681 50.888 27.218 50.5324 26.4033C50.4743 26.2222 50.3526 26.0683 50.1897 25.9701C50.0268 25.872 49.8338 25.8364 49.6466 25.8696C48.1329 25.8696 46.6193 25.8696 45.0998 25.8696C43.9265 25.8696 43.6508 25.582 43.6508 24.4439C43.6508 23.2177 43.6508 21.9858 43.6508 20.701H40.3947V30.7859C41.2278 30.7859 42.0726 30.7859 42.9115 30.7859C43.0523 30.7859 43.2107 30.4631 43.3046 30.2636C43.6487 29.5014 44.2451 28.8811 44.9931 28.5071C45.7411 28.1331 46.595 28.0283 47.4113 28.2103C48.2329 28.3922 48.9659 28.8539 49.4849 29.5163C50.0038 30.1786 50.2766 31.0005 50.2567 31.8418C50.2318 32.6384 49.9463 33.4049 49.444 34.0238C48.9417 34.6426 48.2504 35.0799 47.4759 35.2682C46.6808 35.4726 45.8394 35.3927 45.097 35.0424C44.3545 34.6921 43.7579 34.0934 43.4103 33.3497C43.3516 33.1535 43.223 32.9854 43.049 32.8773C42.875 32.7693 42.6676 32.7287 42.4657 32.763C41.5211 32.7982 40.5765 32.763 39.632 32.763C38.6874 32.763 38.4059 32.4226 38.4 31.5249V20.6832H35.1381V34.13C37.1915 35.1215 38.0715 36.6233 37.6432 38.4361C37.4643 39.2467 37.0123 39.9711 36.3629 40.4881C35.7135 41.005 34.9062 41.283 34.0762 41.2756C33.2426 41.2622 32.4388 40.9639 31.7984 40.4302C31.1579 39.8965 30.7195 39.1597 30.5561 38.3422C30.1161 36.5587 31.0313 35.0157 33.0378 34.1005ZM4.44907 14.3237H14.2408L14.4871 12.3935H6.02734C4.26731 12.3935 4.2672 12.3936 4.44907 14.3237ZM53.1901 14.3237H63.0169V13.2561C63.0169 12.3819 63.0169 12.3818 62.1369 12.3818H52.9203L53.1901 14.3237ZM23.1641 31.7421C23.1816 31.312 23.0276 30.8927 22.7361 30.5759C22.4446 30.2591 22.0394 30.0708 21.6093 30.0525C21.1775 30.0269 20.7533 30.1739 20.4298 30.461C20.1064 30.7482 19.9102 31.1519 19.8845 31.5837C19.8719 31.804 19.9032 32.0247 19.9765 32.2328C20.0498 32.4409 20.1636 32.6322 20.3115 32.796C20.4594 32.9597 20.6384 33.0927 20.838 33.1867C21.0376 33.2807 21.254 33.334 21.4744 33.3437C21.9074 33.3502 22.326 33.1879 22.6414 32.8911C22.9569 32.5943 23.1443 32.1865 23.1641 31.7538V31.7421ZM44.9179 31.6481C44.913 32.0805 45.0771 32.4978 45.3751 32.8112C45.6731 33.1245 46.0817 33.3094 46.5138 33.3262C46.9563 33.3309 47.3825 33.16 47.6992 32.851C48.0159 32.542 48.1972 32.1201 48.2034 31.6776C48.2018 31.2455 48.0295 30.8316 47.724 30.526C47.4184 30.2205 47.0045 30.0481 46.5724 30.0465C46.1393 30.0418 45.722 30.209 45.4119 30.5114C45.1018 30.8138 44.9241 31.2268 44.9179 31.6599V31.6481ZM34.0879 35.978C33.6561 35.9653 33.2367 36.1232 32.9204 36.4174C32.6042 36.7117 32.4167 37.1185 32.3984 37.5501C32.3889 37.9926 32.5553 38.4209 32.861 38.7409C33.1667 39.061 33.5869 39.2467 34.0293 39.2574C34.4603 39.2517 34.8725 39.0802 35.1805 38.7788C35.4885 38.4773 35.6686 38.0691 35.6837 37.6383C35.6884 37.2088 35.5235 36.7946 35.2247 36.4859C34.926 36.1772 34.5174 35.999 34.0879 35.9897V35.978ZM15.901 24.8604C15.9073 24.4293 15.7433 24.0131 15.4445 23.7022C15.1457 23.3913 14.7363 23.2108 14.3052 23.2001C13.874 23.1874 13.4552 23.3456 13.1399 23.6401C12.8246 23.9345 12.6384 24.3414 12.6216 24.7724C12.6161 24.992 12.654 25.2106 12.733 25.4156C12.812 25.6205 12.9306 25.8079 13.0821 25.967C13.2335 26.1261 13.4148 26.2536 13.6156 26.3426C13.8164 26.4315 14.0328 26.4802 14.2524 26.4855C14.6848 26.4842 15.1 26.3154 15.4107 26.0145C15.7214 25.7137 15.9034 25.3043 15.9186 24.8721L15.901 24.8604ZM53.7415 23.2001C53.5277 23.1954 53.3151 23.2332 53.1161 23.3115C52.917 23.3897 52.7355 23.5068 52.5821 23.6558C52.4287 23.8049 52.3065 23.983 52.2226 24.1798C52.1386 24.3765 52.0945 24.5878 52.093 24.8017C52.0883 25.0203 52.1274 25.238 52.2078 25.4413C52.2883 25.6447 52.4085 25.8299 52.5615 25.9862C52.7145 26.1425 52.8972 26.2667 53.0989 26.3514C53.3005 26.4362 53.517 26.4798 53.7357 26.4798C54.1668 26.4721 54.5778 26.2958 54.8805 25.9888C55.1832 25.6817 55.3534 25.2681 55.3549 24.8369C55.3565 24.4105 55.1899 24.0008 54.8911 23.6965C54.5923 23.3922 54.1855 23.218 53.7592 23.2118L53.7415 23.2001Z" fill="#7DF192"/>
</svg>
