<svg width="57" height="55" viewBox="0 0 57 55" fill="none" xmlns="http://www.w3.org/2000/svg">
<path d="M36.3151 18.7594C36.2857 20.8731 35.423 22.8896 33.9145 24.3706C32.4061 25.8516 30.374 26.6772 28.2601 26.6677C26.1453 26.6771 24.1129 25.8486 22.6077 24.3632C21.1025 22.8777 20.2471 20.8566 20.2285 18.7419C20.2423 17.6948 20.4622 16.6606 20.8756 15.6985C21.2891 14.7365 21.8879 13.8652 22.6381 13.1347C23.3883 12.4041 24.2751 11.8287 25.2478 11.4408C26.2204 11.053 27.26 10.8605 28.307 10.8745C30.4144 10.8589 32.4417 11.6808 33.9433 13.1593C35.445 14.6379 36.2981 16.652 36.3151 18.7594ZM34.7135 18.9705C34.7441 17.3106 34.1338 15.7029 33.0095 14.4813C31.8852 13.2598 30.3333 12.5185 28.6766 12.4116C27.8302 12.36 26.9819 12.4756 26.1802 12.752C25.3785 13.0284 24.6393 13.4601 24.0045 14.0224C23.3698 14.5847 22.852 15.2666 22.481 16.0291C22.1099 16.7916 21.8927 17.6196 21.8419 18.466C21.7767 20.1617 22.3857 21.8142 23.5357 23.062C24.6857 24.3099 26.2831 25.0517 27.9785 25.1249C29.6806 25.1934 31.3408 24.586 32.597 23.4353C33.8532 22.2846 34.6034 20.6839 34.6841 18.9822L34.7135 18.9705Z" fill="#7DF192"/>
<path d="M56.491 48.7503C56.1976 49.4426 55.9043 50.1348 55.6051 50.8154C55.1947 51.8204 54.4845 52.6744 53.5712 53.2612C52.6579 53.848 51.5858 54.1392 50.501 54.0948C49.3805 54.0948 48.26 54.0948 47.1335 54.0948C33.5461 54.0948 19.9587 54.0948 6.37134 54.0948C3.64917 54.0948 1.76601 52.9625 0.721728 50.4516C0.557459 50.0644 0.363793 49.6889 0.217124 49.2782C-0.0890564 48.48 -0.0707907 47.5936 0.267971 46.8086C0.606733 46.0237 1.23916 45.4023 2.03 45.0775C2.19162 45.0334 2.33124 44.9312 2.42217 44.7905C2.5131 44.6498 2.54887 44.4805 2.52272 44.315C2.52272 34.8226 2.52272 25.3341 2.52272 15.8495C2.52272 13.5028 3.78995 11.6254 5.90785 10.9624C6.50807 10.7967 7.12742 10.7099 7.75009 10.7043C8.82957 10.6633 9.92081 10.7043 11.0003 10.7043C11.1356 10.7279 11.2749 10.7033 11.3939 10.6347C11.5129 10.5661 11.604 10.4577 11.6514 10.3288C11.8298 9.98462 12.0256 9.6498 12.2381 9.32558C12.2901 9.22359 12.3625 9.13334 12.4509 9.0606C12.5393 8.98786 12.6419 8.93414 12.752 8.90276C12.8621 8.87138 12.9774 8.86321 13.0909 8.87841C13.2044 8.89361 13.3135 8.93202 13.4114 8.99128C13.5103 9.04704 13.5961 9.12317 13.6631 9.21472C13.7301 9.30627 13.7769 9.41104 13.8002 9.52209C13.8235 9.63314 13.8229 9.7479 13.7983 9.85869C13.7738 9.96947 13.7258 10.0738 13.6578 10.1646C13.2119 10.9684 12.7368 11.7544 12.2851 12.5523C12.1152 12.7847 11.9998 13.0524 11.9475 13.3355C11.8951 13.6185 11.9071 13.9096 11.9826 14.1874C12.0581 14.4652 12.1952 14.7226 12.3836 14.9402C12.5721 15.1579 12.807 15.3303 13.0711 15.4447L14.5437 16.3012C14.7063 16.3869 14.8396 16.5193 14.9264 16.6814C15.0132 16.8434 15.0495 17.0276 15.0307 17.2105C15.0072 18.4972 15.0072 19.7801 15.0307 21.0591C15.0515 21.2513 15.014 21.4454 14.923 21.616C14.8319 21.7865 14.6917 21.9256 14.5203 22.0153C13.9923 22.3145 13.4642 22.6021 12.948 22.9248C12.7119 23.043 12.5036 23.2097 12.3366 23.4141C12.1697 23.6185 12.0478 23.8562 11.9791 24.1111C11.9104 24.3659 11.8964 24.6324 11.938 24.8931C11.9796 25.1538 12.0759 25.4028 12.2205 25.6236C13.0066 27.0199 13.8104 28.4042 14.62 29.777C14.7399 30.0122 14.9075 30.22 15.1122 30.3866C15.3169 30.5532 15.5542 30.6751 15.8089 30.7447C16.0635 30.8143 16.3299 30.8301 16.5909 30.7908C16.8519 30.7515 17.1017 30.6579 17.3245 30.5164C17.8408 30.2348 18.3513 29.9297 18.8499 29.6363C19.0318 29.5124 19.2489 29.4507 19.4688 29.4602C19.6887 29.4697 19.8997 29.5499 20.0703 29.6891C21.097 30.3285 22.1411 30.9387 23.2089 31.5078C23.4132 31.5865 23.5868 31.7289 23.704 31.9137C23.8213 32.0986 23.8761 32.3162 23.8602 32.5345C23.8602 33.1212 23.8602 33.7078 23.8602 34.2945C23.8518 34.5576 23.8979 34.8198 23.9955 35.0642C24.0931 35.3087 24.2401 35.5303 24.4274 35.7154C24.6146 35.9004 24.838 36.0449 25.0837 36.1396C25.3293 36.2343 25.5918 36.2771 25.8548 36.2657C27.4584 36.2657 29.0582 36.2657 30.6539 36.2657C30.9126 36.276 31.1707 36.2337 31.4125 36.1411C31.6543 36.0484 31.8746 35.9074 32.0602 35.7268C32.2457 35.5462 32.3926 35.3298 32.4917 35.0906C32.5908 34.8514 32.6402 34.5944 32.6368 34.3355C32.6368 33.7077 32.6368 33.086 32.6368 32.4583C32.6301 32.2574 32.6856 32.0592 32.7959 31.8911C32.9062 31.723 33.0658 31.5933 33.2528 31.5196C34.3441 30.9329 35.4235 30.2934 36.4854 29.6481C36.6375 29.5289 36.8222 29.4588 37.0151 29.4473C37.208 29.4358 37.3997 29.4834 37.5648 29.5836C38.087 29.8887 38.6092 30.1702 39.1372 30.4929C39.362 30.6399 39.6153 30.7378 39.8806 30.7805C40.1458 30.8231 40.4171 30.8096 40.6767 30.7404C40.9363 30.6712 41.1783 30.5481 41.3871 30.3791C41.5959 30.2102 41.7669 29.999 41.8887 29.7595C42.6866 28.3984 43.4786 27.0315 44.2354 25.6528C44.3867 25.4307 44.4887 25.1789 44.5346 24.914C44.5805 24.6492 44.5692 24.3775 44.5014 24.1174C44.4336 23.8573 44.3109 23.6148 44.1416 23.4061C43.9722 23.1973 43.7602 23.027 43.5197 22.9071C43.0151 22.602 42.5047 22.3204 41.9943 22.027C41.813 21.9376 41.6639 21.7943 41.5673 21.6168C41.4707 21.4393 41.4313 21.2363 41.4546 21.0356C41.478 19.7684 41.478 18.5033 41.4546 17.24C41.4313 17.0392 41.4707 16.8359 41.5673 16.6584C41.6639 16.4809 41.813 16.3379 41.9943 16.2485C42.5281 15.961 43.0504 15.6617 43.5666 15.339C43.7967 15.2184 43.9989 15.0513 44.1606 14.848C44.3223 14.6447 44.4398 14.4101 44.5055 14.1588C44.5712 13.9075 44.5838 13.6452 44.5423 13.3888C44.5009 13.1324 44.4063 12.8875 44.2648 12.6697C43.4825 11.2617 42.6748 9.86354 41.8417 8.47507C41.722 8.24505 41.5558 8.04219 41.3536 7.8798C41.1514 7.71741 40.9178 7.59876 40.6674 7.53146C40.4169 7.46417 40.1553 7.44989 39.8989 7.48907C39.6426 7.52825 39.3971 7.62017 39.1782 7.7592C38.6443 8.05254 38.1281 8.34576 37.6001 8.66843C37.4214 8.77905 37.213 8.83237 37.0032 8.82083C36.7934 8.80929 36.5922 8.73353 36.4267 8.60398C35.3824 7.95864 34.3147 7.34841 33.2411 6.76174C33.053 6.68893 32.8922 6.55977 32.7808 6.39163C32.6694 6.22348 32.6129 6.02488 32.6192 5.82329C32.6192 5.23661 32.6192 4.60881 32.6192 4.00454C32.6318 3.74105 32.5891 3.47793 32.4939 3.23195C32.3986 2.98596 32.2528 2.76248 32.066 2.57623C31.8792 2.38999 31.6556 2.24509 31.4093 2.15055C31.1631 2.05602 30.8997 2.01396 30.6363 2.02737C29.0405 2.02737 27.4408 2.02737 25.8372 2.02737C25.5694 2.01188 25.3015 2.05331 25.051 2.14912C24.8005 2.24493 24.5731 2.39289 24.384 2.58311C24.1949 2.77333 24.0483 3.00149 23.954 3.25257C23.8596 3.50366 23.8196 3.77209 23.8367 4.03977C23.8367 4.62645 23.8367 5.21312 23.8367 5.7998C23.8499 5.99956 23.8005 6.19835 23.6953 6.36871C23.5901 6.53907 23.4345 6.6723 23.25 6.74999C22.1529 7.33667 21.0793 7.97053 20.0174 8.62174C19.8551 8.74202 19.6604 8.81074 19.4585 8.81911C19.2567 8.82748 19.0569 8.77487 18.8852 8.66843L17.3598 7.78842C17.127 7.64034 16.8659 7.54252 16.5932 7.5011C16.3204 7.45968 16.042 7.47578 15.7758 7.54808C15.1891 7.70061 14.7667 7.47768 14.6376 6.9614C14.5086 6.44513 14.8018 6.06362 15.4178 5.90522C15.9356 5.76499 16.4786 5.7451 17.0053 5.84678C17.532 5.94846 18.0285 6.16901 18.4569 6.49189C18.6857 6.72046 18.9959 6.84882 19.3193 6.84882C19.6427 6.84882 19.9529 6.72046 20.1817 6.49189C20.6867 6.12415 21.2344 5.81893 21.8127 5.58266C21.9404 5.53791 22.0486 5.45034 22.1192 5.33487C22.1898 5.21939 22.2183 5.08307 22.1998 4.949C22.181 4.39833 22.2066 3.847 22.2762 3.30041C22.3782 2.52242 22.7478 1.80434 23.3216 1.26911C23.8954 0.733873 24.6375 0.414857 25.4207 0.367035C27.2922 0.296633 29.1754 0.290767 31.0469 0.367035C31.4891 0.385818 31.9231 0.492089 32.324 0.679565C32.7248 0.867041 33.0845 1.13202 33.3823 1.45932C33.6802 1.78661 33.9103 2.16984 34.0592 2.58655C34.2082 3.00325 34.273 3.44515 34.2502 3.88709C34.2032 5.06044 34.5612 5.69405 35.6348 6.08712C36.1683 6.34268 36.6735 6.6534 37.1424 7.01411C37.5883 6.75597 38.0342 6.49209 38.4859 6.25155C39.2839 5.80972 40.2224 5.6949 41.1034 5.93128C41.9843 6.16767 42.7391 6.73661 43.2087 7.51857C43.7954 8.42205 44.294 9.34898 44.8045 10.2818C44.8655 10.4221 44.9693 10.5396 45.1009 10.6175C45.2326 10.6955 45.3854 10.73 45.5378 10.7161C46.5527 10.7161 47.5618 10.7454 48.5709 10.7161C51.9032 10.5577 54.0269 13.1274 53.9976 16.0901C53.9213 25.4769 53.9977 34.8635 53.9625 44.221C53.9261 44.421 53.9663 44.6274 54.075 44.7991C54.1836 44.9708 54.3529 45.0953 54.5492 45.148C54.9578 45.3179 55.3243 45.5751 55.6233 45.9014C55.9222 46.2277 56.1463 46.6153 56.2799 47.0372C56.3444 47.2074 56.4147 47.3714 56.4851 47.5357L56.491 48.7503ZM4.17131 44.8077H4.83433C6.65302 44.8077 8.47161 44.8077 10.2962 44.8077C10.9591 44.8077 11.3406 45.1657 11.2995 45.7055C11.2584 46.2452 10.9298 46.4504 10.3255 46.4563H3.76067C3.54105 46.4504 3.32125 46.4622 3.10352 46.4915C2.85188 46.5235 2.61104 46.6129 2.39925 46.7525C2.18747 46.8921 2.01049 47.0781 1.8819 47.2968C1.75331 47.5154 1.67653 47.7608 1.65746 48.0138C1.63839 48.2667 1.67755 48.5205 1.7719 48.756C1.9127 49.1197 2.10032 49.4602 2.24113 49.8122C2.98034 51.6602 4.33556 52.4521 6.34785 52.4462C20.96 52.4227 35.578 52.4227 50.2018 52.4462C50.46 52.4462 50.7181 52.4462 50.9704 52.4462C51.5263 52.4268 52.069 52.2704 52.55 51.991C53.031 51.7116 53.4355 51.3179 53.7278 50.8446C54.1427 50.1326 54.4923 49.3845 54.7721 48.6093C54.8685 48.2959 54.8685 47.9609 54.7721 47.6474C54.5374 46.8554 53.9156 46.474 52.9182 46.474H37.8582C37.6998 46.474 37.5414 46.4738 37.3361 46.509C37.3361 46.7437 37.3361 46.9432 37.3361 47.1427C37.3302 47.8511 37.049 48.5294 36.5519 49.0342C36.0548 49.5389 35.3808 49.8307 34.6726 49.8474C30.425 49.8748 26.1775 49.8748 21.93 49.8474C21.2116 49.8366 20.5264 49.5426 20.0233 49.0296C19.5202 48.5166 19.2398 47.8259 19.243 47.1074V46.474H18.5742C17.2131 46.474 15.852 46.474 14.4675 46.474C13.8808 46.474 13.564 46.163 13.5581 45.6702C13.5522 45.1774 13.8867 44.8664 14.4557 44.8312C14.6376 44.8312 14.8195 44.8312 15.0072 44.8312H52.3374V24.2975C52.3374 21.4111 52.3374 18.5248 52.3374 15.6384C52.3726 14.9299 52.1565 14.2318 51.7271 13.6672C51.2978 13.1026 50.6828 12.7077 49.9907 12.5523C48.6867 12.3911 47.3739 12.3128 46.06 12.3177L46.3064 14.025C46.7816 14.025 47.2744 14.025 47.7672 14.025C49.6035 14.025 50.7006 15.1162 50.7006 16.9584C50.7006 19.4987 50.7006 22.0331 50.7006 24.5852C50.7123 24.7316 50.7123 24.8787 50.7006 25.0252C50.6954 25.118 50.6717 25.2086 50.631 25.2921C50.5902 25.3757 50.5332 25.4504 50.4632 25.5116C50.3933 25.5728 50.3118 25.6192 50.2236 25.6485C50.1354 25.6778 50.0423 25.6892 49.9496 25.682C49.6342 25.5954 49.3547 25.4105 49.1517 25.1541C49.0343 25.0191 49.0696 24.7318 49.0696 24.5147C49.0696 21.9802 49.0696 19.4399 49.0696 16.8879C49.0696 16.0666 48.7059 15.7146 47.8962 15.7146C47.2744 15.7146 46.6467 15.7146 46.0248 15.7146C45.8637 15.7162 45.7065 15.765 45.573 15.8552C44.9864 16.3011 44.3996 16.8117 43.7308 17.2165C43.5592 17.2924 43.4199 17.4262 43.3373 17.5946C43.2547 17.7631 43.2342 17.9553 43.2792 18.1375C43.3642 18.6266 43.3642 19.1267 43.2792 19.6159C43.0738 20.578 43.5021 21.0239 44.3059 21.4639C46.3006 22.5433 46.8226 24.6202 45.6903 26.5973C44.9805 27.841 44.2589 29.0791 43.5373 30.317C42.2525 32.5405 40.2871 33.0918 38.0988 31.7777C37.4593 31.3904 36.9255 31.244 36.3681 31.8072C36.1674 31.998 35.9269 32.1421 35.664 32.2294C34.5904 32.5697 34.2678 33.2326 34.303 34.3825C34.3173 34.859 34.2329 35.3334 34.0552 35.7758C33.8776 36.2182 33.6105 36.6191 33.2706 36.9535C32.9308 37.2878 32.5256 37.5482 32.0804 37.7186C31.6351 37.889 31.1594 37.9658 30.6831 37.9438C29.0815 37.9438 27.4858 37.9438 25.8842 37.9438C23.8953 37.9438 22.2527 36.5004 22.2997 34.5291C22.3349 33.2384 21.8303 32.7046 20.7919 32.0945C19.7535 31.4843 19.0318 31.373 17.9817 32.0418C17.2172 32.4926 16.3053 32.622 15.4455 32.4021C14.5857 32.1822 13.848 31.6309 13.3938 30.8684C12.4551 29.3548 11.5635 27.8118 10.7187 26.2395C10.3117 25.4565 10.2136 24.5493 10.444 23.6974C10.6743 22.8455 11.2163 22.1112 11.9624 21.64C12.3144 21.4112 12.7075 21.2409 13.0419 20.9886C13.2046 20.849 13.3058 20.6509 13.3235 20.4372C13.3548 19.5924 13.3548 18.7477 13.3235 17.9028C13.3143 17.7965 13.2842 17.693 13.2348 17.5983C13.1855 17.5037 13.1179 17.4198 13.036 17.3514C12.6078 17.0405 12.0152 16.8819 11.7101 16.4889C11.0648 15.6558 10.2435 15.6616 9.36344 15.7085C9.23438 15.7085 9.10522 15.7085 8.97615 15.7085C7.8028 15.7085 7.53882 15.9963 7.53882 17.1403V39.7565C7.53882 41.0707 7.98469 41.5165 9.29885 41.5165H47.3037C48.6413 41.5165 49.0637 41.0708 49.0637 39.7155C49.0637 36.1955 49.0637 32.6754 49.0637 29.1554C49.0534 28.9182 49.0792 28.6807 49.1401 28.4513C49.1898 28.2705 49.3068 28.1155 49.4672 28.0184C49.6276 27.9213 49.8192 27.8893 50.0025 27.929C50.1787 27.9395 50.3454 28.0126 50.4724 28.1353C50.5994 28.258 50.6782 28.4221 50.6947 28.5979C50.7065 28.7444 50.7065 28.8915 50.6947 29.0379C50.6947 32.6792 50.6947 36.3206 50.6947 39.9619C50.7281 40.3957 50.6673 40.8314 50.5164 41.2395C50.3655 41.6476 50.1281 42.0184 49.8204 42.3261C49.5127 42.6337 49.1421 42.871 48.734 43.0219C48.3259 43.1728 47.89 43.2338 47.4562 43.2004H9.11694C7.09291 43.2004 5.86101 41.9566 5.86101 39.9267V16.9758C5.82757 16.5886 5.87861 16.1987 6.01083 15.8331C6.14305 15.4676 6.35327 15.1351 6.62672 14.8589C6.90018 14.5826 7.23038 14.3692 7.59454 14.2333C7.9587 14.0973 8.34808 14.0422 8.73566 14.0717C9.24607 14.0717 9.75652 14.0717 10.2435 14.0717L10.4781 12.4234C9.89139 12.4234 9.34585 12.4234 8.78264 12.4234C8.08472 12.3996 7.386 12.4347 6.69404 12.5288C5.16282 12.8221 4.20654 14.1716 4.20654 15.9082V44.8489L4.17131 44.8077ZM35.5995 46.509H20.8857C20.7801 47.7586 21.1673 48.1988 22.3406 48.1988H34.1446C35.318 48.193 35.7286 47.7586 35.5995 46.509Z" fill="#7DF192"/>
</svg>
