<svg width="54" height="56" viewBox="0 0 54 56" fill="none" xmlns="http://www.w3.org/2000/svg">
<path d="M48.6613 42.3611C47.2892 41.0944 46.1 39.6435 45.1279 38.0502C44.8078 37.5196 44.8078 37.5196 45.285 37.1337C51.9952 31.7073 54.5742 24.7676 52.9375 16.5015C52.3599 13.6483 51.1657 10.9552 49.4382 8.61008C47.7108 6.26498 45.4916 4.32433 42.9355 2.92349C40.3632 1.47553 37.5054 0.60558 34.5615 0.374392C31.6175 0.143204 28.6585 0.556351 25.8911 1.58499C25.711 1.63865 25.5435 1.72761 25.3983 1.84666C25.2532 1.96572 25.1332 2.11248 25.0455 2.27836C24.9901 2.40693 24.9616 2.54541 24.9616 2.68534C24.9616 2.82528 24.9901 2.96374 25.0455 3.09231C25.281 3.69524 25.8971 3.90024 26.64 3.64098C32.9697 1.4644 38.7922 2.35674 43.9441 6.30593C49.7424 10.7375 52.0798 16.6944 50.9081 24.0019C50.1626 28.6189 47.6124 32.7519 43.8173 35.4937C43.5247 35.6702 43.273 35.9067 43.0788 36.1876C42.8846 36.4684 42.7523 36.7872 42.6906 37.1228C42.6289 37.4585 42.6393 37.8034 42.7211 38.1347C42.8029 38.4661 42.9542 38.7763 43.165 39.045C43.8112 40.0458 44.4878 40.9985 45.1884 41.8787C45.5991 42.3973 46.0641 42.8917 46.5171 43.368L46.5714 43.4222C44.2763 43.0183 39.7525 41.2698 38.4539 40.2388C42.253 32.6178 41.8967 25.4128 37.403 18.8227C32.9879 12.3593 26.5313 9.34469 18.293 9.83909C18.95 9.00278 19.6644 8.21305 20.431 7.47561C21.0616 6.91658 21.723 6.39322 22.4121 5.90799L23.2517 5.30506C23.3808 5.23027 23.4933 5.13002 23.5823 5.01041C23.6714 4.8908 23.7351 4.75434 23.7695 4.60935C23.804 4.46436 23.8085 4.31389 23.7828 4.1671C23.7571 4.02031 23.7018 3.88027 23.6201 3.75554C23.536 3.63263 23.4283 3.52765 23.3032 3.44671C23.1781 3.36578 23.0381 3.31052 22.8914 3.28414C22.7446 3.25777 22.5941 3.2608 22.4486 3.29308C22.3031 3.32536 22.1654 3.38624 22.0437 3.47216L21.8625 3.58672L21.8081 3.62289C19.2064 5.31266 17.01 7.55456 15.3757 10.1888C15.2514 10.3843 15.0671 10.5345 14.8502 10.6169C10.8278 11.7422 7.25011 14.0769 4.60361 17.3035C1.95712 20.5301 0.370215 24.4919 0.0586978 28.6505C-0.442608 35.97 2.26932 42.0174 8.10984 46.6359C8.59907 47.0217 8.59901 47.0217 8.2789 47.5463C7.27678 49.1817 6.05777 50.6744 4.655 51.9838C4.42095 52.1901 4.23807 52.4477 4.12069 52.7364C4.00331 53.0252 3.95463 53.3372 3.97854 53.6479C4.01249 53.9323 4.11126 54.2052 4.26726 54.4456C4.42326 54.686 4.63233 54.8875 4.87847 55.0347C4.97511 55.095 5.07181 55.1492 5.16845 55.1975L5.36773 55.312H6.35223L6.51532 55.2457L6.64213 55.1975C10.4728 54.4947 14.119 53.0174 17.3568 50.8564C17.6666 50.6947 18.0192 50.6336 18.3655 50.6815C21.9241 51.0491 25.5173 50.4838 28.7902 49.0416C29.8411 48.5833 29.6781 47.8357 29.5573 47.5523C29.5105 47.4185 29.4364 47.2958 29.3397 47.1921C29.243 47.0883 29.1258 47.0057 28.9956 46.9494C28.8183 46.889 28.6308 46.8647 28.444 46.8782C28.2572 46.8917 28.075 46.9425 27.9084 47.0278C24.925 48.3385 21.645 48.8297 18.4077 48.4507C17.5881 48.344 16.7582 48.5484 16.0824 49.0235C13.4597 50.8105 10.5205 52.0832 7.42129 52.7737L6.85351 52.8943C8.14567 51.6097 9.27551 50.1721 10.2177 48.6135C11.0996 47.1544 10.8821 46.0148 9.51709 44.9055C3.4229 39.9916 1.12774 33.703 2.69206 26.2147C3.54225 22.4633 5.56058 19.077 8.45762 16.5414C11.3547 14.0058 14.9816 12.451 18.8185 12.1001C21.3004 11.8384 23.8097 12.1045 26.1811 12.8808C28.5526 13.6571 30.7324 14.926 32.5772 16.604C37.5359 21.0536 39.5471 26.6307 38.5566 33.1905C38.2069 35.5507 37.3851 37.8165 36.1399 39.8529C34.8947 41.8894 33.2517 43.6548 31.3088 45.0441C30.3545 45.7676 30.7048 46.449 30.8679 46.7142C30.946 46.8261 31.0454 46.9215 31.1604 46.9949C31.2755 47.0684 31.4038 47.1185 31.5383 47.1423C31.9392 47.1729 32.3361 47.0452 32.6436 46.7866C34.1391 45.6903 35.4763 44.3939 36.6178 42.9339C36.793 42.7048 36.9681 42.4817 37.1433 42.2465L37.252 42.1079L37.3788 42.1802C40.4054 43.9683 43.737 45.1825 47.2057 45.7616C47.4867 45.8148 47.7759 45.8051 48.0527 45.7331C48.3295 45.6612 48.5869 45.5288 48.8062 45.3456C49.0196 45.1609 49.1885 44.9305 49.3004 44.6717C49.4123 44.4128 49.4643 44.132 49.4525 43.8503C49.4339 43.5603 49.3537 43.2775 49.2173 43.0208C49.0809 42.764 48.8914 42.5392 48.6613 42.3611Z" fill="#7DF192"/>
<path d="M7.89301 33.5643C7.69418 33.9222 7.58984 34.3248 7.58984 34.734C7.58984 35.1433 7.69418 35.5458 7.89301 35.9037C10.3512 41.1009 14.5066 43.8443 20.2565 44.0613H20.7699C23.4225 44.063 26.0163 43.2814 28.2249 41.8148C30.4335 40.3482 32.1582 38.2622 33.1818 35.8193C33.2987 35.569 33.378 35.3028 33.4173 35.0294C33.4597 34.7179 33.4355 34.4009 33.3459 34.0995C33.2564 33.798 33.1036 33.519 32.8979 33.281C32.651 33.0252 32.3529 32.8243 32.023 32.6913C31.6931 32.5583 31.3388 32.4963 30.9833 32.5092H10.0492C9.62973 32.4886 9.21185 32.5746 8.83475 32.7592C8.45764 32.9437 8.13366 33.2207 7.89301 33.5643ZM20.4921 41.8486C15.6602 41.8486 12.1329 39.5997 9.95859 35.1802C9.9041 35.0352 9.83955 34.8941 9.76535 34.7581C9.92148 34.7096 10.0858 34.6932 10.2485 34.7099H30.7839C31.1101 34.7099 31.2128 34.7461 31.2188 34.7099C31.1954 34.8588 31.1442 35.0019 31.0678 35.1319C28.8693 39.5936 25.3179 41.8486 20.4921 41.8486Z" fill="#7DF192"/>
<path d="M23.844 26.8236C24.448 26.8236 24.8044 26.3774 24.9191 25.4911C24.9828 24.8463 25.2871 24.2489 25.7716 23.8177C26.2561 23.3866 26.8854 23.1531 27.5344 23.1638C28.186 23.1758 28.8081 23.4371 29.2723 23.8937C29.7365 24.3504 30.0073 24.9675 30.0288 25.6177C30.0347 25.7997 30.0767 25.9786 30.1524 26.1442C30.2281 26.3098 30.336 26.4588 30.4698 26.5824C30.5747 26.6699 30.696 26.7358 30.8266 26.7762C30.9573 26.8165 31.0946 26.8306 31.2307 26.8176C31.383 26.8007 31.5304 26.7532 31.6637 26.6777C31.797 26.6023 31.9135 26.5005 32.0061 26.3787C32.0988 26.2569 32.1657 26.1175 32.2027 25.969C32.2397 25.8206 32.246 25.6662 32.2213 25.5152C32.1734 24.3243 31.6773 23.1953 30.8319 22.3537C29.9866 21.512 28.8543 21.0198 27.6613 20.9752C26.4683 20.9287 25.3015 21.3321 24.3928 22.1051C23.4841 22.8782 22.9001 23.9642 22.7569 25.1474C22.7071 25.3669 22.7017 25.5941 22.7411 25.8157C22.7805 26.0373 22.864 26.2488 22.9864 26.4377C23.0724 26.5463 23.1802 26.6358 23.303 26.7002C23.4258 26.7646 23.5607 26.8025 23.6991 26.8115L23.844 26.8236Z" fill="#7DF192"/>
<path d="M9.856 26.8176C10.0968 26.8217 10.3308 26.7381 10.5143 26.5824C10.6469 26.4573 10.7531 26.3069 10.8268 26.1402C10.9004 25.9735 10.94 25.7939 10.9431 25.6117C10.9711 24.9548 11.2515 24.3338 11.7262 23.878C12.2009 23.4221 12.8332 23.1663 13.4919 23.1638C14.1498 23.1581 14.7848 23.4054 15.2649 23.8545C15.7451 24.3035 16.0337 24.9198 16.0709 25.5755C16.1434 26.3774 16.5783 26.8537 17.2125 26.7814C17.3528 26.7788 17.4912 26.7475 17.619 26.6894C17.7468 26.6314 17.8612 26.5477 17.9554 26.4438C18.0755 26.299 18.1649 26.1313 18.2178 25.9509C18.2708 25.7705 18.2863 25.5812 18.2634 25.3947C18.1881 24.187 17.6547 23.0533 16.7716 22.2244C15.8885 21.3955 14.7222 20.9337 13.5101 20.933C12.2951 20.9372 11.1277 21.4046 10.2464 22.2395C9.36511 23.0744 8.83655 24.2138 8.7688 25.4248C8.7688 26.2086 9.12518 26.7271 9.77748 26.7814L9.856 26.8176Z" fill="#7DF192"/>
</svg>
