<svg width="53" height="58" viewBox="0 0 53 58" fill="none" xmlns="http://www.w3.org/2000/svg">
<path d="M52.0709 14.31C43.2356 9.423 35.1629 4.92312 27.3836 0.587589C27.113 0.420169 26.804 0.325371 26.4861 0.312012C26.1589 0.324015 25.8409 0.423116 25.565 0.599334C17.504 5.105 9.20255 9.72207 0.877623 14.3157C0.581604 14.4262 0.333748 14.6371 0.177222 14.9116C0.0206958 15.186 -0.0345517 15.5066 0.0210999 15.8177C0.103234 16.6742 0.173561 17.5367 0.238095 18.3932C0.373031 20.0418 0.508035 21.7433 0.748572 23.386C1.88672 31.136 4.06922 37.6302 7.41914 43.233C11.6667 50.3552 17.3515 54.8668 24.7964 57.0199C25.917 57.3768 27.1261 57.3397 28.2226 56.9144C37.1049 53.6115 43.8165 47.3984 48.1696 38.4516C50.9856 32.667 52.4992 26.196 52.9216 18.0764C52.9216 17.8476 52.9216 17.6189 52.9216 17.3901C52.9216 16.8562 52.9216 16.2988 52.9216 15.7415C52.9614 15.442 52.8992 15.1378 52.7448 14.8781C52.5905 14.6183 52.353 14.4182 52.0709 14.31ZM51.2379 17.3491C51.2109 17.6104 51.2109 17.8738 51.2379 18.1351C51.2379 18.2818 51.2379 18.4285 51.2379 18.5751V18.6104C50.8272 25.3278 49.5952 31.0186 47.4597 35.9995C43.6287 44.9229 37.3806 51.2824 28.8855 54.8846C28.0766 55.2556 27.1998 55.4553 26.3101 55.4712C25.5374 55.4633 24.7716 55.3244 24.0454 55.0605C17.592 52.8722 12.6405 48.7243 8.85059 42.3882C5.79401 37.2724 3.75818 31.394 2.62003 24.4302C2.36189 22.8285 2.19176 21.1975 2.03336 19.6193C1.94535 18.7745 1.85737 17.9298 1.75176 17.085C1.67649 16.7162 1.72827 16.3328 1.89872 15.9973C2.06917 15.6617 2.34831 15.3937 2.6905 15.237C9.4842 11.494 16.7355 7.46349 25.5121 2.56475C25.8026 2.37803 26.1408 2.27886 26.4861 2.27886C26.8314 2.27886 27.1694 2.37803 27.4599 2.56475C34.1069 6.27254 41.9801 10.6608 49.9706 15.0608C50.7157 15.448 51.4608 16.0524 51.2379 17.3783V17.3491Z" fill="#7DF192"/>
<path d="M45.1246 18.6044L40.0793 15.8002C35.8024 13.4242 31.3847 10.9659 27.0199 8.58396C26.8526 8.50741 26.6698 8.47142 26.486 8.47855C26.2947 8.47218 26.1043 8.50806 25.9286 8.58396C21.288 11.1184 16.5888 13.7292 12.042 16.2577L7.97641 18.5165C7.77917 18.596 7.61629 18.7426 7.51649 18.9304C7.41669 19.1182 7.38626 19.3352 7.43069 19.5432C7.46589 19.8248 7.49532 20.1298 7.52465 20.3997C7.57159 20.7869 7.61265 21.1741 7.66545 21.573C8.61 28.2611 10.2351 33.5647 12.7695 38.2698C15.9669 44.2069 20.1323 47.9558 25.5179 49.7452C26.0494 49.8949 26.6149 49.8701 27.1313 49.6747C31.4423 47.8849 35.2145 45.0064 38.0786 41.3206C42.5021 35.7355 44.9135 28.8068 45.6762 19.5314V19.4962C45.6921 19.308 45.647 19.1199 45.5477 18.9594C45.4484 18.7988 45.3 18.6742 45.1246 18.6044ZM43.9161 20.4819C43.0655 29.0298 40.7187 35.4126 36.5181 40.5813C34.0079 43.7138 30.7911 46.2071 27.1313 47.8563C26.8342 47.9807 26.5148 48.0423 26.1927 48.0379C25.9153 48.0384 25.6396 47.9928 25.3771 47.903C21.1296 46.3248 17.7504 43.3211 14.9695 38.7098C12.3882 34.3919 10.6692 29.3231 9.5604 22.7934C9.53107 22.5939 9.47828 22.3827 9.43135 22.1715C9.26121 21.4381 9.06758 20.605 9.40199 19.9362C9.81238 19.3226 10.4214 18.869 11.1268 18.6514C11.3497 18.5517 11.5668 18.4521 11.7663 18.3406L17.2927 15.2723C20.0579 13.7352 22.8213 12.1979 25.5825 10.6608C25.8409 10.4861 26.1439 10.389 26.4557 10.3807C26.7675 10.3723 27.0752 10.4534 27.3426 10.6141C30.405 12.3311 33.4752 14.0441 36.5533 15.7533L43.0068 19.3438C43.2529 19.5023 43.4708 19.7006 43.652 19.9305L43.7342 20.0241L43.9454 20.2178L43.9161 20.4819Z" fill="#7DF192"/>
<path d="M38.296 24.5242C37.0816 23.2804 35.7909 21.9898 34.3477 20.5759C33.761 19.9892 33.4032 19.9892 32.7872 20.5759C31.3322 22.0191 29.885 23.4641 28.4457 24.9112L26.1871 27.17C26.0287 27.3284 25.8702 27.4751 25.6766 27.6569L24.955 28.3376L24.5561 27.915L24.0339 27.3636C23.6701 26.9764 23.3182 26.6008 22.9486 26.243C22.7577 26.0059 22.482 25.8524 22.18 25.8147C21.8911 25.85 21.6278 25.9977 21.4467 26.2255C20.2205 27.3988 18.9298 28.7188 17.4984 30.1738C16.9117 30.7605 16.9117 31.1066 17.4984 31.664C19.8451 34.0459 22.1565 36.3573 24.3389 38.5104C24.8728 39.0384 25.2365 39.0384 25.7704 38.5104C29.9769 34.3216 34.201 30.0974 38.3312 25.9496C38.8827 25.4333 38.8474 25.0698 38.296 24.5242ZM24.9432 36.5685L19.2584 30.8662L22.4205 27.8211L22.8253 28.2906L23.2067 28.7423C23.5 29.0943 23.7934 29.4581 24.1278 29.7925C24.4622 30.1269 24.8082 30.3792 25.0312 30.3792C25.2541 30.3792 25.5475 30.1915 25.9288 29.7925C27.2664 28.4666 28.5923 27.1347 29.9241 25.803L32.4703 23.2626L32.9103 22.8404L33.5791 22.2067L36.2955 25.2045L24.9432 36.5685Z" fill="#7DF192"/>
</svg>
