<svg width="147" height="147" viewBox="0 0 147 147" fill="none" xmlns="http://www.w3.org/2000/svg">
<path d="M56.1727 109.437C56.4263 109.139 56.6688 108.831 56.9389 108.544C60.2467 104.977 63.5544 101.421 66.8622 97.8378C67.1299 97.5168 67.4683 97.2621 67.8508 97.0938C68.2334 96.9255 68.6498 96.848 69.0673 96.8675C72.8106 96.9061 76.5594 96.8675 80.3081 96.8675C80.4956 96.8675 80.683 96.8675 80.8594 96.8675C81.2375 96.8868 81.5945 97.0479 81.8592 97.3186C82.1238 97.5894 82.2767 97.95 82.2873 98.3285C82.2845 98.7093 82.1331 99.0739 81.8653 99.3448C81.5976 99.6156 81.2347 99.7712 80.8539 99.7784C79.8561 99.8225 78.8582 99.7784 77.8604 99.7784C75.2032 99.7784 72.5515 99.7784 69.8998 99.7784C69.6092 99.7665 69.3198 99.8226 69.0547 99.9422C68.7896 100.062 68.5561 100.242 68.3727 100.467C64.216 104.999 60.0317 109.51 55.8198 114.002C55.0425 114.834 54.3038 115.104 53.7194 114.553C53.2989 114.123 53.0483 113.555 53.0138 112.954C52.9531 108.963 52.9807 104.966 52.9807 100.969V99.8665H51.2551C49.3808 99.8665 47.5064 99.8665 45.6375 99.8665C44.6274 99.8884 43.6234 99.7053 42.686 99.3283C41.7487 98.9513 40.8975 98.3882 40.1838 97.6731C39.4702 96.9579 38.9089 96.1055 38.5339 95.1673C38.159 94.2291 37.978 93.2247 38.0021 92.2146C38.0021 84.1934 38.0021 76.1721 38.0021 68.1508C38.0021 63.4391 38.0021 58.7274 38.0021 54.0157C38.0021 49.1589 41.1721 46 46.0399 46H101.682C106.814 46 109.89 49.0762 109.89 54.2142V71.0341C109.912 71.3453 109.897 71.658 109.846 71.9658C109.778 72.2935 109.599 72.5877 109.34 72.799C109.08 73.0103 108.756 73.1256 108.421 73.1256C108.086 73.1256 107.762 73.0103 107.502 72.799C107.243 72.5877 107.064 72.2935 106.996 71.9658C106.947 71.6263 106.934 71.2826 106.958 70.9404C106.958 65.229 106.958 59.5176 106.958 53.8063C106.958 50.7742 105.094 48.9218 102.045 48.9218C83.3016 48.9218 64.5376 48.9218 45.7533 48.9218C42.8424 48.9218 40.9515 50.8073 40.946 53.7181V92.1044C40.946 95.0042 42.848 96.9116 45.7422 96.9227H53.8903C55.467 96.9227 55.9356 97.3968 55.9356 99.001V109.354L56.1727 109.437Z" fill="#7DF192"/>
<path d="M99.2996 106.085C96.0211 106.081 92.8174 105.105 90.0931 103.281C87.3688 101.457 85.2461 98.8668 83.9929 95.8372C82.7398 92.8076 82.4125 89.4747 83.0524 86.2592C83.6923 83.0438 85.2706 80.09 87.5881 77.771C89.9056 75.4519 92.8583 73.8717 96.0734 73.2296C99.2884 72.5876 102.622 72.9127 105.652 74.1638C108.682 75.4149 111.274 77.536 113.1 80.2591C114.926 82.9822 115.903 86.1852 115.91 89.4637C115.921 91.6486 115.499 93.814 114.668 95.8348C113.837 97.8557 112.614 99.6918 111.07 101.237C109.526 102.783 107.69 104.007 105.67 104.839C103.65 105.671 101.485 106.095 99.2996 106.085ZM99.3327 75.8468C96.622 75.8337 93.9686 76.6261 91.7089 78.1233C89.4492 79.6205 87.6851 81.7552 86.6405 84.2565C85.5958 86.7578 85.3177 89.5131 85.8413 92.1727C86.3649 94.8324 87.6666 97.2766 89.5815 99.1953C91.4963 101.114 93.9379 102.421 96.5964 102.95C99.255 103.479 102.011 103.206 104.514 102.166C107.018 101.127 109.156 99.3671 110.658 97.1105C112.16 94.8538 112.957 92.202 112.95 89.4913C112.935 85.8818 111.497 82.4238 108.947 79.8689C106.397 77.314 102.942 75.8686 99.3327 75.8468Z" fill="#7DF192"/>
<path d="M95.8982 94.3757L91.9344 90.5167C91.6368 90.2181 91.4697 89.8136 91.4697 89.392C91.4697 88.9704 91.6368 88.566 91.9344 88.2674C92.2321 87.9701 92.6356 87.8032 93.0563 87.8032C93.477 87.8032 93.8805 87.9701 94.1782 88.2674L97.4859 91.4704L104.471 84.491C104.618 84.3432 104.793 84.2259 104.985 84.1458C105.178 84.0658 105.384 84.0246 105.593 84.0246C105.801 84.0246 106.008 84.0658 106.2 84.1458C106.393 84.2259 106.567 84.3432 106.715 84.491C106.862 84.6381 106.98 84.8129 107.06 85.0054C107.14 85.198 107.181 85.4044 107.181 85.6129C107.181 85.8215 107.14 86.0279 107.06 86.2204C106.98 86.413 106.862 86.5878 106.715 86.7348L99.0626 94.3922C98.856 94.6029 98.6091 94.7699 98.3368 94.8834C98.0644 94.9969 97.772 95.0547 97.4769 95.0531C97.1818 95.0516 96.8901 94.9908 96.6189 94.8745C96.3477 94.7581 96.1027 94.5885 95.8982 94.3757Z" fill="#7DF192"/>
<path d="M96.2681 60.5596H51.6136C51.2025 60.5312 50.8193 60.3414 50.5476 60.0316C50.276 59.7217 50.138 59.317 50.1637 58.9057C50.138 58.4944 50.276 58.0897 50.5476 57.7798C50.8193 57.47 51.2025 57.2801 51.6136 57.2518H96.2681C96.6792 57.2801 97.0624 57.47 97.334 57.7798C97.6057 58.0897 97.7437 58.4944 97.718 58.9057C97.7437 59.317 97.6057 59.7217 97.334 60.0316C97.0624 60.3414 96.6792 60.5312 96.2681 60.5596Z" fill="#7DF192"/>
<path d="M96.2681 69.3802H51.6136C51.2025 69.3519 50.8193 69.1621 50.5476 68.8522C50.276 68.5423 50.138 68.1376 50.1637 67.7263C50.138 67.3151 50.276 66.9103 50.5476 66.6005C50.8193 66.2906 51.2025 66.1008 51.6136 66.0725H96.2681C96.6792 66.1008 97.0624 66.2906 97.334 66.6005C97.6057 66.9103 97.7437 67.3151 97.718 67.7263C97.7437 68.1376 97.6057 68.5423 97.334 68.8522C97.0624 69.1621 96.6792 69.3519 96.2681 69.3802Z" fill="#7DF192"/>
<path d="M78.3013 74.8931H51.8394C50.926 74.8931 50.1855 75.6336 50.1855 76.547C50.1855 77.4604 50.926 78.2009 51.8394 78.2009H78.3013C79.2148 78.2009 79.9552 77.4604 79.9552 76.547C79.9552 75.6336 79.2148 74.8931 78.3013 74.8931Z" fill="#7DF192"/>
<path d="M74.4423 83.7137H51.8394C50.926 83.7137 50.1855 84.4542 50.1855 85.3676C50.1855 86.281 50.926 87.0215 51.8394 87.0215H74.4423C75.3557 87.0215 76.0962 86.281 76.0962 85.3676C76.0962 84.4542 75.3557 83.7137 74.4423 83.7137Z" fill="#7DF192"/>
<path d="M78.3013 74.8931H51.8394C50.926 74.8931 50.1855 75.6336 50.1855 76.547C50.1855 77.4604 50.926 78.2009 51.8394 78.2009H78.3013C79.2148 78.2009 79.9552 77.4604 79.9552 76.547C79.9552 75.6336 79.2148 74.8931 78.3013 74.8931Z" fill="#7DF192"/>
<path d="M74.4423 83.7137H51.8394C50.926 83.7137 50.1855 84.4542 50.1855 85.3676C50.1855 86.281 50.926 87.0215 51.8394 87.0215H74.4423C75.3557 87.0215 76.0962 86.281 76.0962 85.3676C76.0962 84.4542 75.3557 83.7137 74.4423 83.7137Z" fill="#7DF192"/>
<path d="M145.5 73.5C145.5 113.264 113.264 145.5 73.5 145.5C33.7355 145.5 1.5 113.264 1.5 73.5C1.5 33.7355 33.7355 1.5 73.5 1.5C113.264 1.5 145.5 33.7355 145.5 73.5Z" stroke="#7DF192" stroke-width="3"/>
</svg>
