<svg width="63" height="62" viewBox="0 0 63 62" fill="none" xmlns="http://www.w3.org/2000/svg">
<path d="M33.841 49.4191C36.3584 49.4191 38.8757 49.4191 41.393 49.4191C43.0946 49.44 44.7534 48.8856 46.1004 47.8458C51.9325 43.4021 56.7708 37.7879 60.3045 31.3636C60.4224 31.2003 60.4993 31.0109 60.5289 30.8117C60.5584 30.6124 60.5398 30.4091 60.4745 30.2186C60.4091 30.0281 60.299 29.8559 60.1533 29.7168C60.0077 29.5777 59.8307 29.4756 59.6374 29.419C58.5116 28.8897 57.2236 28.8211 56.0479 29.2279C54.8723 29.6347 53.902 30.4846 53.3441 31.5965C52.2936 33.9166 50.4152 35.7612 48.0765 36.7695C47.3339 37.0904 46.6164 37.487 45.8801 37.8268C45.7562 37.8622 45.6509 37.9442 45.5863 38.0558C45.5218 38.1673 45.5031 38.2994 45.5341 38.4245C45.7984 41.2691 43.9859 43.2581 41.1288 43.2644C37.0759 43.2644 33.025 43.2644 28.9763 43.2644C28.793 43.2706 28.6094 43.2579 28.4287 43.2266C28.2023 43.2012 27.9944 43.0896 27.8479 42.915C27.7015 42.7404 27.6277 42.5161 27.642 42.2887C27.638 42.0612 27.717 41.8401 27.8641 41.6665C28.0111 41.4928 28.2162 41.3783 28.4413 41.3447C28.6642 41.3121 28.8898 41.3017 29.1147 41.3134H41.2105C41.6706 41.3568 42.1327 41.2535 42.5306 41.0184C42.9285 40.7833 43.2419 40.4283 43.4258 40.0043C44.0866 38.5569 43.0418 37.1158 41.3048 37.1032C39.1525 37.078 36.9961 37.078 34.8354 37.1032C33.1604 37.1421 31.5086 36.7057 30.0713 35.8445C29.7699 35.6664 29.4891 35.4553 29.2343 35.2152C28.4523 34.3891 27.3811 33.8974 26.2449 33.8431C24.0108 33.7865 21.7767 33.7991 19.5426 33.9061C18.2902 34.0131 17.1188 34.5696 16.2449 35.473C15.0282 36.6184 13.8157 37.766 12.6073 38.9156C12.4631 39.0873 12.2723 39.2135 12.0579 39.2794C11.8436 39.3453 11.6147 39.3478 11.3989 39.2868C11.2299 39.2397 11.0765 39.1486 10.9544 39.0225C10.8323 38.8965 10.7461 38.74 10.7044 38.5696C10.6628 38.3991 10.6672 38.2206 10.7173 38.0524C10.7675 37.8842 10.8616 37.7327 10.9899 37.613C12.4688 36.1844 13.9352 34.7368 15.5211 33.4341C16.9678 32.2765 18.7794 31.672 20.6313 31.7286C22.5823 31.7286 24.5332 31.7286 26.4842 31.823C27.8987 31.9026 29.2564 32.407 30.3797 33.2703C31.8851 34.4083 33.7436 34.9789 35.6283 34.8815C37.5162 34.8185 39.4042 34.8815 41.2922 34.8815C42.3806 34.8616 43.4399 35.2347 44.2754 35.9324C44.3683 35.9905 44.4724 36.028 44.581 36.0421C44.6896 36.0562 44.8002 36.0469 44.9048 36.0144C45.5907 35.7187 46.2452 35.3409 46.9375 35.0388C49.0111 34.1594 50.6764 32.53 51.6008 30.4761C53.1616 27.2665 57.5102 26.0017 60.6631 27.6758C61.0477 27.8641 61.3899 28.1287 61.6686 28.4538C61.9473 28.779 62.1565 29.1577 62.2838 29.5665C62.4111 29.9754 62.4536 30.4061 62.4087 30.832C62.3638 31.2578 62.2324 31.67 62.0226 32.0433C58.3713 38.7289 53.3716 44.5835 47.3402 49.2366C45.5946 50.5977 43.4364 51.3217 41.2231 51.2884C36.3395 51.2884 31.4558 51.2884 26.5722 51.2884C25.8179 51.3768 25.0696 51.5111 24.3317 51.6909C24.1889 51.7172 24.0421 51.713 23.9011 51.6783C23.76 51.6436 23.6279 51.5792 23.5136 51.4897C23.3987 51.3484 23.3143 51.1848 23.2656 51.0094C23.2169 50.8339 23.2048 50.6503 23.2304 50.4701C23.3056 50.2899 23.4188 50.1281 23.5621 49.9956C23.7055 49.8631 23.8757 49.7633 24.0612 49.7024C24.8341 49.5302 25.623 49.4394 26.4149 49.4317C28.8756 49.3688 31.3615 49.4191 33.841 49.4191Z" fill="#7DF192"/>
<path d="M51.3489 9.33053C51.1439 9.93278 50.8913 10.518 50.5936 11.0803C50.0776 11.9047 49.4608 12.6662 48.863 13.4403C48.6929 13.651 48.5834 13.904 48.5457 14.1722C48.508 14.4404 48.5437 14.7137 48.6491 14.9632C49.0456 16.2219 49.7567 16.9518 51.1664 16.9455C51.835 16.9897 52.4983 17.0931 53.1488 17.254C53.8086 17.3623 54.4108 17.6951 54.8535 18.1962C55.2961 18.6973 55.5521 19.3359 55.578 20.004C55.6158 20.8536 55.6095 21.7097 55.578 22.5656C55.5426 23.2727 55.2639 23.9459 54.7891 24.4711C54.3143 24.9963 53.6725 25.3415 52.9725 25.448C52.0222 25.5801 51.0845 25.6998 50.1279 25.8004C49.8767 25.8179 49.6356 25.9065 49.4328 26.0558C49.23 26.2051 49.0739 26.4089 48.9826 26.6437C48.41 27.7513 48.1897 28.7456 49.1463 29.7903C49.2323 29.9068 49.291 30.0411 49.3182 30.1833C49.3455 30.3256 49.3404 30.4723 49.3036 30.6123C49.2668 30.7524 49.1991 30.8823 49.1054 30.9928C49.0117 31.1032 48.8945 31.1911 48.7623 31.2503C48.3281 31.5209 47.9253 31.4077 47.5037 30.8917C47.274 30.6326 47.0637 30.357 46.8743 30.0672C46.6502 29.706 46.4805 29.3136 46.3708 28.9029C45.9114 26.8386 47.7868 24.1325 49.8511 23.8304C50.7573 23.6919 51.6636 23.5472 52.5572 23.3836C52.7014 23.3781 52.8427 23.3423 52.9721 23.2785C53.1014 23.2147 53.2159 23.1244 53.3079 23.0133C53.4 22.9023 53.4676 22.7731 53.5063 22.6341C53.545 22.4952 53.5541 22.3493 53.5327 22.2067C53.5327 21.6529 53.5327 21.1054 53.5327 20.5516C53.5327 19.6957 53.2558 19.3684 52.4251 19.2299C51.5944 19.0915 50.7385 18.9596 49.9077 18.84C49.2419 18.8029 48.6041 18.5592 48.083 18.143C47.562 17.7269 47.1835 17.1589 47.0002 16.5178C46.8995 16.1842 46.7107 15.8883 46.5786 15.5673C46.3522 15.074 46.2654 14.528 46.3275 13.9888C46.3896 13.4496 46.5984 12.9378 46.931 12.5089C47.5603 11.6907 48.1456 10.8789 48.7434 10.0545C49.228 9.38742 49.1903 9.02869 48.5987 8.46858C48.2148 8.10357 47.8308 7.73856 47.4407 7.37984C46.7043 6.69387 46.3708 6.67487 45.5527 7.25385L43.3878 8.83333C42.9243 9.20684 42.3621 9.43754 41.7697 9.49678C41.1774 9.55601 40.5806 9.44138 40.0523 9.16705C39.6873 8.99713 39.3097 8.85239 38.9321 8.69505C38.4084 8.51563 37.9473 8.18937 37.6036 7.75535C37.26 7.32134 37.0484 6.79776 36.9938 6.24686C36.8742 5.30286 36.7169 4.35886 36.5533 3.41486C36.5519 3.2589 36.5166 3.10504 36.4499 2.96406C36.3832 2.82308 36.2866 2.69835 36.1669 2.59839C36.0472 2.49842 35.9071 2.42562 35.7565 2.38512C35.6059 2.34463 35.4484 2.33747 35.2946 2.36392C34.7031 2.36392 34.1178 2.36392 33.5262 2.36392C33.3884 2.34822 33.2488 2.36127 33.1163 2.40203C32.9837 2.44278 32.861 2.51044 32.7558 2.60084C32.6506 2.69124 32.5653 2.80225 32.5051 2.92719C32.4448 3.05212 32.4111 3.18808 32.406 3.32667C32.2486 4.24549 32.1228 5.17701 31.9717 6.10213C31.934 6.36015 31.8711 6.61817 31.8333 6.87619C31.5438 8.65721 27.2832 10.4382 25.7854 9.10406C24.9969 8.45985 24.1756 7.8569 23.3247 7.2978C23.2116 7.17802 23.0733 7.08485 22.9199 7.02492C22.7664 6.965 22.6017 6.94004 22.4374 6.95148C22.2731 6.96292 22.1132 7.01039 21.9696 7.09099C21.8259 7.17159 21.702 7.28305 21.6066 7.41733C21.2102 7.80123 20.8199 8.19148 20.436 8.58166C20.3096 8.66386 20.2038 8.77404 20.1269 8.9037C20.05 9.03337 20.004 9.17898 19.9924 9.3293C19.9809 9.47963 20.004 9.63067 20.0602 9.77057C20.1164 9.91048 20.2042 10.0357 20.3165 10.1363C20.9018 10.9418 21.4934 11.7472 22.0912 12.5402C22.4367 12.9719 22.6563 13.4904 22.7263 14.0389C22.7962 14.5873 22.7136 15.1445 22.4877 15.6491C22.3114 16.1022 22.1415 16.5615 21.9653 17.0147C21.79 17.5183 21.4805 17.9645 21.0701 18.305C20.6597 18.6455 20.1641 18.8676 19.6368 18.9469C18.6172 19.142 17.5915 19.2805 16.5657 19.4441C16.4099 19.4467 16.2564 19.4825 16.1157 19.5495C15.975 19.6165 15.8504 19.7129 15.7501 19.8322C15.6499 19.9515 15.5764 20.0911 15.5347 20.2412C15.493 20.3914 15.4839 20.5489 15.5083 20.7028C15.5083 21.2692 15.5083 21.8419 15.5083 22.4083C15.4917 22.5565 15.5061 22.7064 15.5502 22.8489C15.5944 22.9914 15.6675 23.1232 15.765 23.2361C15.8625 23.349 15.9822 23.4403 16.1167 23.5047C16.2513 23.5691 16.3977 23.6052 16.5468 23.6104C17.5537 23.774 18.5607 23.9059 19.5613 24.0947C20.1093 24.1736 20.6248 24.4022 21.0512 24.7553C21.4776 25.1084 21.7982 25.5724 21.9779 26.0961C22.2485 26.8135 22.5128 27.5374 22.7456 28.2674C22.7929 28.4872 22.7929 28.7147 22.7456 28.9345C22.7455 29.0681 22.7164 29.2001 22.6604 29.3214C22.6043 29.4427 22.5226 29.5503 22.421 29.637C22.3193 29.7237 22.2001 29.7876 22.0714 29.8238C21.9428 29.86 21.8078 29.8678 21.6758 29.8469C21.1094 29.8028 20.8765 29.4314 20.7444 28.8273C20.5762 28.0216 20.3099 27.2398 19.9514 26.4989C19.813 26.2157 19.2907 26.0583 18.9194 25.9765C18.0635 25.794 17.1949 25.6934 16.3265 25.5675C15.579 25.4872 14.8891 25.1287 14.3936 24.5633C13.8981 23.9979 13.6333 23.2668 13.6518 22.5152C13.6518 21.7977 13.6518 21.0867 13.6518 20.3755C13.6474 19.666 13.8909 18.9771 14.3401 18.4279C14.7894 17.8787 15.4163 17.5035 16.1126 17.3671C17.044 17.172 18.0006 17.0273 18.9383 16.9077C19.2122 16.8687 19.4715 16.7605 19.6918 16.5931C19.912 16.4256 20.086 16.2046 20.1969 15.9511C20.5556 15.4551 20.7074 14.8393 20.6205 14.2334C20.5337 13.6275 20.2148 13.0792 19.7312 12.704C19.3147 12.2565 18.9397 11.7718 18.611 11.2563C18.195 10.7026 17.9887 10.0195 18.029 9.32807C18.0693 8.63668 18.3536 7.98188 18.8312 7.48033C19.4605 6.79435 20.1214 6.12099 20.7822 5.46019C21.2069 5.05653 21.762 4.81816 22.3472 4.78815C22.9324 4.75814 23.5091 4.93862 23.9729 5.29671C24.81 5.88199 25.6343 6.47963 26.4399 7.10267C26.6682 7.27993 26.9403 7.39233 27.2272 7.42778C27.5141 7.46323 27.8053 7.42061 28.0699 7.30425C28.6622 7.19694 29.1933 6.87354 29.5607 6.39682C29.9282 5.9201 30.1056 5.32396 30.0586 4.72392C30.1016 4.05394 30.2005 3.38863 30.3543 2.73513C30.4538 2.08535 30.7729 1.4894 31.2584 1.04626C31.7439 0.603107 32.3666 0.33974 33.0227 0.299844C33.8723 0.249497 34.7345 0.25579 35.5841 0.299844C36.303 0.318598 36.9928 0.587843 37.534 1.06131C38.0753 1.53478 38.434 2.18246 38.5483 2.89246C38.7119 3.83017 38.8692 4.78046 38.9951 5.72446C39.0769 6.29086 39.423 6.54276 39.895 6.83225C41.1977 7.6378 42.274 7.40497 43.3249 6.38545C43.7537 6.00881 44.2125 5.66777 44.6968 5.36585C45.2922 4.92407 46.0273 4.71249 46.7665 4.77032C47.5056 4.82816 48.1988 5.15151 48.7182 5.68052C49.2469 6.18399 49.7629 6.70647 50.2727 7.23511C50.8457 7.80103 51.2229 8.53508 51.3489 9.33053Z" fill="#7DF192"/>
<path d="M22.4878 54.7056C22.4491 55.6569 22.0484 56.5574 21.3675 57.2229C20.1089 58.4816 18.7873 59.7402 17.4846 60.9989C17.3949 61.1187 17.2785 61.2161 17.1447 61.2831C17.0109 61.3502 16.8633 61.3849 16.7136 61.3849C16.5639 61.3849 16.4164 61.3502 16.2826 61.2831C16.1488 61.2161 16.0324 61.1187 15.9428 60.9989C10.7654 55.8887 5.58591 50.7722 0.404396 45.6494C0.279793 45.5645 0.177876 45.4508 0.107398 45.3175C0.036921 45.1842 0 45.0356 0 44.8848C0 44.7341 0.036921 44.5857 0.107398 44.4525C0.177876 44.3192 0.279793 44.2052 0.404396 44.1203C1.73858 42.805 3.06656 41.4834 4.42592 40.1996C5.07287 39.5631 5.94604 39.2095 6.85353 39.2165C7.76101 39.2236 8.62852 39.5909 9.26546 40.2374C13.3729 44.2651 17.4762 48.3011 21.5753 52.3456C21.8796 52.6564 22.1175 53.0261 22.2743 53.4318C22.4312 53.8376 22.5039 54.2709 22.4878 54.7056ZM16.7231 58.96L19.8698 55.9203C20.7949 55.0141 20.8075 54.3218 19.8698 53.403L14.5016 48.1606L7.91245 41.7225C7.28312 41.0932 6.44598 40.9485 5.89216 41.4708C4.7216 42.5659 3.62031 43.7301 2.46863 44.8818L16.7231 58.96Z" fill="#7DF192"/>
<path d="M44.7475 21.3256C44.7077 24.0176 43.6072 26.5853 41.6853 28.4707C39.7634 30.3561 37.1753 31.4068 34.483 31.3949C31.7855 31.4083 29.1927 30.3522 27.2724 28.4578C25.3521 26.5634 24.2607 23.9852 24.2374 21.2878C24.2739 18.5915 25.3797 16.0204 27.3116 14.1393C29.2435 12.2581 31.8433 11.221 34.5395 11.2562C35.8712 11.2463 37.1918 11.4991 38.4257 11.9999C39.6596 12.5007 40.7827 13.2397 41.7308 14.1749C42.6788 15.1101 43.4333 16.223 43.951 17.45C44.4686 18.677 44.7392 19.9939 44.7475 21.3256ZM42.7021 21.6024C42.7531 19.4827 41.979 17.4262 40.5432 15.8659C39.1074 14.3057 37.1219 13.3636 35.0052 13.2386C33.9254 13.167 32.8421 13.3107 31.818 13.6608C30.7939 14.0109 29.8496 14.5605 29.0395 15.2781C28.2294 15.9957 27.5697 16.8668 27.0986 17.8412C26.6276 18.8155 26.3546 19.8738 26.2954 20.9544C26.2101 23.1173 26.9854 25.2257 28.4516 26.8181C29.9178 28.4105 31.9553 29.3571 34.1179 29.4504C35.1982 29.5045 36.2785 29.3439 37.2962 28.9778C38.314 28.6117 39.2491 28.0473 40.0474 27.3175C40.8457 26.5876 41.4913 25.7067 41.947 24.7258C42.4026 23.7448 42.6594 22.6832 42.7021 21.6024Z" fill="#7DF192"/>
</svg>
