<svg width="83" height="83" viewBox="0 0 83 83" fill="none" xmlns="http://www.w3.org/2000/svg">
<rect width="83" height="83" rx="16" fill="white"/>
<g clip-path="url(#clip0_1669_4204)">
<path d="M57.6906 27.6509C58.8057 26.4744 59.9362 25.3489 61.0629 24.1999C61.1475 24.1136 61.2513 24.0431 61.4474 23.8744L64.9505 27.4548C65.6234 24.0156 66.304 20.5529 66.9962 17.0195L56.6716 19.1254L60.19 22.7058L45.6626 37.5176C43.6362 35.447 41.5789 33.3411 39.4256 31.145C39.3238 31.3145 39.2094 31.4758 39.0834 31.6274C36.3763 34.396 33.6679 37.162 30.9583 39.9254C30.8688 40.0545 30.7358 40.1455 30.5848 40.1809C30.4337 40.2164 30.2751 40.1938 30.1393 40.1176C28.6464 39.4725 26.9949 39.3122 25.4096 39.6587C22.3603 40.3489 20.2031 42.0666 19.1341 44.8117C18.6824 45.8671 18.4456 47.0052 18.4381 48.1568C18.4362 48.1855 18.4362 48.2143 18.4381 48.2431C18.3831 49.9698 18.8886 51.6668 19.8763 53.0705C19.8774 53.0783 19.8774 53.0862 19.8763 53.094C20.467 53.9853 21.2139 54.7577 22.0796 55.3725C22.0866 55.3823 22.0959 55.3904 22.1065 55.396L22.3449 55.6038H17.0115V57.0038H62.3472V55.3607H57.4522V55.2313C57.4522 55.2313 57.4522 55.1411 57.4522 55.0587C57.4522 46.1123 57.4522 37.1686 57.4522 28.2274C57.4652 28.0132 57.5493 27.8099 57.6906 27.6509ZM59.8901 20.094L65.012 19.047C64.6621 20.8391 64.3237 22.5764 63.9892 24.2666L59.8901 20.094ZM48.3774 37.1215C49.2925 36.2117 50.1885 35.2784 51.1537 34.2901V55.3803H48.0774V54.8313C48.0774 49.1921 48.0774 43.5503 48.0774 37.9058C48.0651 37.7574 48.0856 37.6081 48.1375 37.469C48.1895 37.3298 48.2714 37.2043 48.3774 37.1019V37.1215ZM43.4208 37.647L45.6203 39.9176L46.4701 39.094V55.3764H43.4208V37.647ZM39.541 33.494C40.2639 34.2391 40.9983 34.9803 41.7174 35.7411C41.7975 35.8551 41.8381 35.9931 41.8327 36.1333C41.8327 42.494 41.8327 48.8535 41.8327 55.2117C41.8292 55.2578 41.8228 55.3037 41.8135 55.3489H38.7181V54.8313C38.7181 48.2431 38.7181 41.6509 38.6988 35.0627C38.6771 34.7438 38.7448 34.4251 38.8939 34.1439C39.043 33.8627 39.2674 33.6305 39.541 33.4744V33.494ZM37.1146 36.0391V55.3764H32.0081C34.3422 53.5176 35.6034 51.1686 35.5957 48.2117C35.588 45.2548 34.3191 42.9333 32.085 41.1764L37.1146 36.0391ZM20.0032 48.2235C20.0056 47.3875 20.15 46.5582 20.43 45.7725C20.4723 45.6627 20.5146 45.5529 20.5607 45.4431C20.6069 45.3333 20.653 45.2313 20.703 45.1293C20.7892 44.9449 20.8855 44.7656 20.9914 44.5921C21.0644 44.4627 21.1452 44.3372 21.2298 44.1999C21.8675 43.2602 22.7182 42.4914 23.7097 41.9588C24.7012 41.4263 25.8041 41.1458 26.9246 41.1411C28.7717 41.1359 30.5456 41.8767 31.8585 43.2017C33.1715 44.5267 33.9165 46.328 33.9307 48.2117C33.9358 50.0971 33.2077 51.9076 31.9058 53.2462C30.604 54.5849 28.8348 55.3425 26.9862 55.3529C26.164 55.3568 25.3478 55.2121 24.5752 54.9254C24.4675 54.8823 24.3598 54.8431 24.256 54.796C24.1522 54.7489 24.0138 54.6862 23.8984 54.6235C23.7831 54.5607 23.6831 54.5097 23.5792 54.447C22.4942 53.8229 21.5912 52.9159 20.9629 51.8189C20.3345 50.7219 20.0033 49.4743 20.0032 48.2038V48.2235ZM52.7725 55.3568V54.8548C52.7725 47.6025 52.7725 40.3542 52.7725 33.1097C52.7642 32.9633 52.7882 32.8168 52.8428 32.681C52.8973 32.5453 52.9811 32.4238 53.0878 32.3254C54.003 31.4156 54.8989 30.4862 55.8641 29.5019V55.3529L52.7725 55.3568Z" fill="#121891"/>
<path d="M26.5555 50.5019C26.3195 50.3439 26.0992 50.1626 25.8979 49.9608C25.7553 49.824 25.5669 49.7479 25.3711 49.7479C25.1754 49.7479 24.987 49.824 24.8443 49.9608C24.6945 50.0908 24.6014 50.2762 24.5855 50.4762C24.5696 50.6763 24.6323 50.8745 24.7597 51.0274C24.9359 51.2881 25.1672 51.5052 25.4365 51.6627C25.7122 51.7534 25.9443 51.9465 26.0868 52.2037C26.2293 52.4609 26.2717 52.7634 26.2056 53.051C26.2038 53.1506 26.2223 53.2496 26.2597 53.3416C26.2971 53.4337 26.3527 53.5169 26.4231 53.5861C26.4934 53.6553 26.577 53.7089 26.6686 53.7437C26.7602 53.7785 26.8578 53.7936 26.9554 53.7882C27.151 53.7886 27.3394 53.713 27.4823 53.5768C27.6251 53.4406 27.7117 53.2539 27.7244 53.0549C27.7437 52.8196 27.7244 52.5804 27.7437 52.349C27.7513 52.2787 27.773 52.2108 27.8074 52.1495C27.8418 52.0881 27.8882 52.0345 27.9436 51.9921C28.4138 51.7653 28.796 51.3846 29.0294 50.9106C29.2629 50.4366 29.3341 49.8965 29.2318 49.3765C29.1293 48.8414 28.8479 48.3592 28.4355 48.0123C28.0231 47.6654 27.5053 47.4753 26.9708 47.4745C26.8078 47.4763 26.6484 47.4252 26.5157 47.3287C26.383 47.2321 26.2838 47.095 26.2325 46.9372C26.1742 46.7886 26.1651 46.6246 26.2068 46.4702C26.2485 46.3158 26.3385 46.1796 26.4632 46.0823C26.5858 45.9727 26.7394 45.9056 26.9018 45.8908C27.0643 45.876 27.2271 45.9142 27.3668 46C27.5591 46.1059 27.7206 46.2627 27.9052 46.3921C28.0611 46.4993 28.25 46.5444 28.4364 46.5192C28.6227 46.4939 28.7935 46.3999 28.9165 46.2549C29.0465 46.1144 29.119 45.9285 29.119 45.7353C29.119 45.5421 29.0465 45.3562 28.9165 45.2157C28.7993 45.0532 28.6483 44.9193 28.4743 44.8235C27.8398 44.5961 27.6706 44.1608 27.736 43.5059C27.7421 43.4012 27.7265 43.2964 27.69 43.1984C27.6535 43.1004 27.5971 43.0114 27.5244 42.9373C27.4517 42.8632 27.3645 42.8056 27.2684 42.7684C27.1723 42.7312 27.0695 42.7153 26.9669 42.7216C26.7713 42.7211 26.5829 42.7967 26.4401 42.933C26.2972 43.0692 26.2106 43.2558 26.1979 43.4549C26.1979 43.6902 26.2171 43.9294 26.1979 44.1608C26.1906 44.2306 26.169 44.2981 26.1346 44.3589C26.1002 44.4197 26.0536 44.4724 25.9979 44.5137C25.5272 44.7412 25.1444 45.1224 24.9104 45.597C24.6763 46.0716 24.6043 46.6123 24.7059 47.1333C24.8075 47.6685 25.088 48.151 25.4997 48.4986C25.9114 48.8463 26.4286 49.0373 26.9631 49.0392C27.1352 49.0325 27.3045 49.0848 27.444 49.1879C27.5834 49.2911 27.6849 49.4389 27.7321 49.6078C27.7783 49.7451 27.7828 49.8934 27.7451 50.0333C27.7073 50.1732 27.6291 50.2983 27.5206 50.3921C27.4009 50.5279 27.2365 50.614 27.0585 50.6343C26.8806 50.6545 26.7016 50.6074 26.5555 50.5019Z" fill="#121891"/>
</g>
<defs>
<clipPath id="clip0_1669_4204">
<rect width="50" height="40" fill="white" transform="translate(17 17)"/>
</clipPath>
</defs>
</svg>
