<svg width="83" height="83" viewBox="0 0 83 83" fill="none" xmlns="http://www.w3.org/2000/svg">
<rect width="83" height="83" rx="16" fill="white"/>
<g clip-path="url(#clip0_1669_4209)">
<path d="M60.996 28.9099C60.996 26.1423 58.8482 23.8609 56.2381 23.8285C53.4925 23.7961 47.7702 23.8001 44.8493 23.8285H42.1396C42.0275 23.8185 41.9146 23.8319 41.8077 23.8677C41.7009 23.9035 41.6023 23.9611 41.518 24.0369C41.4338 24.1128 41.3656 24.2052 41.3176 24.3087C41.2696 24.4122 41.2429 24.5246 41.239 24.6389C41.2355 24.7587 41.2565 24.8779 41.3006 24.989C41.3447 25.1001 41.411 25.2007 41.4952 25.2844C41.5794 25.3682 41.6798 25.4333 41.7901 25.4756C41.9003 25.518 42.0179 25.5366 42.1356 25.5304H55.6124C55.958 25.5175 56.304 25.5419 56.6445 25.6033C57.4232 25.7616 58.1201 26.1987 58.6086 26.8353C59.0971 27.4718 59.3447 28.2655 59.3064 29.072C59.3064 34.5344 59.3064 39.9967 59.3064 45.459V53.1987C59.3064 55.1276 59.3064 57.0537 59.3064 58.9771C59.3237 59.1037 59.3103 59.2327 59.2672 59.3528C59.2241 59.4729 59.1528 59.5805 59.0594 59.666C58.884 59.7754 58.6609 59.7511 58.3341 59.585L56.0069 58.3977L55.732 58.2599C55.3806 58.0648 54.9867 57.9626 54.5863 57.9626C54.186 57.9626 53.7921 58.0648 53.4407 58.2599C52.9665 58.5111 52.4843 58.7543 52.0061 58.9933L51.9503 59.0217C51.3566 59.3216 50.723 59.6417 50.1093 59.9699C49.7736 60.1642 49.3938 60.2664 49.0075 60.2664C48.6212 60.2664 48.2415 60.1642 47.9057 59.9699C47.3239 59.6579 46.7102 59.354 46.1444 59.0622L45.8973 58.9366L44.6062 58.2842C44.2509 58.0834 43.8511 57.978 43.4446 57.978C43.0381 57.978 42.6383 58.0834 42.283 58.2842C41.7451 58.5719 41.1991 58.8434 40.6532 59.0946L40.4261 59.2122C39.928 59.4634 39.4378 59.7146 38.9517 59.974C38.6211 60.1643 38.2477 60.2644 37.8678 60.2644C37.4879 60.2644 37.1145 60.1643 36.7839 59.974C35.9869 59.5687 35.1899 59.1635 34.393 58.7583L33.4007 58.2599C33.0574 58.0665 32.6714 57.9651 32.279 57.9651C31.8865 57.9651 31.5005 58.0665 31.1572 58.2599C30.5396 58.58 29.918 58.8961 29.3003 59.2081L28.6308 59.5444C28.3001 59.7146 28.0411 59.7997 27.8339 59.666C27.6266 59.5323 27.5788 59.2041 27.5788 58.8556V41.6014C27.5788 40.9692 27.26 40.5721 26.742 40.56C26.6369 40.5561 26.5321 40.5735 26.4336 40.611C26.3351 40.6486 26.2449 40.7056 26.1682 40.7788C26.0681 40.8907 25.9912 41.0219 25.9419 41.1645C25.8927 41.3072 25.872 41.4585 25.8813 41.6095V44.2596C25.8813 46.8651 25.8813 56.3473 25.8813 59.0582C25.8652 59.4634 25.9526 59.8659 26.1349 60.2266C26.3171 60.5873 26.588 60.894 26.9213 61.1167C27.2691 61.3243 27.6635 61.4378 28.0667 61.4463C28.47 61.4549 28.8686 61.3581 29.2246 61.1653C29.9259 60.8168 30.8185 60.3832 31.6593 59.9172C31.8457 59.8029 32.0593 59.7424 32.277 59.7424C32.4947 59.7424 32.7083 59.8029 32.8947 59.9172C33.4446 60.213 34.0104 60.4967 34.5444 60.7601L34.7317 60.8573C35.17 61.0762 35.6044 61.295 36.0387 61.526C36.6032 61.8467 37.2397 62.0135 37.8863 62.0099C38.533 62.0064 39.1677 61.8327 39.7287 61.5057C40.2946 61.2031 40.8564 60.9168 41.4143 60.6466L41.4821 60.6102C41.9602 60.3711 42.4384 60.128 42.9166 59.8767C43.0734 59.7842 43.2514 59.7355 43.4327 59.7355C43.6139 59.7355 43.7919 59.7842 43.9487 59.8767C44.4588 60.1442 44.9728 60.4035 45.4869 60.6588L45.6781 60.756C46.1882 61.0154 46.7022 61.2747 47.2123 61.5422C47.7635 61.8455 48.3788 62.0082 49.0055 62.0163C49.6417 62.0057 50.2661 61.8403 50.8266 61.5341L51.9862 60.9424L52.7473 60.5372C53.1817 60.3184 53.616 60.0996 54.0464 59.8727C54.2101 59.777 54.3956 59.7267 54.5843 59.7267C54.7731 59.7267 54.9586 59.777 55.1223 59.8727L55.4809 60.0672C56.1026 60.4035 56.8756 60.8168 57.6368 61.141C58.0774 61.3455 58.5596 61.4399 59.0434 61.4165C60.2389 61.2869 60.996 60.3751 60.996 59.0339C60.996 55.3761 60.996 51.717 60.996 48.0565V38.1489C61.004 35.0692 61.004 31.9896 60.996 28.9099Z" fill="#121891"/>
<path d="M32.5121 48.5427C32.4924 49.1388 32.5905 49.7329 32.8006 50.2897C33.0107 50.8466 33.3286 51.3549 33.7355 51.7845C34.134 52.2073 34.6121 52.5442 35.1412 52.7753C35.6704 53.0064 36.2399 53.127 36.8158 53.1298C37.6805 53.1298 38.5532 53.1298 39.4179 53.1298H45.447C47.0848 53.1298 48.5632 53.1298 50.0695 53.1298C51.1579 53.1165 52.2017 52.688 52.9943 51.9294C53.7869 51.1707 54.2704 50.137 54.3492 49.0331C54.4345 47.9305 54.1096 46.8356 53.4388 45.9651C52.768 45.0946 51.8002 44.5119 50.727 44.3325C50.4636 44.2873 50.1971 44.2643 49.93 44.2636H48.2325C44.4548 44.2636 40.6771 44.2636 36.8995 44.2636C35.7633 44.2525 34.668 44.694 33.848 45.4938C33.028 46.2935 32.5485 47.3879 32.5121 48.5427ZM42.2352 45.7994H49.942C50.1157 45.7999 50.2891 45.8162 50.46 45.848C51.159 45.9627 51.7903 46.3397 52.2292 46.9046C52.6682 47.4695 52.8829 48.1813 52.831 48.8993C52.7801 49.6191 52.465 50.2931 51.9484 50.7877C51.4317 51.2823 50.7511 51.5614 50.0416 51.5697C48.5034 51.5697 46.9453 51.5697 45.443 51.5697H41.4143C39.916 51.5697 38.3699 51.5697 36.8317 51.5697C36.4592 51.5671 36.091 51.4887 35.7488 51.3391C35.4066 51.1895 35.0974 50.9716 34.8393 50.6985C34.5729 50.4181 34.3649 50.0858 34.228 49.7216C34.091 49.3574 34.0279 48.9688 34.0423 48.5792C34.0683 47.825 34.3843 47.1113 34.9223 46.5915C35.4603 46.0717 36.1774 45.7873 36.9194 45.7994H42.2352Z" fill="#121891"/>
<path d="M46.4432 32.5974H54.9231C55.0996 32.6239 55.28 32.5969 55.4416 32.5198C55.6031 32.4426 55.7388 32.3189 55.8316 32.1638C55.9099 32.0392 55.9531 31.8951 55.9566 31.7472C55.9601 31.5994 55.9238 31.4534 55.8515 31.325C55.7701 31.1855 55.653 31.0711 55.5126 30.994C55.3723 30.9169 55.2139 30.8801 55.0546 30.8874C54.0065 30.8874 52.9585 30.8874 51.9065 30.8874H47.9854C47.3279 30.8874 46.6744 30.8874 46.0208 30.8874C45.9162 30.8874 45.8125 30.9083 45.7159 30.9491C45.6192 30.9898 45.5313 31.0495 45.4573 31.1248C45.3833 31.2 45.3246 31.2894 45.2845 31.3877C45.2445 31.486 45.2239 31.5914 45.2239 31.6978C45.2169 31.9117 45.2906 32.1202 45.4299 32.2807C45.5691 32.4412 45.7634 32.5414 45.973 32.5609C46.1277 32.5923 46.2856 32.6046 46.4432 32.5974Z" fill="#121891"/>
<path d="M46.1563 36.8764H50.8027C50.9222 36.8894 51.043 36.8769 51.1575 36.8395C51.2719 36.8022 51.3773 36.7409 51.4671 36.6596C51.5568 36.5783 51.6288 36.4788 51.6784 36.3674C51.728 36.2561 51.7541 36.1355 51.7551 36.0133C51.7544 35.8906 51.728 35.7695 51.6779 35.6579C51.6277 35.5464 51.5548 35.4469 51.4641 35.3661C51.3733 35.2853 51.2667 35.225 51.1513 35.1892C51.0359 35.1533 50.9144 35.1428 50.7947 35.1583C49.2406 35.1583 47.6945 35.1583 46.1484 35.1583C46.0149 35.1526 45.8817 35.174 45.7564 35.2213C45.6312 35.2687 45.5165 35.3409 45.4191 35.4338C45.3445 35.5114 45.286 35.6033 45.247 35.7042C45.208 35.8051 45.1893 35.913 45.192 36.0214C45.1951 36.1437 45.2232 36.2639 45.2744 36.3746C45.3256 36.4853 45.3989 36.5839 45.4895 36.6643C45.5802 36.7447 45.6862 36.805 45.801 36.8415C45.9158 36.8781 46.0368 36.8899 46.1563 36.8764Z" fill="#121891"/>
<path d="M37.3657 28.8288C37.3657 26.7581 36.559 24.7717 35.1221 23.3044C33.6851 21.8372 31.7351 21.0086 29.6988 21C27.6618 21 25.7078 21.8209 24.2648 23.283C22.8218 24.745 22.0074 26.729 22 28.8005C22 30.8712 22.8067 32.8576 24.2436 34.3248C25.6806 35.7921 27.6306 36.6207 29.6669 36.6293C31.7039 36.6293 33.6579 35.8084 35.1009 34.3463C36.5439 32.8842 37.3583 30.9002 37.3657 28.8288ZM23.3987 28.8288C23.3976 27.1364 24.0556 25.5124 25.2287 24.3118C26.4018 23.1113 27.9946 22.432 29.6589 22.4223C31.3253 22.418 32.9255 23.0856 34.1086 24.2789C35.2918 25.4722 35.9615 27.0938 35.971 28.7883C35.9742 30.4832 35.3167 32.1103 34.1426 33.3134C32.9686 34.5164 31.3735 35.1973 29.7068 35.207C28.0407 35.2113 26.441 34.5435 25.2585 33.3501C24.076 32.1567 23.4071 30.5351 23.3987 28.841V28.8288Z" fill="#121891"/>
<path d="M30.3762 33.1242C30.3762 32.9135 30.3762 32.719 30.3762 32.488C30.3841 32.4259 30.404 32.366 30.4348 32.3117C30.4656 32.2575 30.5066 32.21 30.5555 32.172C30.9788 31.9666 31.3227 31.6236 31.5327 31.1972C31.7427 30.7708 31.8069 30.2853 31.7151 29.8176C31.6229 29.337 31.3695 28.9037 30.9981 28.5919C30.6267 28.28 30.1605 28.1089 29.6789 28.1076C29.5335 28.1069 29.392 28.0601 29.2741 27.9736C29.1562 27.8872 29.0679 27.7654 29.0214 27.6254C28.9689 27.4923 28.9607 27.3453 28.9981 27.207C29.0356 27.0687 29.1165 26.9466 29.2286 26.8595C29.3361 26.7623 29.4714 26.7024 29.6147 26.6885C29.758 26.6747 29.9019 26.7076 30.0255 26.7825C30.1969 26.8757 30.3443 27.0176 30.5077 27.127C30.6469 27.2273 30.8182 27.2705 30.9874 27.248C31.1566 27.2254 31.3112 27.1388 31.4203 27.0054C31.5371 26.8785 31.6021 26.7112 31.6021 26.5374C31.6021 26.3636 31.5371 26.1962 31.4203 26.0694C31.3132 25.929 31.1772 25.8142 31.0218 25.733C30.4479 25.5264 30.2965 25.1333 30.3563 24.5457C30.3608 24.4532 30.3463 24.3606 30.3137 24.2741C30.2812 24.1875 30.2313 24.1087 30.1672 24.0428C30.1031 23.9769 30.0263 23.9253 29.9415 23.8911C29.8568 23.857 29.766 23.8412 29.6749 23.8447C29.4981 23.8434 29.3275 23.9112 29.1984 24.0341C29.0694 24.157 28.9917 24.3257 28.9815 24.5052C28.9616 24.7159 28.9815 24.9104 28.9815 25.1414C28.9736 25.2035 28.9537 25.2634 28.923 25.3177C28.8922 25.3719 28.8511 25.4195 28.8022 25.4575C28.3744 25.6614 28.0263 26.0055 27.8138 26.4346C27.6014 26.8638 27.5369 27.3531 27.6306 27.824C27.7242 28.3043 27.9779 28.7372 28.3488 29.0495C28.7198 29.3617 29.1853 29.5343 29.6669 29.538C29.8197 29.536 29.9689 29.5848 30.0919 29.677C30.2149 29.7692 30.3049 29.8996 30.3483 30.0486C30.3902 30.1727 30.3944 30.3067 30.3603 30.4332C30.3262 30.5597 30.2553 30.6728 30.1571 30.7577C30.0509 30.8709 29.9093 30.9429 29.7566 30.9614C29.6038 30.9799 29.4495 30.9437 29.3202 30.859C29.1075 30.7166 28.9087 30.5538 28.7265 30.3728C28.598 30.2503 28.4284 30.1821 28.2523 30.1821C28.0761 30.1821 27.9066 30.2503 27.7781 30.3728C27.7112 30.4304 27.6561 30.5009 27.6161 30.5802C27.576 30.6595 27.5518 30.7461 27.5448 30.8349C27.5377 30.9238 27.548 31.0132 27.5751 31.098C27.6021 31.1828 27.6454 31.2613 27.7024 31.3291C27.8622 31.556 28.0707 31.7431 28.3121 31.8761C28.5638 31.9527 28.7773 32.124 28.9091 32.3552C29.0409 32.5864 29.0811 32.8599 29.0214 33.1202C29.0202 33.2098 29.0371 33.2988 29.071 33.3816C29.1049 33.4644 29.1552 33.5392 29.2186 33.6015C29.2821 33.6638 29.3575 33.7122 29.4401 33.7437C29.5226 33.7752 29.6107 33.7892 29.6988 33.7847C29.8726 33.781 30.0386 33.7111 30.1641 33.5887C30.2896 33.4664 30.3653 33.3006 30.3762 33.1242Z" fill="#121891"/>
<path d="M46.1005 41.0947C46.3373 41.0947 46.5643 40.9991 46.7317 40.8288C46.8991 40.6586 46.9932 40.4277 46.9932 40.187C46.9932 39.9463 46.8991 39.7154 46.7317 39.5452C46.5643 39.3749 46.3373 39.2793 46.1005 39.2793C45.983 39.2788 45.8665 39.3019 45.7577 39.3472C45.649 39.3926 45.5501 39.4594 45.4668 39.5437C45.3835 39.6281 45.3174 39.7283 45.2723 39.8387C45.2272 39.9491 45.2039 40.0675 45.2039 40.187C45.2039 40.3065 45.2272 40.4249 45.2723 40.5353C45.3174 40.6457 45.3835 40.7459 45.4668 40.8303C45.5501 40.9146 45.649 40.9814 45.7577 41.0268C45.8665 41.0721 45.983 41.0952 46.1005 41.0947Z" fill="#121891"/>
</g>
<defs>
<clipPath id="clip0_1669_4209">
<rect width="39" height="41" fill="white" transform="translate(22 21)"/>
</clipPath>
</defs>
</svg>
