<svg width="83" height="83" viewBox="0 0 83 83" fill="none" xmlns="http://www.w3.org/2000/svg">
<rect width="83" height="83" rx="16" fill="white"/>
<g clip-path="url(#clip0_1669_4207)">
<path d="M60.3767 31.8321C54.0335 28.3995 48.2379 25.2389 42.6529 22.1937C42.4586 22.0761 42.2367 22.0094 42.0084 22C41.7735 22.0084 41.5452 22.0781 41.3472 22.2019C35.56 25.3666 29.6001 28.6097 23.6234 31.8362C23.4109 31.9138 23.2329 32.0619 23.1205 32.2546C23.0081 32.4474 22.9685 32.6727 23.0084 32.8911C23.0674 33.4927 23.1179 34.0985 23.1643 34.7001C23.2611 35.858 23.358 37.0531 23.5307 38.2069C24.3478 43.6504 25.9147 48.212 28.3197 52.1473C31.3691 57.1499 35.4505 60.3187 40.7954 61.8311C41.5999 62.0818 42.4679 62.0556 43.2552 61.7569C49.632 59.4369 54.4505 55.073 57.5757 48.7889C59.5974 44.7259 60.6841 40.1807 60.9874 34.4776C60.9874 34.3169 60.9874 34.1562 60.9874 33.9955C60.9874 33.6205 60.9874 33.229 60.9874 32.8375C61.016 32.6272 60.9712 32.4135 60.8604 32.2311C60.7496 32.0486 60.5792 31.9081 60.3767 31.8321ZM59.7785 33.9666C59.7592 34.1502 59.7592 34.3352 59.7785 34.5188C59.7785 34.6218 59.7785 34.7248 59.7785 34.8279V34.8567C59.4837 39.5749 58.5992 43.5721 57.0661 47.0706C54.3157 53.3382 49.83 57.8051 43.7311 60.3352C43.1504 60.5958 42.5209 60.7361 41.8821 60.7473C41.3274 60.7417 40.7777 60.6442 40.2563 60.4588C35.6232 58.9218 32.0683 56.0084 29.3474 51.558C27.153 47.9648 25.6914 43.8358 24.8743 38.9445C24.689 37.8195 24.5668 36.6739 24.4531 35.5655C24.3899 34.9721 24.3268 34.3787 24.251 33.7853C24.1969 33.5263 24.2341 33.257 24.3565 33.0213C24.4789 32.7856 24.6792 32.5974 24.9249 32.4873C29.8023 29.8582 35.0082 27.0273 41.3093 23.5865C41.5178 23.4553 41.7605 23.3856 42.0084 23.3856C42.2564 23.3856 42.4991 23.4553 42.7076 23.5865C47.4797 26.1908 53.1321 29.2731 58.8688 32.3637C59.4037 32.6315 59.9386 33.0559 59.787 33.9666H59.7785Z" fill="#121891"/>
<path d="M55.3897 34.8567L51.7675 32.887C48.697 31.2387 45.5254 29.4915 42.3917 27.8184C42.2717 27.7647 42.1404 27.7393 42.0084 27.7443C41.8711 27.7398 41.7345 27.7651 41.6083 27.8184C38.2767 29.5986 34.9029 31.4323 31.6387 33.2084L28.7198 34.7949C28.5782 34.8507 28.4613 34.9537 28.3896 35.0856C28.318 35.2175 28.2962 35.3699 28.3281 35.516C28.3534 35.7138 28.3744 35.9281 28.3955 36.1176C28.4292 36.3896 28.4587 36.6615 28.4966 36.9418C29.1747 41.6394 30.3414 45.3645 32.1609 48.6694C34.4564 52.8231 37.4638 55.4604 41.3135 56.6966C41.695 56.8017 42.101 56.7844 42.4718 56.6471C45.5667 55.39 48.275 53.368 50.3312 50.7792C53.507 46.8563 55.2381 41.9897 55.8067 35.4748V35.45C55.8093 35.3209 55.7705 35.1942 55.6957 35.0878C55.6209 34.9814 55.5139 34.9006 55.3897 34.8567ZM54.5221 36.1753C53.9113 42.1792 52.2266 46.6626 49.2108 50.2929C47.4087 52.4932 45.0992 54.2443 42.4718 55.4027C42.2585 55.49 42.029 55.5335 41.7978 55.5304C41.5987 55.5307 41.4008 55.4987 41.2124 55.4356C38.163 54.3271 35.7369 52.2173 33.7404 48.9784C31.8872 45.9456 30.6531 42.3853 29.857 37.7989C29.857 37.6588 29.7981 37.5104 29.7644 37.3621C29.6422 36.847 29.5032 36.2618 29.7644 35.7921C30.059 35.3611 30.4962 35.0424 31.0027 34.8896C31.1627 34.8196 31.3186 34.7495 31.4618 34.6712L35.4294 32.5161L41.3809 29.2772C41.5664 29.1545 41.7839 29.0862 42.0077 29.0803C42.2316 29.0745 42.4525 29.1314 42.6444 29.2442C44.8431 30.4502 47.0473 31.6535 49.2572 32.854L53.8903 35.3759C54.067 35.4872 54.2235 35.6265 54.3536 35.7879L54.4126 35.8539L54.5642 35.9899L54.5221 36.1753Z" fill="#121891"/>
<path d="M50.5207 39.0064C49.6489 38.1328 48.7223 37.2262 47.6861 36.2331C47.2649 35.8211 47.008 35.8211 46.5657 36.2331C45.5212 37.2468 44.4822 38.2619 43.4489 39.2784L41.8273 40.8648C41.7136 40.9761 41.5999 41.0791 41.4609 41.2069L40.9428 41.6849L40.6564 41.3882L40.2815 41.0008C40.0204 40.7289 39.7677 40.4651 39.5023 40.2138C39.3653 40.0473 39.1674 39.9394 38.9506 39.9129C38.7432 39.9378 38.5541 40.0414 38.4241 40.2014C37.5438 41.0255 36.6172 41.9527 35.5895 42.9747C35.1683 43.3867 35.1683 43.6299 35.5895 44.0213C37.2742 45.6943 38.9337 47.3179 40.5006 48.8302C40.8839 49.2011 41.145 49.2011 41.5283 48.8302C44.5482 45.888 47.5808 42.9211 50.546 40.0077C50.8872 39.6451 50.883 39.3896 50.5207 39.0064ZM40.9344 47.4663L36.853 43.4609L39.1233 41.3222L39.4139 41.6519L39.6877 41.9692C39.8983 42.2164 40.1088 42.4719 40.3489 42.7068C40.589 42.9417 40.8375 43.1189 40.9976 43.1189C41.1576 43.1189 41.3682 42.987 41.642 42.7068C42.6023 41.7755 43.5542 40.8401 44.5103 39.9047L46.3383 38.1204L46.6542 37.8237L47.1344 37.3787L49.0845 39.4844L40.9344 47.4663Z" fill="#121891"/>
</g>
<defs>
<clipPath id="clip0_1669_4207">
<rect width="38" height="40" fill="white" transform="translate(23 22)"/>
</clipPath>
</defs>
</svg>
