<svg width="83" height="83" viewBox="0 0 83 83" fill="none" xmlns="http://www.w3.org/2000/svg">
<rect width="83" height="83" rx="16" fill="white"/>
<g clip-path="url(#clip0_1909_215)">
<path d="M53.6692 66.0034H31.3471C30.9603 65.7044 30.69 65.3436 30.8472 64.7835C30.9698 64.3437 31.2999 64.165 31.9444 64.165C33.3026 64.165 34.6576 64.165 36.0158 64.165C36.3019 64.165 36.3931 64.0688 36.4371 63.7767C36.6367 62.4958 36.7094 61.1952 36.6541 59.8973C36.6383 59.5331 36.5535 59.4128 36.2013 59.4162C34.0477 59.4334 31.8941 59.4162 29.7405 59.4162C28.0333 59.4162 26.3261 59.4506 24.6221 59.3922C23.8314 59.365 23.0692 59.0623 22.4471 58.5281C21.8249 57.994 21.3752 57.2565 21.1638 56.4233C21.1292 56.303 21.148 56.1415 21.0097 56.0797V28.5525C21.0977 28.5319 21.0946 28.446 21.1166 28.3772C21.7454 26.2296 23.0533 25.1988 25.1157 25.1988C27.1782 25.1988 29.2846 25.1988 31.3691 25.1988C31.7275 25.1988 31.8092 25.0854 31.8061 24.7108C31.7872 23.2127 31.8061 21.7145 31.8061 20.2163C31.8061 19.3023 32.0827 18.9999 32.9096 18.9999C37.9609 18.9999 43.0133 18.9999 48.0667 18.9999C48.2607 18.9925 48.4538 19.031 48.6329 19.1129C48.812 19.1947 48.9728 19.318 49.1042 19.4741C50.3146 20.8142 51.5282 22.1475 52.7574 23.4635C52.9249 23.614 53.0552 23.808 53.1365 24.0276C53.2178 24.2473 53.2474 24.4857 53.2228 24.7212C53.1787 25.0991 53.3014 25.2091 53.6566 25.2057C56.0607 25.1896 58.4711 25.1896 60.8877 25.2057C62.7427 25.2057 64.016 26.6248 64.0317 28.6418C64.0317 29.9407 64.0317 31.243 64.0317 32.5419C64.0317 40.0534 64.0317 47.5637 64.0317 55.0729C64.0542 55.7169 63.9414 56.358 63.7022 56.947C63.463 57.5361 63.1036 58.0575 62.6515 58.4713C61.9081 59.1363 60.9673 59.4799 60.0074 59.4368C56.2724 59.4368 52.5342 59.4368 48.7992 59.4197C48.4125 59.4197 48.3119 59.5433 48.2962 59.9488C48.2588 61.1867 48.3367 62.4255 48.5288 63.6461C48.5886 64.0516 48.7143 64.1856 49.1104 64.1753C50.4812 64.1409 51.852 64.1753 53.2259 64.1753C53.7541 64.1753 54.0748 64.3815 54.2005 64.787C54.3263 65.1924 54.1848 65.5944 53.7352 65.9346C53.6881 65.9415 53.6818 65.9759 53.6692 66.0034ZM42.5081 51.1488C48.9449 51.1488 55.3827 51.1488 61.8215 51.1488C62.2051 51.1488 62.3308 51.0766 62.3308 50.6162C62.3162 43.3521 62.3162 36.0869 62.3308 28.8205C62.3308 27.5629 61.8466 27.0234 60.7085 27.0234C58.3851 27.0234 56.0618 27.0234 53.7384 27.0234C53.3108 27.0234 53.2102 27.1402 53.2133 27.6041C53.2259 34.0183 53.2259 40.4268 53.2133 46.8295C53.2133 47.8947 52.965 48.1662 52.006 48.1662H33.0228C32.0262 48.1662 31.7872 47.905 31.7872 46.8123C31.7872 40.3981 31.7872 33.9736 31.7872 27.5388C31.7872 27.1505 31.7149 27.02 31.3313 27.0234C29.2312 27.0474 27.1341 27.0234 25.0434 27.0234C23.5343 27.0234 22.6823 27.9615 22.6823 29.6143C22.6823 36.6195 22.6823 43.6258 22.6823 50.6334C22.6823 51.056 22.786 51.1488 23.1602 51.1488C29.6053 51.1419 36.0546 51.1419 42.5081 51.1488ZM33.4692 33.559C33.4692 37.6572 33.4692 41.7566 33.4692 45.8571C33.4692 46.1388 33.4692 46.3313 33.8276 46.3313C39.6104 46.3175 45.3901 46.3175 51.1666 46.3313C51.481 46.3313 51.5376 46.2282 51.5376 45.9155C51.5376 39.1691 51.5376 32.4251 51.5376 25.6833C51.5376 25.3603 51.4527 25.2641 51.1603 25.2709C50.2517 25.2881 49.3431 25.2709 48.4314 25.2709C47.7648 25.2709 47.4693 24.9273 47.463 24.1886C47.463 23.2264 47.4441 22.2609 47.463 21.2987C47.463 20.9104 47.3718 20.828 47.026 20.828C42.6454 20.8417 38.2659 20.8417 33.8874 20.828C33.5321 20.828 33.4535 20.9311 33.4535 21.309C33.4724 25.3981 33.4692 29.4837 33.4692 33.559ZM42.5427 52.9803H25.1314C24.4461 52.9803 23.7607 52.9974 23.0753 52.9803C22.7609 52.9803 22.6697 53.0833 22.6823 53.4201C22.7074 54.0626 22.6823 54.7052 22.6823 55.3478C22.694 55.8477 22.8534 56.3301 23.1368 56.7228C23.4201 57.1155 23.8122 57.3974 24.2543 57.5263C24.5691 57.6007 24.8914 57.6307 25.2132 57.6157H59.7622C59.9721 57.6186 60.182 57.6094 60.391 57.5882C60.912 57.5361 61.3967 57.274 61.7506 56.8529C62.1045 56.4318 62.3024 55.8818 62.3057 55.31C62.3057 54.7602 62.3057 54.2104 62.3057 53.6606C62.3057 52.994 62.3057 52.994 61.7146 52.994L42.5427 52.9803ZM42.4704 64.1581C43.8412 64.1581 45.2119 64.1581 46.5827 64.1581C46.8279 64.1581 46.8971 64.0963 46.8405 63.8145C46.5992 62.4941 46.5188 61.1445 46.6016 59.8011C46.6236 59.509 46.567 59.4059 46.2872 59.4059C43.7406 59.4196 41.1939 59.4196 38.6473 59.4059C38.3644 59.4059 38.2921 59.4952 38.3141 59.7976C38.4071 61.0801 38.3468 62.3704 38.1349 63.6358C38.05 64.1203 38.1915 64.165 38.575 64.1547C39.8672 64.1409 41.1657 64.165 42.4704 64.165V64.1581ZM49.1419 22.1921C49.1419 22.5804 49.1419 22.8966 49.1419 23.223C49.1419 23.3742 49.1891 23.4532 49.3337 23.4532H50.2517L49.1419 22.1921Z" fill="#121891"/>
<path d="M42.5079 23.2918C42.9826 23.2918 43.451 23.2918 43.9321 23.2918C44.5986 23.2918 44.8941 23.6354 44.9098 24.3673C44.9287 24.7186 44.9287 25.0709 44.9098 25.4222C44.8753 25.8036 45.023 25.8895 45.3374 25.8654C45.6518 25.8414 46.0385 25.8654 46.3875 25.8654C46.5038 25.8569 46.6203 25.8756 46.7295 25.9201C46.8386 25.9647 46.9379 26.0341 47.0206 26.1238C47.1032 26.2136 47.1675 26.3215 47.209 26.4405C47.2506 26.5594 47.2685 26.6867 47.2615 26.8138C47.2804 27.9272 47.2804 29.0439 47.2615 30.1572C47.267 30.2886 47.2466 30.4197 47.2018 30.5417C47.157 30.6637 47.0889 30.7738 47.0019 30.8646C46.9149 30.9555 46.8112 31.0249 46.6976 31.0682C46.584 31.1116 46.4633 31.1278 46.3435 31.1159C45.9662 31.1159 45.5889 31.1331 45.2117 31.1159C44.9633 31.1159 44.8973 31.2053 44.8973 31.4595C44.914 31.8719 44.914 32.2842 44.8973 32.6966C44.906 32.8312 44.8878 32.9663 44.844 33.0925C44.8002 33.2187 44.7318 33.333 44.6436 33.4275C44.5554 33.5219 44.4494 33.5943 44.3331 33.6396C44.2167 33.6848 44.0928 33.7019 43.9698 33.6896C42.9763 33.6896 41.986 33.6896 40.9925 33.6896C40.8729 33.7001 40.7526 33.6825 40.6397 33.638C40.5269 33.5936 40.424 33.5233 40.3379 33.4319C40.2519 33.3405 40.1848 33.23 40.1409 33.108C40.0971 32.9859 40.0777 32.855 40.0839 32.7241C40.065 32.3418 40.065 31.9587 40.0839 31.5764C40.1059 31.2328 40.0336 31.0781 39.6814 31.1159C39.3464 31.1383 39.0104 31.1383 38.6754 31.1159C38.0874 31.1159 37.7322 30.7723 37.7322 30.14C37.7133 29.0405 37.7165 27.9375 37.7322 26.8379C37.7226 26.7072 37.7392 26.5759 37.7808 26.4529C37.8223 26.33 37.8878 26.2184 37.9728 26.1259C38.0577 26.0334 38.1601 25.9622 38.2727 25.9172C38.3853 25.8722 38.5056 25.8546 38.6251 25.8654C38.9885 25.8448 39.3526 25.8448 39.716 25.8654C40.0304 25.8861 40.1027 25.7555 40.0839 25.4462C40.065 25.137 40.0839 24.759 40.0839 24.3913C40.0839 23.6251 40.3983 23.2986 41.0742 23.2883C41.5552 23.2849 42.0331 23.2918 42.5079 23.2918ZM39.4173 28.4666C39.4252 28.573 39.4252 28.6798 39.4173 28.7862C39.3545 29.1951 39.5085 29.3257 39.8795 29.2879C40.2417 29.2621 40.6051 29.2621 40.9673 29.2879C41.1732 29.2878 41.371 29.3752 41.5188 29.5317C41.6667 29.6882 41.7531 29.9015 41.7596 30.1263C41.7675 30.2946 41.7675 30.4632 41.7596 30.6314C41.7596 31.9337 41.7596 31.9269 42.9417 31.8581C43.1649 31.8581 43.2341 31.7619 43.2278 31.5317C43.2278 31.0884 43.2278 30.6417 43.2278 30.2019C43.2227 30.0785 43.2415 29.9552 43.2829 29.8403C43.3243 29.7253 43.3874 29.6211 43.4681 29.5346C43.5487 29.448 43.6452 29.381 43.7511 29.3379C43.8571 29.2948 43.9702 29.2766 44.083 29.2844C44.2213 29.2844 44.3628 29.2844 44.5011 29.2844C45.6361 29.2844 45.6267 29.2844 45.5795 28.0371C45.5795 27.776 45.4883 27.6935 45.2651 27.6935C44.8721 27.6935 44.4791 27.7141 44.0893 27.6935C43.9731 27.6986 43.8573 27.677 43.7494 27.6299C43.6414 27.5828 43.5438 27.5114 43.4628 27.4203C43.3818 27.3291 43.3193 27.2204 43.2793 27.1011C43.2394 26.9818 43.2229 26.8547 43.231 26.7279C43.231 26.5905 43.231 26.453 43.231 26.3156C43.231 25.0751 43.231 25.0854 42.0929 25.1232C41.8319 25.1232 41.7533 25.2332 41.7627 25.5047C41.7785 25.917 41.7627 26.3293 41.7627 26.7417C41.7692 26.8647 41.7525 26.988 41.7136 27.1037C41.6747 27.2194 41.6145 27.3251 41.5367 27.4144C41.4588 27.5036 41.3651 27.5744 41.2612 27.6224C41.1573 27.6705 41.0455 27.6946 40.9327 27.6935C40.6686 27.7141 40.4014 27.6935 40.1373 27.6935C39.4173 27.6969 39.4173 27.6969 39.4173 28.4666Z" fill="#121891"/>
<path d="M42.4544 37.5897H37.707C37.5386 37.5944 37.3702 37.5817 37.204 37.5518C37.0257 37.5075 36.8665 37.3984 36.7523 37.2424C36.6381 37.0864 36.5756 36.8926 36.5752 36.6928C36.5684 36.4925 36.6241 36.2956 36.7332 36.1345C36.8424 35.9734 36.9984 35.8576 37.1757 35.8063C37.3536 35.7666 37.535 35.7493 37.7165 35.7547H47.2773C47.4589 35.7488 47.6405 35.7673 47.818 35.8097C47.9944 35.8626 48.1491 35.9795 48.2565 36.1413C48.3639 36.3031 48.4178 36.5 48.4091 36.6997C48.4084 36.8986 48.3457 37.0914 48.2314 37.2463C48.1172 37.4012 47.9581 37.5089 47.7803 37.5518C47.6153 37.5833 47.4478 37.596 47.2804 37.5897H42.4544Z" fill="#121891"/>
<path d="M42.4607 40.9674H37.7636C37.6104 40.972 37.4571 40.9663 37.3046 40.9502C37.1151 40.9278 36.9391 40.8326 36.8078 40.6816C36.6765 40.5305 36.5986 40.3335 36.5878 40.1255C36.5665 39.9185 36.6142 39.7101 36.7222 39.5384C36.8302 39.3667 36.9912 39.2434 37.1757 39.1909C37.3384 39.1489 37.5053 39.1293 37.6724 39.1325H47.3181C47.4437 39.1222 47.5698 39.1222 47.6954 39.1325C47.9058 39.1626 48.0976 39.28 48.2311 39.4604C48.3645 39.6408 48.4293 39.8703 48.4122 40.1015C48.4026 40.3252 48.3153 40.5365 48.1681 40.6923C48.0209 40.8481 47.8248 40.9367 47.6199 40.9399C47.2584 40.9605 46.8937 40.9399 46.529 40.9399L42.4607 40.9674Z" fill="#121891"/>
<path d="M42.4575 44.3488H37.6316C37.4507 44.3672 37.2684 44.3425 37.0971 44.2766C36.932 44.207 36.7927 44.0795 36.7011 43.9141C36.6095 43.7487 36.5707 43.5547 36.5909 43.3626C36.5975 43.1615 36.6679 42.9692 36.7901 42.8187C36.9123 42.6682 37.0787 42.5689 37.2606 42.5379C37.3974 42.5109 37.5369 42.5028 37.6756 42.5138H47.5319C47.6476 42.5077 47.7631 42.5276 47.8714 42.5724C47.9797 42.6172 48.0783 42.686 48.1612 42.7743C48.2441 42.8626 48.3095 42.9687 48.3532 43.0859C48.3969 43.2031 48.4181 43.3288 48.4154 43.4553C48.4144 43.5784 48.3903 43.6999 48.3446 43.8124C48.299 43.9249 48.2327 44.026 48.1499 44.1094C48.0671 44.1928 47.9696 44.2567 47.8633 44.2973C47.757 44.3379 47.6442 44.3542 47.5319 44.3453C46.4001 44.3453 45.2651 44.3453 44.1333 44.3453L42.4575 44.3488Z" fill="#121891"/>
</g>
<defs>
<clipPath id="clip0_1909_215">
<rect width="43" height="47" fill="white" transform="translate(21 19)"/>
</clipPath>
</defs>
</svg>
