<svg width="66" height="66" viewBox="0 0 66 66" fill="none" xmlns="http://www.w3.org/2000/svg">
<g filter="url(#filter0_d_1605_661)">
<rect x="-1" y="1" width="42" height="42" rx="21" transform="matrix(-1 -8.74228e-08 -8.74228e-08 1 53 7)" stroke="#121891" stroke-width="2" shape-rendering="crispEdges"/>
</g>
<g clip-path="url(#clip0_1605_661)">
<path d="M25.2555 27.8384L26.171 26.9213L26.8115 26.2797L31.4165 21.6665L33.609 23.8629L30.556 26.9213L41.3809 26.9213L41.3809 30.0308L30.556 30.0308L33.609 33.0892L31.4165 35.2856L26.8115 30.6724L26.171 30.0308L25.2555 29.1137L24.619 28.476L25.2555 27.8384Z" fill="#121891"/>
</g>
<defs>
<filter id="filter0_d_1605_661" x="0" y="0" width="66" height="66" filterUnits="userSpaceOnUse" color-interpolation-filters="sRGB">
<feFlood flood-opacity="0" result="BackgroundImageFix"/>
<feColorMatrix in="SourceAlpha" type="matrix" values="0 0 0 0 0 0 0 0 0 0 0 0 0 0 0 0 0 0 127 0" result="hardAlpha"/>
<feOffset dy="4"/>
<feGaussianBlur stdDeviation="5.5"/>
<feComposite in2="hardAlpha" operator="out"/>
<feColorMatrix type="matrix" values="0 0 0 0 1 0 0 0 0 1 0 0 0 0 1 0 0 0 0.25 0"/>
<feBlend mode="normal" in2="BackgroundImageFix" result="effect1_dropShadow_1605_661"/>
<feBlend mode="normal" in="SourceGraphic" in2="effect1_dropShadow_1605_661" result="shape"/>
</filter>
<clipPath id="clip0_1605_661">
<rect width="16.7619" height="13.619" fill="white" transform="matrix(-1 -8.74228e-08 -8.74228e-08 1 41.3809 21.6665)"/>
</clipPath>
</defs>
</svg>
