<svg width="83" height="83" viewBox="0 0 83 83" fill="none" xmlns="http://www.w3.org/2000/svg">
<rect width="83" height="83" rx="16" fill="white"/>
<g clip-path="url(#clip0_1669_4208)">
<path d="M31.6067 44.0313C31.7501 43.7126 31.8584 43.445 31.9795 43.1869C32.9545 41.1253 34.589 39.9431 36.8543 39.9176C42.6245 39.8571 48.3978 39.8698 54.168 39.9176C55.5099 39.95 56.7924 40.4776 57.7688 41.3988C58.7452 42.3199 59.3465 43.5697 59.457 44.9075C59.4444 45.1009 59.5018 45.2924 59.6188 45.4469C59.7359 45.6014 59.9046 45.7086 60.0942 45.7487C60.9499 46.0152 61.6942 46.5558 62.2124 47.2871C62.7306 48.0183 62.9939 48.8998 62.9618 49.7955C62.9788 53.2941 62.9788 56.7928 62.9618 60.2915C62.9618 61.8847 61.8976 63.0063 60.4829 62.9999C59.0683 62.9936 58.0742 61.8879 58.0678 60.2628C58.0678 59.1858 58.0137 58.1024 58.0678 57.0286C58.1188 56.2129 57.8416 55.9867 57.0387 55.9898C50.3477 56.0185 43.6313 56.009 36.9276 56.009C33.5439 56.009 30.1634 56.0313 26.7829 56.009C26.0501 56.009 25.827 56.2225 25.827 56.9649C25.878 58.0992 25.8557 59.2368 25.843 60.3743C25.8207 61.9293 24.7405 63.0541 23.3131 63.0382C21.8857 63.0222 20.949 61.9484 20.9458 60.3552C20.9458 52.368 20.9458 44.3807 20.9458 36.3935C20.9458 34.762 22.0196 33.6149 23.4725 33.6436C24.9253 33.6723 25.9609 34.7811 25.8047 36.4253C25.6422 38.1651 26.203 39.3791 27.5699 40.4434C28.9367 41.5076 30.2526 42.7822 31.6067 44.0313ZM59.4825 47.0998C59.4825 48.3743 59.4825 49.6043 59.4825 50.847C59.4825 51.5066 59.1925 51.8029 58.5266 51.8029C49.839 51.8029 41.1504 51.8029 32.4606 51.8029C31.7501 51.8029 31.4602 51.4843 31.4697 50.7928C31.4857 49.4513 31.4474 48.1067 31.492 46.7684C31.5184 46.4832 31.474 46.1959 31.3628 45.9319C31.2517 45.6679 31.0772 45.4353 30.8548 45.2549C29.4561 44.0217 28.0956 42.7408 26.7383 41.4598C24.046 38.9107 24.5335 39.9367 24.4825 36.4094C24.4825 35.5013 24.0746 34.9468 23.4183 35.0169C22.6281 35.0998 22.3796 35.6542 22.3796 36.3807C22.3796 44.3404 22.3796 52.3 22.3796 60.2596C22.3796 61.1104 22.7843 61.5979 23.4279 61.5852C24.0715 61.5724 24.4634 61.0467 24.4729 60.2246C24.4729 59.001 24.4729 57.7742 24.4729 56.5507C24.4729 55.2761 25.1548 54.6006 26.4228 54.5974C36.7758 54.5974 47.1265 54.5974 57.4752 54.5974C58.7943 54.5974 59.4506 55.2729 59.4602 56.6048C59.4602 57.8571 59.4602 59.1125 59.4602 60.3648C59.4602 61.0403 59.7405 61.5023 60.4447 61.5788C61.0373 61.6457 61.5503 61.1168 61.5535 60.3807C61.5535 56.7673 61.579 53.1508 61.5535 49.5469C61.5599 48.3106 60.7346 47.3961 59.4825 47.0998ZM58.0551 50.3754C58.0551 48.4922 58.157 46.6855 58.0264 44.8948C57.9386 43.9218 57.4921 43.0162 56.7736 42.3542C56.0551 41.6922 55.1162 41.3212 54.1393 41.3133C48.3681 41.2793 42.5969 41.2793 36.8257 41.3133C35.7764 41.3382 34.7783 41.7717 34.044 42.5216C33.3096 43.2715 32.897 44.2785 32.8939 45.3281C32.8716 46.1725 32.8939 47.0169 32.8939 47.8773V50.3818L58.0551 50.3754Z" fill="#121891"/>
<path d="M49.6914 28.7176C49.6847 30.7516 48.874 32.7005 47.4361 34.139C45.9982 35.5776 44.0498 36.3892 42.0159 36.3968C39.9808 36.3977 38.0277 35.5946 36.5819 34.1624C35.136 32.7301 34.3143 30.7846 34.2959 28.7494C34.2879 27.735 34.4805 26.729 34.8625 25.7892C35.2446 24.8495 35.8087 23.9945 36.5222 23.2735C37.2358 22.5524 38.0848 21.9796 39.0205 21.5878C39.9562 21.196 40.9601 20.993 41.9745 20.9905C42.9897 20.9871 43.9954 21.1848 44.9338 21.572C45.8722 21.9593 46.7247 22.5285 47.4421 23.2468C48.1595 23.9651 48.7276 24.8183 49.1136 25.7573C49.4997 26.6962 49.696 27.7023 49.6914 28.7176ZM35.7041 28.6443C35.6897 30.3101 36.3363 31.9136 37.5021 33.1034C38.6679 34.2932 40.2579 34.9722 41.9235 34.9916C43.5896 35.0086 45.1948 34.3659 46.3887 33.2035C47.5826 32.0412 48.2682 30.4537 48.2959 28.7877C48.3163 27.1242 47.6778 25.5203 46.5196 24.3263C45.3614 23.1322 43.7778 22.445 42.1147 22.4148C41.2837 22.3988 40.4577 22.5477 39.6846 22.8528C38.9115 23.1579 38.2065 23.6133 37.6104 24.1925C37.0142 24.7718 36.5389 25.4635 36.2117 26.2276C35.8845 26.9917 35.712 27.8131 35.7041 28.6443Z" fill="#121891"/>
<path d="M34.2927 37.101C34.2927 38.0306 33.9234 38.9221 33.2662 39.5794C32.6089 40.2368 31.7174 40.606 30.7879 40.606C29.8584 40.606 28.9669 40.2368 28.3096 39.5794C27.6524 38.9221 27.2831 38.0306 27.2831 37.101C27.2831 36.1714 27.6524 35.2799 28.3096 34.6226C28.9669 33.9652 29.8584 33.5959 30.7879 33.5959C31.7174 33.5959 32.6089 33.9652 33.2662 34.6226C33.9234 35.2799 34.2927 36.1714 34.2927 37.101ZM32.8907 37.1329C32.8982 36.5897 32.6955 36.0647 32.325 35.6675C31.9545 35.2702 31.4449 35.0315 30.9026 35.0012C30.3446 34.9769 29.7999 35.175 29.3877 35.5519C28.9756 35.9288 28.7298 36.4538 28.7041 37.0118C28.6944 37.2884 28.7392 37.5643 28.8361 37.8236C28.9329 38.0828 29.08 38.3205 29.2688 38.5229C29.4576 38.7253 29.6844 38.8886 29.9363 39.0032C30.1882 39.1179 30.4603 39.1818 30.7369 39.1913C31.0136 39.198 31.2889 39.1501 31.5471 39.0503C31.8052 38.9504 32.0411 38.8005 32.2412 38.6093C32.4413 38.4181 32.6017 38.1892 32.7131 37.9358C32.8246 37.6825 32.885 37.4096 32.8907 37.1329Z" fill="#121891"/>
<path d="M39.8971 30.7949C39.1771 30.7949 38.594 30.7949 38.0141 30.7949C37.4342 30.7949 37.0933 30.5241 37.0965 29.8995C37.0965 29.0838 37.0965 28.2681 37.0965 27.4492C37.0806 27.3322 37.092 27.2131 37.1298 27.1012C37.1677 26.9894 37.2309 26.8878 37.3145 26.8045C37.3981 26.7211 37.4999 26.6583 37.6119 26.6209C37.7239 26.5835 37.843 26.5725 37.9599 26.5888H39.8971C39.8971 25.9324 39.8971 25.3334 39.8971 24.7312C39.8971 24.0684 40.2157 23.7752 40.853 23.7752C41.6113 23.7912 42.3696 23.8007 43.1279 23.7752C43.8862 23.7498 44.1252 24.0939 44.1028 24.7917C44.0805 25.343 44.1028 25.8942 44.1028 26.5793C44.7401 26.5793 45.3423 26.5952 45.9381 26.5793C46.5753 26.5633 46.9194 26.8406 46.8939 27.5129C46.878 28.2713 46.8716 29.0296 46.8939 29.7848C46.913 30.4858 46.6072 30.814 45.903 30.7885C45.3263 30.7694 44.7496 30.7885 44.0869 30.7885C44.0869 31.4768 44.0869 32.0822 44.0869 32.7004C44.0869 33.3185 43.7938 33.6053 43.1757 33.5989C42.3876 33.5989 41.6006 33.5989 40.8147 33.5989C40.1424 33.5989 39.8589 33.2803 39.8844 32.6271C39.9099 32.0503 39.8971 31.4736 39.8971 30.7949ZM42.6978 32.1523C42.6978 31.515 42.6978 30.9064 42.6978 30.301C42.6978 29.6956 42.9813 29.3865 43.6026 29.3961C44.2239 29.4056 44.8102 29.3961 45.441 29.3961V27.9972C44.8038 27.9972 44.2239 27.9972 43.6472 27.9972C42.9877 27.9972 42.6914 27.7105 42.6914 27.0413C42.6914 26.4391 42.6914 25.8368 42.6914 25.2219H41.2927C41.2927 25.8337 41.2927 26.4104 41.2927 26.984C41.3181 27.6818 41.0155 28.01 40.3049 27.9845C39.7314 27.9654 39.1547 27.9845 38.5494 27.9845V29.3865C39.1866 29.3865 39.7601 29.3865 40.3368 29.3865C40.9932 29.3865 41.3086 29.6669 41.2927 30.3424C41.2927 30.9415 41.2927 31.5437 41.2927 32.1555L42.6978 32.1523Z" fill="#121891"/>
</g>
<defs>
<clipPath id="clip0_1669_4208">
<rect width="42" height="42" fill="white" transform="translate(21 21)"/>
</clipPath>
</defs>
</svg>
