<svg width="83" height="83" viewBox="0 0 83 83" fill="none" xmlns="http://www.w3.org/2000/svg">
<rect width="83" height="83" rx="16" fill="white"/>
<g clip-path="url(#clip0_1669_4206)">
<path d="M28.6775 58.9999C28.6775 57.1219 28.7431 55.2439 28.6775 53.3658C28.649 52.4472 28.8074 51.5323 29.1434 50.6761C29.4793 49.8199 29.9859 49.0399 30.6326 48.3831C32.2147 46.6735 34.1895 45.3699 36.3885 44.5836L36.9947 44.3502C34.6574 42.6893 33.4395 40.491 33.4941 37.6902C33.5005 36.6982 33.71 35.7178 34.11 34.8089C34.5099 33.9 35.092 33.0816 35.8205 32.4035C36.5462 31.6969 37.4056 31.1403 38.349 30.766C39.2924 30.3916 40.3012 30.2069 41.3169 30.2226C42.3326 30.2382 43.3351 30.4539 44.2664 30.8571C45.1977 31.2604 46.0393 31.8432 46.7426 32.5718C47.5184 33.3815 48.1089 34.3485 48.4737 35.4063C48.8384 36.4641 48.9686 37.5878 48.8556 38.7003C48.7425 39.8129 48.3887 40.888 47.8185 41.8519C47.2483 42.8159 46.4752 43.6459 45.5521 44.285C46.049 44.475 46.5241 44.6379 46.9829 44.8278C49.3692 45.7578 51.3937 47.422 52.7606 49.5772C53.3982 50.6017 53.7261 51.7868 53.7054 52.9913C53.7054 54.9942 53.7054 57.0025 53.7054 59.0053L28.6775 58.9999ZM30.0919 57.529H52.2746V57.035C52.2746 55.8626 52.2254 54.6902 52.2746 53.5232C52.3113 52.6246 52.1506 51.7289 51.8035 50.8983C51.4564 50.0678 50.9314 49.3224 50.2649 48.7142C48.6801 47.1566 46.7096 46.0425 44.5527 45.4846C43.7663 45.2621 42.9908 45.0178 42.128 44.7573C43.04 44.1493 43.8865 43.6011 44.7111 43.0312C45.7908 42.2957 46.6123 41.2432 47.0607 40.0209C47.5092 38.7986 47.5621 37.4675 47.2122 36.2138C46.8671 34.9654 46.1396 33.8547 45.1308 33.0358C44.1219 32.2169 42.8816 31.7303 41.5819 31.6436C40.3811 31.5337 39.1748 31.7856 38.12 32.3664C37.0652 32.9472 36.2107 33.8302 35.6677 34.9003C34.3843 37.2397 34.6301 39.5411 36.2138 41.7014C36.9145 42.5384 37.7712 43.2332 38.7367 43.7477C39.2392 44.0625 39.7306 44.3827 40.304 44.7518C39.4685 45.0232 38.7367 45.2946 37.994 45.5063C35.6146 46.1756 33.4604 47.4693 31.7576 49.2515C31.1922 49.7999 30.7504 50.4614 30.4614 51.1922C30.1723 51.9229 30.0427 52.7064 30.081 53.4907C30.1575 54.6739 30.081 55.8626 30.081 57.0513L30.0919 57.529Z" fill="#121891"/>
<path d="M21.4199 52.6983H21.966C23.6534 52.6983 25.3464 52.6983 27.0338 52.6983C27.3888 52.6983 27.5253 52.796 27.4925 53.1542C27.4597 53.5125 27.4925 53.735 27.4925 54.0498H20.0273C20.0273 53.887 20.0273 53.7242 20.0273 53.5613C20.0273 51.6562 20.0601 49.7618 20.0273 47.8458C20 45.9654 20.6751 44.1417 21.9223 42.7274C23.2394 41.1785 24.9042 39.9588 26.7826 39.1667L27.0939 39.0256C27.0939 39.0256 27.1321 38.9876 27.1758 38.9387C26.1336 37.9591 25.3736 36.7206 24.9743 35.3513C24.5749 33.982 24.5506 32.5315 24.904 31.1498C25.1379 30.1123 25.5845 29.1338 26.2159 28.2756C26.8473 27.4173 27.65 26.6977 28.5738 26.1616C32.2982 23.8928 37.4097 25.076 39.6105 28.7398L38.5183 29.4563C37.9618 28.6002 37.2166 27.8811 36.3391 27.3535C35.4617 26.8259 34.475 26.5036 33.4537 26.4111C32.4324 26.3185 31.4034 26.4581 30.4444 26.8192C29.4854 27.1804 28.6216 27.7536 27.9185 28.4956C27.1615 29.2854 26.6151 30.2508 26.329 31.304C26.0429 32.3571 26.0261 33.4647 26.2802 34.5259C26.7662 36.8002 28.2734 38.2928 30.3868 39.4109L28.9561 39.8506C26.6292 40.4926 24.5511 41.8167 22.9926 43.6501C21.9485 44.8128 21.3865 46.3256 21.4199 47.8838C21.4581 49.4633 21.4199 51.0428 21.4199 52.6983Z" fill="#121891"/>
<path d="M52.8753 39.4543C53.6564 38.9067 54.3974 38.3045 55.0924 37.6522C55.9726 36.796 56.5828 35.7036 56.8485 34.5083C57.1143 33.3131 57.024 32.0668 56.5888 30.9217C56.2268 29.7332 55.5214 28.6766 54.5602 27.8833C53.5989 27.0901 52.4243 26.5951 51.1824 26.46C48.5229 26.0801 46.3821 27.0788 44.7602 29.2065C44.7056 29.2825 44.6401 29.3531 44.5527 29.4562L43.395 28.7289C44.0298 27.6995 44.8974 26.8314 45.9288 26.1936C46.9602 25.5557 48.127 25.1656 49.3365 25.0542C52.7442 24.734 55.502 26.0095 57.2004 28.9677C59.2647 32.5555 58.5929 35.9262 55.8788 38.9549C56.556 39.3132 57.2495 39.6334 57.9049 40.0405C59.7614 41.083 61.2778 42.6335 62.2737 44.5076C62.7424 45.4152 62.9929 46.4185 63.0055 47.4386C63.0055 49.5555 63.0055 51.6723 63.0055 53.7946C63.0055 53.8761 63.0055 53.9575 63.0055 54.0606H55.5621C55.5621 53.6698 55.5621 53.2844 55.5621 52.899C55.5621 52.823 55.8188 52.7253 55.9553 52.7253C57.6591 52.7253 59.363 52.7253 61.0722 52.7253H61.6183V52.2151C61.6183 50.8636 61.5583 49.5012 61.6183 48.1497C61.658 47.1946 61.4885 46.2423 61.1218 45.3586C60.755 44.4749 60.1996 43.6808 59.494 43.0312C57.8764 41.4226 55.8551 40.2738 53.6398 39.704L52.9463 39.4977C52.9026 39.4923 52.8862 39.4651 52.8753 39.4543Z" fill="#121891"/>
</g>
<defs>
<clipPath id="clip0_1669_4206">
<rect width="43" height="34" fill="white" transform="translate(20 25)"/>
</clipPath>
</defs>
</svg>
