<svg width="83" height="83" viewBox="0 0 83 83" fill="none" xmlns="http://www.w3.org/2000/svg">
<rect width="83" height="83" rx="16" fill="white"/>
<g clip-path="url(#clip0_1669_4211)">
<path d="M60.9851 57.0594C60.9595 57.2819 60.8548 57.4868 60.691 57.635C60.5272 57.7833 60.3158 57.8644 60.0972 57.8628C59.8793 57.8519 59.6729 57.7588 59.5179 57.6013C59.3629 57.4439 59.2702 57.2332 59.2576 57.0099C59.2483 56.8324 59.2483 56.6544 59.2576 56.4769V28.084C59.2576 27.0445 59.0124 26.7932 58.0131 26.7932H23.9795C22.9801 26.7932 22.7424 27.0407 22.7424 28.084C22.7424 37.0241 22.7424 45.963 22.7424 54.9006C22.7424 55.9667 22.9838 56.2103 24.024 56.2103H59.7666C59.9383 56.1932 60.1113 56.1932 60.283 56.2103C60.4863 56.2285 60.6755 56.3243 60.8132 56.4788C60.9508 56.6332 61.0268 56.835 61.026 57.0442C61.048 57.2415 60.998 57.4403 60.8854 57.602C60.7729 57.7637 60.6059 57.877 60.4167 57.9199C60.2155 57.965 60.0097 57.9855 59.8037 57.9809C57.7122 57.9809 38.5871 57.9809 36.4955 57.9809H36.2503H34.0213H23.9497C22.0699 57.9809 21.026 56.9186 21.026 54.9995V27.966C21.026 26.0432 22.0662 24.9771 23.9423 24.9771H58.08C59.9746 24.9771 61.0223 26.0584 61.0223 28.0231C61.0223 36.4492 61.0223 48.1498 61.0223 56.5797C61.0213 56.7403 61.0089 56.9007 60.9851 57.0594Z" fill="#121891"/>
<path d="M42.7331 36.2856C42.7331 37.0678 42.5821 37.8422 42.2888 38.5643C41.9955 39.2864 41.5657 39.9419 41.0241 40.493C39.0849 42.5033 37.1456 44.5213 35.1655 46.4937C34.0731 47.5893 32.6008 48.1956 31.0724 48.1792C29.544 48.1627 28.0845 47.525 27.0147 46.4061C25.9439 45.3006 25.343 43.806 25.343 42.2482C25.343 40.6905 25.9439 39.1959 27.0147 38.0904C28.9539 36.0597 30.9192 34.0481 32.9105 32.0554C33.6408 31.2762 34.5753 30.7298 35.6014 30.4819C36.6276 30.234 37.7018 30.2952 38.6948 30.6581C40.8384 31.351 42.1387 32.9236 42.6105 35.1852C42.6773 35.5431 42.6773 35.9201 42.7331 36.2856ZM32.0188 35.7754L37.5617 41.4867C38.3307 40.7252 39.1666 39.9409 39.9208 39.0956C40.6099 38.3356 40.9929 37.3365 40.9929 36.2989C40.9929 35.2614 40.6099 34.2623 39.9208 33.5023C38.5351 31.9526 36.15 31.6518 34.5822 32.9883C33.6015 33.7993 32.8287 34.8692 32.0188 35.7754ZM36.1054 42.8308L30.5031 37.0852C29.7341 37.8467 28.8833 38.6387 28.118 39.4954C27.438 40.264 27.0668 41.268 27.0792 42.3055C27.0917 43.343 27.4867 44.3373 28.1849 45.0887C28.8711 45.8517 29.8165 46.3164 30.8267 46.3872C31.8368 46.458 32.8351 46.1296 33.6163 45.4694C34.4937 44.6384 35.3247 43.7575 36.1054 42.8308Z" fill="#121891"/>
<path d="M47.7224 30.3685C49.9685 30.3189 52.1471 31.1566 53.807 32.7082C55.4668 34.2599 56.4807 36.4064 56.6385 38.7033C56.7835 40.9095 56.1173 43.0915 54.7709 44.8195C53.4246 46.5474 51.4959 47.6961 49.3645 48.0394C45.9169 48.5915 43.0897 47.3768 40.9461 44.5478C40.7493 44.3306 40.6404 44.0447 40.6415 43.7483C40.7351 43.4269 40.9452 43.1545 41.2285 42.9867C41.3979 42.914 41.5868 42.9043 41.7625 42.9592C41.9383 43.0141 42.0897 43.1303 42.1907 43.2875C42.6322 43.8514 43.118 44.3774 43.6433 44.8601C44.7564 45.7746 46.1191 46.3123 47.5433 46.3989C48.9674 46.4855 50.3826 46.1168 51.5935 45.3436C52.7984 44.5804 53.7482 43.4596 54.3169 42.1301C54.8855 40.8005 55.0461 39.3252 54.7773 37.8999C54.5022 36.4755 53.8107 35.1707 52.7948 34.1587C51.7789 33.1467 50.4866 32.4755 49.0895 32.2342C47.648 31.9954 46.1696 32.216 44.8544 32.8663C44.5715 33.0139 44.2436 33.0426 43.9405 32.9462C43.8075 32.8668 43.6945 32.7566 43.6107 32.6243C43.5268 32.4921 43.4743 32.3415 43.4575 32.1847C43.4838 32.0183 43.5448 31.8596 43.6365 31.7196C43.7282 31.5796 43.8484 31.4616 43.9888 31.3737C45.1276 30.7135 46.414 30.3672 47.7224 30.3685Z" fill="#121891"/>
<path d="M35.3661 51.7518H56.0515C56.2061 51.7383 56.3614 51.7383 56.5159 51.7518C56.7161 51.7696 56.9027 51.8627 57.0399 52.0131C57.1771 52.1636 57.2551 52.3607 57.2589 52.5666C57.2867 52.7716 57.2372 52.9798 57.1206 53.1488C57.004 53.3178 56.829 53.435 56.6311 53.4766C56.4418 53.527 56.2472 53.5539 56.0515 53.5565C49.6468 53.5565 32.1786 53.5565 25.7701 53.5565C24.9231 53.5565 24.4959 53.2595 24.4884 52.6694C24.481 52.0792 24.9082 51.767 25.7478 51.767L35.3661 51.7518Z" fill="#121891"/>
<path d="M45.3893 41.6847L51.508 36.9824C51.5786 36.9291 51.6455 36.872 51.7161 36.8225C51.8079 36.7413 51.9152 36.6806 52.0311 36.6441C52.147 36.6076 52.2691 36.5962 52.3895 36.6105C52.51 36.6248 52.6262 36.6646 52.7309 36.7273C52.8356 36.79 52.9265 36.8743 52.9978 36.9748C53.065 37.0728 53.1124 37.1836 53.1373 37.3007C53.1621 37.4178 53.1639 37.5388 53.1424 37.6566C53.1209 37.7743 53.0767 37.8865 53.0123 37.9865C52.9479 38.0866 52.8647 38.1723 52.7674 38.2389C52.1136 38.7605 51.4412 39.2593 50.7799 39.7619L46.1026 43.36C45.4451 43.8626 45.0996 43.8398 44.5237 43.2572C44.0482 42.7699 43.569 42.2863 43.0971 41.7913C42.6253 41.2963 42.6365 40.7976 43.0006 40.4282C43.3646 40.0589 43.881 40.0817 44.3268 40.5348C44.6798 40.9042 45.0178 41.2811 45.3893 41.6847Z" fill="#121891"/>
<path d="M26.2011 30.3572C26.2011 30.9778 26.2011 31.4994 26.2011 32.0325C26.2128 32.1557 26.1999 32.28 26.1631 32.3979C26.1263 32.5159 26.0665 32.6248 25.9872 32.7182C25.9079 32.8116 25.8108 32.8874 25.702 32.941C25.5931 32.9947 25.4747 33.0249 25.354 33.03C25.2326 33.0303 25.1124 33.005 25.0009 32.9557C24.8894 32.9065 24.7889 32.8343 24.7057 32.7436C24.6224 32.653 24.5582 32.5458 24.517 32.4287C24.4758 32.3117 24.4585 32.1871 24.4661 32.0629C24.4661 31.2177 24.4439 30.3686 24.4661 29.5233C24.4556 29.3941 24.4735 29.2641 24.5184 29.1429C24.5634 29.0216 24.6342 28.9123 24.7258 28.8228C24.8174 28.7333 24.9273 28.666 25.0476 28.6258C25.1679 28.5856 25.2955 28.5735 25.4209 28.5904C26.2308 28.5904 27.037 28.5904 27.8468 28.5904C28.445 28.5904 28.7942 28.9293 28.7979 29.4662C28.8016 30.0031 28.4561 30.3381 27.8543 30.3572C27.3305 30.3686 26.7992 30.3572 26.2011 30.3572Z" fill="#121891"/>
<path d="M28.6233 42.1909C28.631 41.5569 28.8741 40.9497 29.3032 40.4928C29.374 40.4031 29.4616 40.3288 29.5608 40.2742C29.6599 40.2196 29.7687 40.1858 29.8808 40.1748C29.9929 40.1639 30.106 40.1759 30.2135 40.2102C30.321 40.2445 30.4207 40.3005 30.5068 40.3748C30.5993 40.4418 30.6769 40.5281 30.7346 40.628C30.7923 40.7279 30.8288 40.8391 30.8418 40.9544C30.8547 41.0697 30.8439 41.1865 30.8098 41.2973C30.7758 41.408 30.7194 41.5101 30.6443 41.597C30.4726 41.7733 30.3761 42.0122 30.3761 42.2614C30.3761 42.5105 30.4726 42.7495 30.6443 42.9258C30.7186 43.0133 30.7739 43.116 30.8068 43.227C30.8396 43.3381 30.8491 43.4549 30.8347 43.57C30.8203 43.6851 30.7824 43.7957 30.7233 43.8947C30.6642 43.9937 30.5854 44.0787 30.492 44.1442C30.3211 44.2836 30.1045 44.3507 29.8869 44.3316C29.6692 44.3124 29.467 44.2086 29.3217 44.0414C29.0922 43.7953 28.9123 43.5051 28.7924 43.1876C28.6726 42.87 28.6151 42.5313 28.6233 42.1909Z" fill="#121891"/>
</g>
<defs>
<clipPath id="clip0_1669_4211">
<rect width="40" height="33" fill="white" transform="translate(21 25)"/>
</clipPath>
</defs>
</svg>
