<svg width="83" height="83" viewBox="0 0 83 83" fill="none" xmlns="http://www.w3.org/2000/svg">
<rect width="83" height="83" rx="16" fill="white"/>
<g clip-path="url(#clip0_1669_4210)">
<path d="M56.2088 61.2425H59.3547C61.0636 61.2425 61.9815 62.1877 61.9846 63.9457C61.9846 64.3585 61.9846 64.7712 61.9846 65.1839C61.9876 65.2918 61.9689 65.3991 61.9297 65.4993C61.8905 65.5996 61.8316 65.6905 61.7566 65.7667C61.6816 65.8428 61.5922 65.9025 61.4937 65.9421C61.3953 65.9817 61.2899 66.0003 61.1842 65.9968C61.0544 65.9968 60.9246 65.9968 60.7948 65.9968H32.083C31.091 65.9968 30.8932 65.7952 30.8932 64.7838C30.8932 64.5045 30.8932 64.224 30.8932 63.9426C30.8932 62.1845 31.8203 61.2425 33.52 61.2393H40.9706V54.1094H35.813C35.0435 54.1094 34.7839 53.8511 34.7808 53.0823C34.7808 52.4238 34.7808 51.7622 34.7808 51.1037C34.7808 50.4452 35.062 50.1585 35.6894 50.1585C40.7904 50.1585 45.8914 50.1585 50.9924 50.1585C51.5919 50.1585 51.8732 50.4578 51.8793 51.0785C51.8793 51.7717 51.8793 52.4658 51.8793 53.1611C51.8793 53.8322 51.5919 54.1063 50.9213 54.1063H45.6957V54.9254C47.9423 54.7333 49.7347 55.5556 51.0511 57.4932C51.1595 57.4038 51.2627 57.3081 51.3602 57.2065C55.5733 52.5205 56.7568 47.1413 54.9109 41.0689C54.8864 40.9263 54.8123 40.7975 54.7022 40.706C54.5921 40.6146 54.4533 40.5667 54.3114 40.5711C53.9311 40.5201 53.5537 40.4496 53.1803 40.36C53.0135 40.9902 52.8435 41.6203 52.6766 42.2504C52.4139 43.2397 52.2378 43.3469 51.2736 43.1263C51.15 43.1011 51.0233 43.0854 50.8657 43.057C50.6927 43.6871 50.5289 44.3173 50.3651 44.9285C50.1055 45.8737 49.9201 45.9997 48.9868 45.7854L48.5635 45.6846C48.378 46.3809 48.2019 47.0615 48.0165 47.7388C47.8125 48.4824 47.5437 48.6462 46.8144 48.4572C45.9398 48.2303 45.0622 47.9972 44.1876 47.7609C43.5232 47.5845 43.3316 47.241 43.5047 46.5511C43.6777 45.8611 43.8601 45.1837 44.0486 44.4496C43.8168 44.3834 43.6159 44.3362 43.4305 44.2763C43.3089 44.2581 43.193 44.2121 43.0914 44.1417C42.9898 44.0712 42.9052 43.9783 42.8439 43.8697C42.7827 43.7611 42.7463 43.6398 42.7377 43.5149C42.729 43.3899 42.7482 43.2646 42.7939 43.1484C42.9731 42.4363 43.1647 41.7243 43.3563 40.9902C43.1616 40.9272 43.0102 40.8767 42.8557 40.8358C42.1233 40.6373 41.9286 40.3096 42.1264 39.5755C42.6559 37.5528 43.1864 35.5312 43.7179 33.5106C44.4884 30.5847 45.2599 27.6567 46.0325 24.7266C46.2303 23.9767 46.5362 23.8034 47.2841 24.0019C47.9392 24.1752 48.5913 24.3548 49.2959 24.5438C49.4287 24.0334 49.5523 23.5608 49.6914 23.0347L48.3286 22.6377C47.7106 22.455 47.5251 22.1304 47.6889 21.4909C47.9238 20.5677 48.1617 19.6414 48.412 18.7214C48.582 18.0913 48.9281 17.896 49.5462 18.063C51.9545 18.7162 54.3598 19.3736 56.762 20.0353C57.38 20.2086 57.5778 20.5488 57.4202 21.179C57.1915 22.1052 56.9505 23.0284 56.7033 23.9484C56.5333 24.5785 56.2057 24.7581 55.5784 24.61L54.3052 24.2949C54.2684 24.2995 54.2321 24.3079 54.197 24.3201L53.7984 25.7663L55.6526 26.2798C56.5951 26.535 56.7465 26.8091 56.49 27.7764C56.3376 28.3456 56.1882 28.918 56.0419 29.4935C56.0369 29.5385 56.0369 29.584 56.0419 29.629C56.1625 29.6668 56.2953 29.714 56.4313 29.7518C57.1276 29.9505 57.7782 30.2882 58.3453 30.7454C58.9125 31.2026 59.3849 31.7701 59.7351 32.415C60.0853 33.0599 60.3063 33.7693 60.3853 34.502C60.4643 35.2348 60.3997 35.9762 60.1953 36.6832C60.127 36.9427 60.1367 37.2171 60.2231 37.4709C63.4679 45.9776 62.2225 53.7597 56.5518 60.814C56.4746 60.9211 56.3819 61.0345 56.2088 61.2425ZM47.3923 25.656C46.1747 30.2748 44.9726 34.837 43.7612 39.4401L51.2644 41.4911C51.4158 40.9335 51.5301 40.4388 51.6877 39.9568C51.7345 39.8382 51.7384 39.7066 51.6988 39.5854C51.6591 39.4643 51.5786 39.3614 51.4714 39.2951C49.7903 37.7608 49.1537 35.8294 49.7563 33.624C50.3589 31.4185 51.8453 30.0858 54.0642 29.6227C54.2001 29.5943 54.3979 29.4998 54.435 29.3927C54.608 28.8508 54.744 28.2962 54.8893 27.7165C52.3769 27.0265 49.9139 26.3523 47.3923 25.656ZM56.3973 40.6089C57.3779 43.478 57.5828 46.5633 56.9907 49.541C56.3222 53.0658 54.5941 56.2911 52.0462 58.7692C51.9195 58.8953 51.7619 59.0843 51.7681 59.2387C51.7959 59.8909 51.8793 60.543 51.9473 61.2425C52.4943 61.2425 53.0567 61.2708 53.6161 61.2425C53.8633 61.229 54.0987 61.1301 54.2836 60.9621C59.537 55.501 61.4128 49.0285 59.911 41.5447C59.7256 40.6215 59.3949 39.7299 59.16 38.9139L56.3973 40.6089ZM32.4477 64.3742H60.4116C60.4765 62.9879 60.3312 62.8273 59.0395 62.8273H33.6405C33.4789 62.8178 33.3169 62.8178 33.1553 62.8273C32.9747 62.8361 32.8035 62.9121 32.6742 63.0411C32.5449 63.17 32.4665 63.3428 32.4538 63.5267C32.4343 63.8088 32.4323 64.0919 32.4477 64.3742ZM51.1006 35.0953C51.1038 36.1389 51.5099 37.1393 52.2311 37.8799C52.9523 38.6205 53.9306 39.0418 54.9542 39.0525C55.4696 39.0555 55.9804 38.9541 56.4571 38.7544C56.9338 38.5547 57.3669 38.2605 57.7313 37.8889C58.0958 37.5174 58.3843 37.0758 58.5802 36.5898C58.7761 36.1038 58.8755 35.583 58.8726 35.0575C58.8621 34.014 58.4489 33.0166 57.7225 32.2813C56.9961 31.546 56.0149 31.1319 54.9912 31.1287C53.9594 31.1287 52.9698 31.5466 52.2401 32.2905C51.5105 33.0344 51.1006 34.0433 51.1006 35.0953ZM50.3064 61.2204C50.4424 59.3301 49.8707 57.824 48.2112 56.945C47.5559 56.5671 46.8024 56.4043 46.0531 56.4787C45.3038 56.5531 44.5952 56.8612 44.0238 57.3609C42.7877 58.3376 42.42 59.6798 42.5776 61.2204H50.3064ZM50.3064 51.7685H36.3538V52.4995H50.3064V51.7685ZM55.3528 22.9149L55.7515 21.3869L49.7532 19.7486L49.3577 21.2766L55.3528 22.9149ZM49.3731 42.6191L44.8675 41.384C44.7284 41.9165 44.6017 42.3985 44.4627 42.9215L48.9652 44.144L49.3731 42.6191ZM42.5745 56.4535C43.0504 56.1384 43.5016 55.8234 43.9528 55.5241C43.9909 55.499 44.0231 55.4657 44.0471 55.4264C44.0711 55.3872 44.0864 55.3431 44.0918 55.2972C44.1073 54.9097 44.0918 54.5222 44.0918 54.1346H42.5652L42.5745 56.4535ZM52.2842 25.3598L52.6828 23.8318L51.1933 23.4317L50.8008 24.9471L52.2842 25.3598ZM45.1765 46.3872L46.6753 46.7999C46.8113 46.2706 46.938 45.7791 47.074 45.2624L45.5813 44.8718L45.1765 46.3872Z" fill="#121891"/>
<path d="M21.5575 50.1523H21.0723C20.2349 50.1523 19.9938 49.9065 19.9938 49.0716C19.9938 48.181 19.9938 47.2894 19.9938 46.3967C19.9938 45.6784 20.2627 45.3979 20.9518 45.3979H29.9383C30.5966 45.3979 30.8654 45.6878 30.8654 46.3715C30.8654 47.2631 30.8654 48.1548 30.8654 49.0464C30.8654 49.938 30.6522 50.1523 29.7807 50.1523H29.3295V50.7477C29.3295 54.5128 29.3295 58.2746 29.3295 62.0365C29.3316 62.5584 29.2321 63.0755 29.0369 63.5579C28.8417 64.0403 28.5546 64.4785 28.1922 64.8471C27.8298 65.2157 27.3994 65.5074 26.9257 65.7053C26.452 65.9031 25.9446 66.0033 25.4327 66C24.9216 65.9987 24.4157 65.8945 23.9442 65.6933C23.4727 65.4921 23.0449 65.1978 22.6854 64.8274C22.3258 64.457 22.0416 64.0178 21.8491 63.5351C21.6566 63.0523 21.5596 62.5355 21.5637 62.0144C21.5637 58.2841 21.5637 54.5537 21.5637 50.8234L21.5575 50.1523ZM23.0439 61.2457C23.0776 61.79 23.1551 62.3306 23.2757 62.8619C23.453 63.3815 23.8052 63.8201 24.2697 64.0998C24.7342 64.3796 25.281 64.4824 25.8128 64.39C26.3545 64.3028 26.8484 64.0226 27.2065 63.5992C27.5647 63.1757 27.764 62.6365 27.769 62.0774C27.7844 59.768 27.769 57.4586 27.769 55.146C27.763 55.0721 27.7484 54.9991 27.7257 54.9286H23.1428V56.4882C23.6249 56.4882 24.0699 56.4882 24.5242 56.4882C25.0928 56.4882 25.4512 56.8033 25.4512 57.2822C25.4512 57.7611 25.099 58.0635 24.5242 58.0698C24.0637 58.0698 23.5971 58.0698 23.1459 58.0698V59.6451H24.4716C25.0897 59.6451 25.4451 59.935 25.4512 60.4265C25.4574 60.918 25.099 61.2236 24.4964 61.2299L23.0439 61.2457ZM23.1459 50.1743V53.284H27.7504V50.1743H23.1459ZM21.5853 47.0016V48.5454H29.2925V47.0016H21.5853Z" fill="#121891"/>
<path d="M57.3151 35.0734C57.3169 35.6984 57.078 36.2991 56.6497 36.7463C56.2215 37.1935 55.6381 37.4515 55.0252 37.4647C54.4042 37.4714 53.8059 37.2268 53.3616 36.7844C52.9173 36.342 52.6631 35.738 52.655 35.1049C52.654 34.4801 52.8932 33.8799 53.3213 33.4328C53.7494 32.9858 54.3323 32.7276 54.9449 32.7135C55.2525 32.7098 55.5578 32.7679 55.8434 32.8844C56.1291 33.001 56.3893 33.1738 56.6094 33.3929C56.8295 33.6121 57.0051 33.8733 57.1262 34.1616C57.2473 34.4499 57.3115 34.7598 57.3151 35.0734ZM54.982 34.3015C54.7797 34.3039 54.5863 34.3865 54.4427 34.5317C54.299 34.677 54.2165 34.8735 54.2125 35.0797C54.2115 35.2863 54.2893 35.4852 54.4294 35.6345C54.5695 35.7838 54.761 35.8718 54.9634 35.8799C55.0679 35.8821 55.1718 35.8628 55.2688 35.8233C55.3659 35.7838 55.4542 35.7248 55.5285 35.6499C55.6028 35.575 55.6617 35.4857 55.7016 35.3872C55.7415 35.2887 55.7616 35.1831 55.7607 35.0765C55.7543 34.8698 55.6697 34.6736 55.5245 34.5291C55.3793 34.3846 55.1849 34.303 54.982 34.3015Z" fill="#121891"/>
</g>
<defs>
<clipPath id="clip0_1669_4210">
<rect width="42" height="48" fill="white" transform="translate(20 18)"/>
</clipPath>
</defs>
</svg>
