<svg width="83" height="83" viewBox="0 0 83 83" fill="none" xmlns="http://www.w3.org/2000/svg">
<rect width="83" height="83" rx="16" fill="#121891"/>
<path d="M42.2927 20.0042C42.9413 20.1422 43.5557 20.4087 44.0996 20.7882C44.5633 21.1485 44.9437 21.6047 45.2149 22.1256C45.4015 22.5064 45.6964 22.8238 46.0626 23.0379C46.4288 23.2519 46.85 23.3531 47.2734 23.3289C47.6675 23.3289 48.0658 23.3289 48.4599 23.3289C48.5958 23.3106 48.7341 23.3237 48.8642 23.3671C48.9942 23.4106 49.1126 23.4833 49.2101 23.5796C49.3077 23.676 49.3819 23.7934 49.427 23.9229C49.4721 24.0524 49.4869 24.1905 49.4703 24.3266V25.794V27.5885C49.4703 28.0077 49.4703 28.4606 49.4703 28.8924C49.4703 29.7812 49.1601 30.0956 48.2755 30.0956H33.8573C33.0816 30.0956 32.7546 29.756 32.7504 28.9762V27.5885V25.794C32.7504 25.2951 32.7504 24.7921 32.7504 24.2932C32.7383 24.1637 32.7547 24.0331 32.7986 23.9107C32.8424 23.7882 32.9126 23.6769 33.0042 23.5846C33.0957 23.4922 33.2064 23.4211 33.3285 23.3762C33.4505 23.3312 33.5809 23.3137 33.7105 23.3247C34.2783 23.3442 34.8466 23.3302 35.4127 23.2827C35.7313 23.2463 36.0361 23.1325 36.3006 22.9513C36.5652 22.77 36.7814 22.5269 36.9304 22.243C37.2019 21.6794 37.6022 21.1878 38.0989 20.8076C38.5957 20.4274 39.1749 20.1694 39.7897 20.0545C39.7897 20.0545 39.8275 20.0168 39.8442 20L42.2927 20.0042ZM41.0936 28.3055H47.2902C47.4956 28.3055 47.7094 28.3431 47.6801 28.0161C47.6801 27.1441 47.6801 26.2762 47.6801 25.4042C47.6801 25.1526 47.5711 25.1191 47.3615 25.1233C46.5753 25.1641 45.7947 24.9713 45.118 24.5691C44.4413 24.167 43.8988 23.5734 43.5588 22.8634C43.3993 22.5535 43.1595 22.292 42.8646 22.1062C42.5696 21.9204 42.2303 21.8171 41.8818 21.807C41.3665 21.7777 40.85 21.7777 40.3347 21.807C39.9878 21.8124 39.6488 21.9114 39.3536 22.0937C39.0584 22.276 38.8179 22.5348 38.6577 22.8426C38.3183 23.5605 37.7723 24.1607 37.0895 24.5663C36.4068 24.9719 35.6185 25.1644 34.8257 25.1191C34.5532 25.1191 34.5197 25.2323 34.5239 25.4587C34.5239 26.2721 34.5239 27.0895 34.5239 27.9029C34.5239 28.2215 34.6035 28.3222 34.9431 28.3222C36.9933 28.297 39.0434 28.3055 41.0852 28.3055H41.0936Z" fill="white"/>
<path d="M32.7378 25.7982V27.5926C31.828 27.5926 30.9141 27.5926 30.0043 27.5926C29.6605 27.5926 29.5599 27.6555 29.5599 28.0119C29.5599 38.5184 29.5599 49.025 29.5599 59.5316C29.5599 59.8879 29.6395 59.9717 29.9791 59.9717C37.3888 59.9717 44.7956 59.9717 52.1997 59.9717C52.556 59.9717 52.6189 59.8921 52.6189 59.5316C52.6021 53.9163 52.6021 48.3025 52.6189 42.69C52.6189 37.7973 52.6189 32.9046 52.6189 28.0161C52.6189 27.643 52.5183 27.5717 52.1703 27.5968C51.2605 27.622 50.3508 27.5968 49.441 27.5968V25.8024H53.3149C54.0654 25.8024 54.4008 26.1421 54.4008 26.9009V60.6635C54.4008 61.4266 54.0696 61.7619 53.3191 61.7619H28.8136C28.0715 61.7619 27.7319 61.4307 27.7319 60.7012V26.8589C27.7111 26.7161 27.7237 26.5703 27.7689 26.4332C27.8141 26.2961 27.8905 26.1714 27.9921 26.0689C28.0938 25.9665 28.2179 25.8891 28.3547 25.8428C28.4914 25.7966 28.6371 25.7827 28.7801 25.8024L32.7378 25.7982Z" fill="white"/>
<path d="M37.9869 37.7095C37.0436 37.7095 37.0478 37.7095 37.0394 38.6738C37.0464 38.9442 37.0324 39.2147 36.9975 39.4829C36.9614 39.6817 36.8587 39.8623 36.7063 39.9949C36.5539 40.1275 36.3608 40.2042 36.159 40.2124C35.953 40.2095 35.7544 40.1358 35.5963 40.0037C35.4383 39.8716 35.3306 39.6892 35.2911 39.4871C35.2241 39.0304 35.2114 38.5674 35.2534 38.1077C35.2534 37.7765 35.1485 37.6885 34.8341 37.6885C34.5197 37.6885 34.0753 37.6885 33.6937 37.6885C33.5747 37.6924 33.4561 37.6724 33.3449 37.6298C33.2337 37.5872 33.1322 37.5229 33.0462 37.4405C32.9603 37.358 32.8917 37.2592 32.8445 37.1499C32.7973 37.0406 32.7724 36.9229 32.7714 36.8038C32.7714 36.6845 32.7949 36.5665 32.8407 36.4563C32.8865 36.3462 32.9535 36.2462 33.0381 36.162C33.1226 36.0779 33.223 36.0113 33.3333 35.966C33.4437 35.9208 33.5619 35.8977 33.6811 35.8983C34.1004 35.8983 34.5197 35.8983 34.9389 35.8983C35.1653 35.8983 35.2533 35.8312 35.245 35.6006C35.222 35.1817 35.222 34.7618 35.245 34.3428C35.2402 34.1781 35.2809 34.0153 35.3625 33.8722C35.4442 33.7291 35.5637 33.6112 35.7079 33.5316C35.8521 33.4519 36.0155 33.4135 36.1801 33.4205C36.3447 33.4275 36.5042 33.4797 36.6411 33.5714C36.7817 33.6698 36.8943 33.8032 36.9678 33.9583C37.0413 34.1134 37.0732 34.2849 37.0604 34.456C37.0604 34.8334 37.0604 35.2149 37.0604 35.5964C37.0604 35.8186 37.1232 35.9108 37.358 35.9025C37.7521 35.9025 38.1462 35.9025 38.5403 35.9025C38.6662 35.8909 38.793 35.9055 38.9129 35.9454C39.0328 35.9854 39.1431 36.0497 39.2369 36.1344C39.3307 36.2191 39.4059 36.3223 39.4577 36.4376C39.5096 36.5528 39.537 36.6775 39.5382 36.8038C39.5365 36.9295 39.5086 37.0535 39.4564 37.1679C39.4043 37.2822 39.3289 37.3844 39.235 37.468C39.1411 37.5516 39.0309 37.6148 38.9113 37.6535C38.7917 37.6922 38.6654 37.7055 38.5403 37.6927L37.9869 37.7095Z" fill="white"/>
<path d="M44.4393 43.3945C45.827 43.3945 47.2106 43.3945 48.5941 43.3945C48.8219 43.3911 49.0419 43.4768 49.2072 43.6335C49.3725 43.7902 49.47 44.0054 49.4787 44.233C49.4888 44.459 49.4132 44.6803 49.2671 44.8529C49.121 45.0255 48.915 45.1365 48.6905 45.1638C48.551 45.175 48.4108 45.175 48.2713 45.1638H40.4899C40.2864 45.1749 40.0831 45.1405 39.8946 45.0632C39.7146 44.9786 39.5686 44.8355 39.4803 44.6574C39.392 44.4793 39.3666 44.2765 39.4082 44.0821C39.44 43.8785 39.5456 43.6937 39.7049 43.563C39.8642 43.4323 40.066 43.3649 40.2719 43.3735C41.6554 43.3861 43.0431 43.3945 44.4393 43.3945Z" fill="white"/>
<path d="M44.4392 53.3434C45.7851 53.3434 47.1267 53.3434 48.4725 53.3434C48.6014 53.3324 48.7312 53.3491 48.853 53.3927C48.9749 53.4362 49.0859 53.5056 49.1785 53.5959C49.2712 53.6861 49.3434 53.7954 49.3901 53.916C49.4368 54.0367 49.457 54.166 49.4493 54.2952C49.4389 54.4176 49.4041 54.5368 49.3469 54.6456C49.2897 54.7545 49.2114 54.8507 49.1165 54.9289C49.0215 55.007 48.912 55.0653 48.7942 55.1005C48.6764 55.1357 48.5528 55.147 48.4306 55.1337C47.5208 55.1337 46.611 55.1337 45.7012 55.1337C43.9361 55.1337 42.1711 55.1337 40.406 55.1337C39.6597 55.1337 39.2111 54.5844 39.4166 53.9513C39.4807 53.7567 39.6099 53.59 39.7824 53.4793C39.955 53.3686 40.1604 53.3206 40.3641 53.3434C41.7393 53.3392 43.0976 53.3434 44.4392 53.3434Z" fill="white"/>
<path d="M44.4393 50.1653C43.0976 50.1653 41.7518 50.1653 40.406 50.1653C40.2531 50.1806 40.0989 50.1567 39.9577 50.0959C39.8166 50.0351 39.6933 49.9394 39.5993 49.8178C39.5054 49.6962 39.444 49.5527 39.4208 49.4008C39.3976 49.2489 39.4135 49.0936 39.4669 48.9495C39.5265 48.7662 39.6473 48.609 39.8092 48.5044C39.9711 48.3998 40.1641 48.3541 40.3557 48.3751H48.5438C48.7284 48.3634 48.912 48.4102 49.0686 48.5088C49.2251 48.6074 49.3466 48.7528 49.4158 48.9244C49.487 49.0803 49.5087 49.2544 49.478 49.423C49.4473 49.5917 49.3656 49.7469 49.2439 49.8677C49.1352 49.977 49.0037 50.0608 48.8586 50.113C48.7136 50.1652 48.5588 50.1845 48.4054 50.1695L44.4393 50.1653Z" fill="white"/>
<path d="M46.0744 33.4412H48.439C48.5676 33.4245 48.6982 33.4354 48.8223 33.4733C48.9463 33.5112 49.0608 33.5751 49.158 33.6609C49.2553 33.7466 49.3331 33.8522 49.3862 33.9705C49.4394 34.0888 49.4666 34.2171 49.4661 34.3468C49.4634 34.4731 49.4344 34.5974 49.381 34.7119C49.3276 34.8264 49.2509 34.9285 49.1558 35.0117C49.0608 35.0949 48.9494 35.1575 48.8289 35.1953C48.7084 35.2331 48.5813 35.2453 48.4557 35.2313C46.8793 35.2313 45.303 35.2313 43.7266 35.2313C43.5977 35.2474 43.4669 35.2359 43.3429 35.1975C43.2189 35.1591 43.1045 35.0947 43.0073 35.0086C42.9102 34.9225 42.8324 34.8167 42.7793 34.6983C42.7262 34.5798 42.6989 34.4514 42.6993 34.3216C42.7026 34.1956 42.7321 34.0718 42.7857 33.9578C42.8394 33.8438 42.9161 33.7422 43.0111 33.6594C43.1061 33.5767 43.2173 33.5145 43.3375 33.4769C43.4578 33.4394 43.5846 33.4272 43.7098 33.4412H46.0744Z" fill="white"/>
<path d="M46.1163 38.4219C46.9045 38.4219 47.6927 38.4219 48.4809 38.4219C48.6028 38.411 48.7256 38.4252 48.8419 38.4635C48.9581 38.5018 49.0653 38.5636 49.1568 38.6449C49.2483 38.7262 49.3222 38.8253 49.3739 38.9362C49.4257 39.0471 49.4542 39.1675 49.4577 39.2898C49.4605 39.4168 49.4366 39.5429 49.3875 39.66C49.3384 39.7771 49.2652 39.8825 49.1726 39.9695C49.0801 40.0565 48.9704 40.1231 48.8505 40.1649C48.7306 40.2067 48.6032 40.2228 48.4767 40.2122C46.8751 40.2122 45.2694 40.2122 43.6678 40.2122C43.5413 40.2222 43.414 40.2055 43.2943 40.1631C43.1746 40.1208 43.0651 40.0538 42.973 39.9664C42.8809 39.879 42.8082 39.7734 42.7596 39.6561C42.711 39.5388 42.6876 39.4126 42.6909 39.2856C42.695 39.1633 42.724 39.043 42.7763 38.9323C42.8286 38.8216 42.9029 38.7226 42.9948 38.6417C43.0867 38.5608 43.1942 38.4996 43.3106 38.4618C43.4271 38.424 43.5501 38.4104 43.672 38.4219C44.4938 38.4136 45.3113 38.4219 46.1163 38.4219Z" fill="white"/>
<path d="M34.4819 48.3752C34.7796 48.3752 35.0815 48.3752 35.3791 48.3752C35.5914 48.3826 35.793 48.4702 35.9432 48.6204C36.0934 48.7706 36.181 48.9721 36.1883 49.1844C36.2133 49.395 36.1575 49.6073 36.0323 49.7785C35.907 49.9496 35.7216 50.0669 35.5133 50.1068C34.8184 50.2112 34.1119 50.2112 33.417 50.1068C33.2085 50.0632 33.0245 49.9417 32.9023 49.7673C32.78 49.5929 32.7287 49.3785 32.7588 49.1676C32.78 48.964 32.8708 48.774 33.016 48.6296C33.1611 48.4852 33.3517 48.3954 33.5554 48.3752H34.4861H34.4819Z" fill="white"/>
<path d="M34.482 55.1335C34.2095 55.1335 33.937 55.1335 33.6686 55.1335C33.5462 55.1352 33.4246 55.1121 33.3113 55.0655C33.198 55.0189 33.0953 54.9498 33.0095 54.8624C32.9236 54.775 32.8564 54.6711 32.8119 54.557C32.7673 54.4429 32.7465 54.3209 32.7504 54.1984C32.7656 53.9618 32.8737 53.7409 33.0512 53.5838C33.2288 53.4267 33.4613 53.3461 33.698 53.3599C34.2262 53.3599 34.7545 53.3599 35.2786 53.3599C35.3939 53.3531 35.5093 53.3697 35.6181 53.4085C35.7268 53.4474 35.8266 53.5077 35.9115 53.5859C35.9965 53.6642 36.0648 53.7588 36.1123 53.864C36.1599 53.9693 36.1857 54.083 36.1883 54.1984C36.1968 54.3158 36.1818 54.4337 36.144 54.5451C36.1062 54.6565 36.0464 54.7592 35.9683 54.8472C35.8901 54.9351 35.7951 55.0065 35.6889 55.0571C35.5826 55.1077 35.4673 55.1365 35.3498 55.1417C35.0689 55.1627 34.7796 55.1417 34.5113 55.1417L34.482 55.1335Z" fill="white"/>
<path d="M34.4568 45.1888C34.1968 45.1888 33.9369 45.1888 33.6812 45.1888C33.558 45.1923 33.4354 45.1706 33.3209 45.125C33.2064 45.0795 33.1025 45.0111 33.0153 44.924C32.9282 44.8369 32.8597 44.7329 32.8142 44.6184C32.7686 44.5039 32.7469 44.3812 32.7504 44.2581C32.7568 44.1405 32.7865 44.0254 32.8377 43.9195C32.889 43.8135 32.9607 43.7188 33.0489 43.6408C33.137 43.5627 33.2398 43.5031 33.3512 43.4651C33.4626 43.4271 33.5805 43.4116 33.6979 43.4196C34.2262 43.4196 34.7587 43.4196 35.2869 43.4196C35.3998 43.4116 35.5131 43.4266 35.62 43.4636C35.7269 43.5006 35.8253 43.5588 35.9091 43.6348C35.9929 43.7108 36.0605 43.803 36.1078 43.9058C36.1551 44.0086 36.181 44.1199 36.1841 44.233C36.2006 44.3487 36.1927 44.4666 36.1609 44.5792C36.1291 44.6917 36.0742 44.7963 35.9995 44.8863C35.9249 44.9764 35.8323 45.0498 35.7276 45.1019C35.623 45.154 35.5086 45.1835 35.3917 45.1888C35.0804 45.2077 34.7681 45.2077 34.4568 45.1888Z" fill="white"/>
<path d="M41.2319 26.2008C41.1129 26.2015 40.995 26.1779 40.8853 26.1315C40.7757 26.0851 40.6767 26.0169 40.5943 25.931C40.5119 25.845 40.4478 25.7433 40.4061 25.6318C40.3644 25.5203 40.3458 25.4014 40.3515 25.2825C40.3467 25.1664 40.3662 25.0505 40.4086 24.9423C40.451 24.8341 40.5154 24.7359 40.5978 24.6539C40.6802 24.5719 40.7787 24.5078 40.8872 24.4659C40.9956 24.424 41.1116 24.4052 41.2277 24.4106C41.3469 24.4087 41.4652 24.4312 41.5753 24.4769C41.6854 24.5225 41.785 24.5903 41.8679 24.676C41.9508 24.7616 42.0153 24.8634 42.0573 24.9749C42.0994 25.0865 42.1181 25.2054 42.1124 25.3245C42.1141 25.4404 42.0924 25.5554 42.0487 25.6628C42.005 25.7701 41.9402 25.8676 41.858 25.9494C41.7759 26.0312 41.6781 26.0956 41.5705 26.1388C41.463 26.1819 41.3478 26.203 41.2319 26.2008Z" fill="white"/>
</svg>
