<svg width="83" height="83" viewBox="0 0 83 83" fill="none" xmlns="http://www.w3.org/2000/svg">
<rect width="83" height="83" rx="16" fill="white"/>
<g clip-path="url(#clip0_1669_4205)">
<path d="M38.8872 21C39.808 21.286 40.4405 21.8479 40.5821 22.8401C40.6039 23.1586 40.6039 23.4783 40.5821 23.7968H41.088C43.6987 23.7968 46.3118 23.7968 48.93 23.8095C49.1529 23.8195 49.3647 23.9093 49.527 24.0626C52.3113 26.8298 55.0864 29.6064 57.8521 32.3922C57.9844 32.5197 58.067 32.6902 58.0849 32.8731C58.0967 36.3085 58.0967 39.7423 58.0849 43.1744C58.0849 43.2402 58.0849 43.306 58.0671 43.3971H56.7113V33.6223H48.3279V25.2344H40.6201V42.4455C40.6201 43.9945 39.7929 44.817 38.2346 44.817H27.357V61.5927H56.7011V53.2656H58.0899V63.0025H25.9075V44.812C24.9741 44.812 24.0735 44.855 23.1806 44.7943C22.7215 44.7827 22.2751 44.6414 21.893 44.3868C21.511 44.0881 21.2909 43.5819 21 43.1643V22.7236C21.102 22.3061 21.3166 21.9246 21.6204 21.6207C21.9241 21.3168 22.3054 21.1021 22.7227 21H38.8872ZM22.3989 32.8959V42.4151C22.3989 43.2124 22.6013 43.4275 23.3804 43.4275H38.2245C38.9834 43.4275 39.2085 43.2124 39.2085 42.4581V23.3741C39.2085 22.6148 38.9859 22.4047 38.2245 22.4047H23.3779C22.619 22.4047 22.3989 22.6224 22.3989 23.3766V32.8959ZM55.5375 32.1922C53.6048 30.2636 51.6545 28.3172 49.742 26.4038V32.1922H55.5375Z" fill="#121891"/>
<path d="M60.9333 42.7517C61.3272 42.7537 61.7121 42.8706 62.0405 43.0882C62.369 43.3058 62.6269 43.6146 62.7825 43.9767C62.9691 44.347 63.0337 44.7669 62.9668 45.1762C62.9 45.5855 62.7053 45.963 62.4106 46.2547C61.7403 46.976 61.0269 47.6569 60.3312 48.3529C57.0848 51.6027 53.8359 54.8501 50.5844 58.0948C50.3712 58.3027 50.125 58.4737 49.8559 58.6011C48.796 59.1073 47.7234 59.5831 46.6609 60.0817C46.3245 60.2386 46.0058 60.3044 45.7148 60.021C45.4239 59.7375 45.4771 59.3857 45.6465 59.0389C45.8419 58.6636 46.0175 58.2784 46.1727 57.8848C46.795 56.1662 47.8726 54.7994 49.183 53.5289C52.5778 50.2385 55.8917 46.8571 59.2308 43.506C59.4492 43.272 59.7126 43.0846 60.0051 42.955C60.2977 42.8254 60.6134 42.7562 60.9333 42.7517ZM47.6551 58.0695C48.667 57.6393 49.5523 57.2166 50.2885 56.4598C52.8611 53.8123 55.492 51.2256 58.1026 48.6136C58.2038 48.5123 58.2999 48.4035 58.3201 48.3807L57.3867 47.3C57.2779 47.4291 57.197 47.5531 57.1008 47.6366C54.4826 50.2588 51.8872 52.9012 49.2311 55.4828C48.4823 56.2118 48.1104 57.0926 47.6551 58.0695ZM60.9055 45.8143C61.1964 45.4549 61.7175 45.2347 61.5429 44.6753C61.4997 44.5596 61.4322 44.4546 61.3449 44.3672C61.2576 44.2799 61.1526 44.2123 61.037 44.1691C60.4855 44.0274 60.2477 44.5108 59.9619 44.7943L60.9055 45.8143ZM59.8202 46.9026L58.9652 45.9332L58.5073 46.2623L59.4636 47.2569L59.8202 46.9026Z" fill="#121891"/>
<path d="M44.1085 53.2176C44.1052 55.0712 43.3702 56.8485 42.0635 58.1626C40.7569 59.4766 38.9843 60.221 37.1317 60.2336C35.2735 60.2377 33.4897 59.5033 32.1724 58.192C30.8551 56.8806 30.1122 55.0996 30.1068 53.2404C30.1061 52.3191 30.287 51.4066 30.639 50.5553C30.991 49.7039 31.5072 48.9303 32.1583 48.2787C32.8093 47.6271 33.5823 47.1103 34.433 46.7578C35.2838 46.4053 36.1957 46.224 37.1165 46.2244C38.9672 46.235 40.7391 46.9751 42.048 48.2842C43.3569 49.5934 44.0972 51.3659 44.1085 53.2176ZM42.7045 53.2176C42.6985 51.7298 42.1027 50.3052 41.0479 49.2565C39.9931 48.2078 38.5656 47.6207 37.0786 47.624C35.5935 47.6374 34.1743 48.2388 33.1313 49.2965C32.0883 50.3543 31.5066 51.7824 31.5133 53.2682C31.5273 54.7473 32.1233 56.1612 33.1722 57.2035C34.221 58.2459 35.6382 58.8326 37.1165 58.8365C38.602 58.8265 40.0233 58.229 41.0702 57.1744C42.117 56.1199 42.7046 54.6938 42.7045 53.2075V53.2176Z" fill="#121891"/>
<path d="M46.2106 42.6783V41.3445H54.5788V42.6707L46.2106 42.6783Z" fill="#121891"/>
<path d="M46.2208 37.0745V35.7356H54.5687V37.0745H46.2208Z" fill="#121891"/>
<path d="M46.2208 39.8764V38.5349H54.5863V39.8764H46.2208Z" fill="#121891"/>
<path d="M46.2182 45.4953V44.1514H54.5888V45.4953H46.2182Z" fill="#121891"/>
<path d="M44.7864 42.6986H43.4255V41.3445H44.7864V42.6986Z" fill="#121891"/>
<path d="M43.4229 37.0771V35.728H44.7662V37.0771H43.4229Z" fill="#121891"/>
<path d="M44.7839 44.1589V45.4979H43.4255V44.1589H44.7839Z" fill="#121891"/>
<path d="M43.4356 38.5249H44.7738V39.8866H43.4356V38.5249Z" fill="#121891"/>
<path d="M23.9597 28.9878V24.1536H37.6477V28.9878H23.9597ZM25.3611 27.5882H36.2615V25.5634H25.3611V27.5882Z" fill="#121891"/>
<path d="M37.7995 49.7651C39.2414 50.2182 39.9016 50.8686 39.8536 51.8152C39.4514 51.8152 39.0466 51.8152 38.6419 51.8152C38.5773 51.804 38.5189 51.7698 38.4774 51.7191C38.1655 51.4048 37.7584 51.2026 37.3196 51.144C36.8808 51.0854 36.4349 51.1737 36.0515 51.3951C35.6088 51.6735 35.5911 52.0253 36.0515 52.2506C36.3977 52.4046 36.7687 52.4955 37.1468 52.5189C37.7762 52.5336 38.3915 52.7078 38.9353 53.0251C40.2178 53.8527 40.2128 55.4017 38.9126 56.2091C38.5545 56.4017 38.1844 56.5708 37.8046 56.7153V57.3987H36.4158V56.6799C35.6872 56.4799 35.0093 56.2193 34.5995 55.5688C34.4448 55.2676 34.3145 54.9544 34.2099 54.6323C34.7158 54.6323 35.1434 54.6323 35.5607 54.6323C35.6256 54.6461 35.6836 54.6819 35.7252 54.7335C36.0356 55.0395 36.4364 55.237 36.868 55.2967C37.2996 55.3565 37.739 55.2752 38.1208 55.0651C38.5938 54.7867 38.6267 54.4121 38.1208 54.1868C37.7585 54.0381 37.3735 53.9525 36.9824 53.9337C36.3542 53.9096 35.7434 53.7202 35.2117 53.3845C33.9898 52.5543 33.9848 51.0787 35.2117 50.2713C35.5876 50.062 35.9782 49.8801 36.3804 49.7271L36.4132 49.0488H37.7843L37.7995 49.7651Z" fill="#121891"/>
<path d="M26.2136 30.9165H24.2101V32.9211H26.2136V30.9165Z" fill="#121891"/>
<path d="M31.8042 30.9165H29.8007V32.9211H31.8042V30.9165Z" fill="#121891"/>
<path d="M37.3947 30.9165H35.3912V32.9211H37.3947V30.9165Z" fill="#121891"/>
<path d="M26.2136 35.2295H24.2101V37.2341H26.2136V35.2295Z" fill="#121891"/>
<path d="M31.8042 35.2295H29.8007V37.2341H31.8042V35.2295Z" fill="#121891"/>
<path d="M37.3947 35.2295H35.3912V37.2341H37.3947V35.2295Z" fill="#121891"/>
<path d="M26.2136 39.55H24.2101V41.5546H26.2136V39.55Z" fill="#121891"/>
<path d="M31.8042 39.55H29.8007V41.5546H31.8042V39.55Z" fill="#121891"/>
<path d="M37.3947 39.55H35.3912V41.5546H37.3947V39.55Z" fill="#121891"/>
</g>
<defs>
<clipPath id="clip0_1669_4205">
<rect width="42" height="42" fill="white" transform="translate(21 21)"/>
</clipPath>
</defs>
</svg>
